<?xml version="1.0" encoding="utf-8" standalone="no"?>
<!DOCTYPE svg PUBLIC "-//W3C//DTD SVG 1.1//EN"
  "http://www.w3.org/Graphics/SVG/1.1/DTD/svg11.dtd">
<!-- Created with matplotlib (https://matplotlib.org/) -->
<svg height="288pt" version="1.1" viewBox="0 0 432 288" width="432pt" xmlns="http://www.w3.org/2000/svg" xmlns:xlink="http://www.w3.org/1999/xlink">
 <defs>
  <style type="text/css">
*{stroke-linecap:butt;stroke-linejoin:round;}
  </style>
 </defs>
 <g id="figure_1">
  <g id="patch_1">
   <path d="M 0 288 
L 432 288 
L 432 0 
L 0 0 
z
" style="fill:#ffffff;"/>
  </g>
  <g id="axes_1">
   <g id="patch_2">
    <path d="M 54 252 
L 388.8 252 
L 388.8 34.56 
L 54 34.56 
z
" style="fill:#ffffff;"/>
   </g>
   <g id="matplotlib.axis_1">
    <g id="xtick_1">
     <g id="line2d_1">
      <path clip-path="url(#p0be89f78e6)" d="M 54 252 
L 54 34.56 
" style="fill:none;stroke:#808080;stroke-dasharray:2.96,1.28;stroke-dashoffset:0;stroke-width:0.8;"/>
     </g>
     <g id="line2d_2">
      <defs>
       <path d="M 0 0 
L 0 3.5 
" id="mb39bc634e0" style="stroke:#000000;stroke-width:0.8;"/>
      </defs>
      <g>
       <use style="stroke:#000000;stroke-width:0.8;" x="54" xlink:href="#mb39bc634e0" y="252"/>
      </g>
     </g>
     <g id="text_1">
      <!-- 0 -->
      <defs>
       <path d="M 31.78125 66.40625 
Q 24.171875 66.40625 20.328125 58.90625 
Q 16.5 51.421875 16.5 36.375 
Q 16.5 21.390625 20.328125 13.890625 
Q 24.171875 6.390625 31.78125 6.390625 
Q 39.453125 6.390625 43.28125 13.890625 
Q 47.125 21.390625 47.125 36.375 
Q 47.125 51.421875 43.28125 58.90625 
Q 39.453125 66.40625 31.78125 66.40625 
z
M 31.78125 74.21875 
Q 44.046875 74.21875 50.515625 64.515625 
Q 56.984375 54.828125 56.984375 36.375 
Q 56.984375 17.96875 50.515625 8.265625 
Q 44.046875 -1.421875 31.78125 -1.421875 
Q 19.53125 -1.421875 13.0625 8.265625 
Q 6.59375 17.96875 6.59375 36.375 
Q 6.59375 54.828125 13.0625 64.515625 
Q 19.53125 74.21875 31.78125 74.21875 
z
" id="DejaVuSans-48"/>
      </defs>
      <g transform="translate(50.81875 266.598437)scale(0.1 -0.1)">
       <use xlink:href="#DejaVuSans-48"/>
      </g>
     </g>
    </g>
    <g id="xtick_2">
     <g id="line2d_3">
      <path clip-path="url(#p0be89f78e6)" d="M 91.256513 252 
L 91.256513 34.56 
" style="fill:none;stroke:#808080;stroke-dasharray:2.96,1.28;stroke-dashoffset:0;stroke-width:0.8;"/>
     </g>
     <g id="line2d_4">
      <g>
       <use style="stroke:#000000;stroke-width:0.8;" x="91.256513" xlink:href="#mb39bc634e0" y="252"/>
      </g>
     </g>
     <g id="text_2">
      <!-- 10 -->
      <defs>
       <path d="M 12.40625 8.296875 
L 28.515625 8.296875 
L 28.515625 63.921875 
L 10.984375 60.40625 
L 10.984375 69.390625 
L 28.421875 72.90625 
L 38.28125 72.90625 
L 38.28125 8.296875 
L 54.390625 8.296875 
L 54.390625 0 
L 12.40625 0 
z
" id="DejaVuSans-49"/>
      </defs>
      <g transform="translate(84.894013 266.598437)scale(0.1 -0.1)">
       <use xlink:href="#DejaVuSans-49"/>
       <use x="63.623047" xlink:href="#DejaVuSans-48"/>
      </g>
     </g>
    </g>
    <g id="xtick_3">
     <g id="line2d_5">
      <path clip-path="url(#p0be89f78e6)" d="M 128.513026 252 
L 128.513026 34.56 
" style="fill:none;stroke:#808080;stroke-dasharray:2.96,1.28;stroke-dashoffset:0;stroke-width:0.8;"/>
     </g>
     <g id="line2d_6">
      <g>
       <use style="stroke:#000000;stroke-width:0.8;" x="128.513026" xlink:href="#mb39bc634e0" y="252"/>
      </g>
     </g>
     <g id="text_3">
      <!-- 20 -->
      <defs>
       <path d="M 19.1875 8.296875 
L 53.609375 8.296875 
L 53.609375 0 
L 7.328125 0 
L 7.328125 8.296875 
Q 12.9375 14.109375 22.625 23.890625 
Q 32.328125 33.6875 34.8125 36.53125 
Q 39.546875 41.84375 41.421875 45.53125 
Q 43.3125 49.21875 43.3125 52.78125 
Q 43.3125 58.59375 39.234375 62.25 
Q 35.15625 65.921875 28.609375 65.921875 
Q 23.96875 65.921875 18.8125 64.3125 
Q 13.671875 62.703125 7.8125 59.421875 
L 7.8125 69.390625 
Q 13.765625 71.78125 18.9375 73 
Q 24.125 74.21875 28.421875 74.21875 
Q 39.75 74.21875 46.484375 68.546875 
Q 53.21875 62.890625 53.21875 53.421875 
Q 53.21875 48.921875 51.53125 44.890625 
Q 49.859375 40.875 45.40625 35.40625 
Q 44.1875 33.984375 37.640625 27.21875 
Q 31.109375 20.453125 19.1875 8.296875 
z
" id="DejaVuSans-50"/>
      </defs>
      <g transform="translate(122.150526 266.598437)scale(0.1 -0.1)">
       <use xlink:href="#DejaVuSans-50"/>
       <use x="63.623047" xlink:href="#DejaVuSans-48"/>
      </g>
     </g>
    </g>
    <g id="xtick_4">
     <g id="line2d_7">
      <path clip-path="url(#p0be89f78e6)" d="M 165.76954 252 
L 165.76954 34.56 
" style="fill:none;stroke:#808080;stroke-dasharray:2.96,1.28;stroke-dashoffset:0;stroke-width:0.8;"/>
     </g>
     <g id="line2d_8">
      <g>
       <use style="stroke:#000000;stroke-width:0.8;" x="165.76954" xlink:href="#mb39bc634e0" y="252"/>
      </g>
     </g>
     <g id="text_4">
      <!-- 30 -->
      <defs>
       <path d="M 40.578125 39.3125 
Q 47.65625 37.796875 51.625 33 
Q 55.609375 28.21875 55.609375 21.1875 
Q 55.609375 10.40625 48.1875 4.484375 
Q 40.765625 -1.421875 27.09375 -1.421875 
Q 22.515625 -1.421875 17.65625 -0.515625 
Q 12.796875 0.390625 7.625 2.203125 
L 7.625 11.71875 
Q 11.71875 9.328125 16.59375 8.109375 
Q 21.484375 6.890625 26.8125 6.890625 
Q 36.078125 6.890625 40.9375 10.546875 
Q 45.796875 14.203125 45.796875 21.1875 
Q 45.796875 27.640625 41.28125 31.265625 
Q 36.765625 34.90625 28.71875 34.90625 
L 20.21875 34.90625 
L 20.21875 43.015625 
L 29.109375 43.015625 
Q 36.375 43.015625 40.234375 45.921875 
Q 44.09375 48.828125 44.09375 54.296875 
Q 44.09375 59.90625 40.109375 62.90625 
Q 36.140625 65.921875 28.71875 65.921875 
Q 24.65625 65.921875 20.015625 65.03125 
Q 15.375 64.15625 9.8125 62.3125 
L 9.8125 71.09375 
Q 15.4375 72.65625 20.34375 73.4375 
Q 25.25 74.21875 29.59375 74.21875 
Q 40.828125 74.21875 47.359375 69.109375 
Q 53.90625 64.015625 53.90625 55.328125 
Q 53.90625 49.265625 50.4375 45.09375 
Q 46.96875 40.921875 40.578125 39.3125 
z
" id="DejaVuSans-51"/>
      </defs>
      <g transform="translate(159.40704 266.598437)scale(0.1 -0.1)">
       <use xlink:href="#DejaVuSans-51"/>
       <use x="63.623047" xlink:href="#DejaVuSans-48"/>
      </g>
     </g>
    </g>
    <g id="xtick_5">
     <g id="line2d_9">
      <path clip-path="url(#p0be89f78e6)" d="M 203.026053 252 
L 203.026053 34.56 
" style="fill:none;stroke:#808080;stroke-dasharray:2.96,1.28;stroke-dashoffset:0;stroke-width:0.8;"/>
     </g>
     <g id="line2d_10">
      <g>
       <use style="stroke:#000000;stroke-width:0.8;" x="203.026053" xlink:href="#mb39bc634e0" y="252"/>
      </g>
     </g>
     <g id="text_5">
      <!-- 40 -->
      <defs>
       <path d="M 37.796875 64.3125 
L 12.890625 25.390625 
L 37.796875 25.390625 
z
M 35.203125 72.90625 
L 47.609375 72.90625 
L 47.609375 25.390625 
L 58.015625 25.390625 
L 58.015625 17.1875 
L 47.609375 17.1875 
L 47.609375 0 
L 37.796875 0 
L 37.796875 17.1875 
L 4.890625 17.1875 
L 4.890625 26.703125 
z
" id="DejaVuSans-52"/>
      </defs>
      <g transform="translate(196.663553 266.598437)scale(0.1 -0.1)">
       <use xlink:href="#DejaVuSans-52"/>
       <use x="63.623047" xlink:href="#DejaVuSans-48"/>
      </g>
     </g>
    </g>
    <g id="xtick_6">
     <g id="line2d_11">
      <path clip-path="url(#p0be89f78e6)" d="M 240.282566 252 
L 240.282566 34.56 
" style="fill:none;stroke:#808080;stroke-dasharray:2.96,1.28;stroke-dashoffset:0;stroke-width:0.8;"/>
     </g>
     <g id="line2d_12">
      <g>
       <use style="stroke:#000000;stroke-width:0.8;" x="240.282566" xlink:href="#mb39bc634e0" y="252"/>
      </g>
     </g>
     <g id="text_6">
      <!-- 50 -->
      <defs>
       <path d="M 10.796875 72.90625 
L 49.515625 72.90625 
L 49.515625 64.59375 
L 19.828125 64.59375 
L 19.828125 46.734375 
Q 21.96875 47.46875 24.109375 47.828125 
Q 26.265625 48.1875 28.421875 48.1875 
Q 40.625 48.1875 47.75 41.5 
Q 54.890625 34.8125 54.890625 23.390625 
Q 54.890625 11.625 47.5625 5.09375 
Q 40.234375 -1.421875 26.90625 -1.421875 
Q 22.3125 -1.421875 17.546875 -0.640625 
Q 12.796875 0.140625 7.71875 1.703125 
L 7.71875 11.625 
Q 12.109375 9.234375 16.796875 8.0625 
Q 21.484375 6.890625 26.703125 6.890625 
Q 35.15625 6.890625 40.078125 11.328125 
Q 45.015625 15.765625 45.015625 23.390625 
Q 45.015625 31 40.078125 35.4375 
Q 35.15625 39.890625 26.703125 39.890625 
Q 22.75 39.890625 18.8125 39.015625 
Q 14.890625 38.140625 10.796875 36.28125 
z
" id="DejaVuSans-53"/>
      </defs>
      <g transform="translate(233.920066 266.598437)scale(0.1 -0.1)">
       <use xlink:href="#DejaVuSans-53"/>
       <use x="63.623047" xlink:href="#DejaVuSans-48"/>
      </g>
     </g>
    </g>
    <g id="xtick_7">
     <g id="line2d_13">
      <path clip-path="url(#p0be89f78e6)" d="M 277.539079 252 
L 277.539079 34.56 
" style="fill:none;stroke:#808080;stroke-dasharray:2.96,1.28;stroke-dashoffset:0;stroke-width:0.8;"/>
     </g>
     <g id="line2d_14">
      <g>
       <use style="stroke:#000000;stroke-width:0.8;" x="277.539079" xlink:href="#mb39bc634e0" y="252"/>
      </g>
     </g>
     <g id="text_7">
      <!-- 60 -->
      <defs>
       <path d="M 33.015625 40.375 
Q 26.375 40.375 22.484375 35.828125 
Q 18.609375 31.296875 18.609375 23.390625 
Q 18.609375 15.53125 22.484375 10.953125 
Q 26.375 6.390625 33.015625 6.390625 
Q 39.65625 6.390625 43.53125 10.953125 
Q 47.40625 15.53125 47.40625 23.390625 
Q 47.40625 31.296875 43.53125 35.828125 
Q 39.65625 40.375 33.015625 40.375 
z
M 52.59375 71.296875 
L 52.59375 62.3125 
Q 48.875 64.0625 45.09375 64.984375 
Q 41.3125 65.921875 37.59375 65.921875 
Q 27.828125 65.921875 22.671875 59.328125 
Q 17.53125 52.734375 16.796875 39.40625 
Q 19.671875 43.65625 24.015625 45.921875 
Q 28.375 48.1875 33.59375 48.1875 
Q 44.578125 48.1875 50.953125 41.515625 
Q 57.328125 34.859375 57.328125 23.390625 
Q 57.328125 12.15625 50.6875 5.359375 
Q 44.046875 -1.421875 33.015625 -1.421875 
Q 20.359375 -1.421875 13.671875 8.265625 
Q 6.984375 17.96875 6.984375 36.375 
Q 6.984375 53.65625 15.1875 63.9375 
Q 23.390625 74.21875 37.203125 74.21875 
Q 40.921875 74.21875 44.703125 73.484375 
Q 48.484375 72.75 52.59375 71.296875 
z
" id="DejaVuSans-54"/>
      </defs>
      <g transform="translate(271.176579 266.598437)scale(0.1 -0.1)">
       <use xlink:href="#DejaVuSans-54"/>
       <use x="63.623047" xlink:href="#DejaVuSans-48"/>
      </g>
     </g>
    </g>
    <g id="xtick_8">
     <g id="line2d_15">
      <path clip-path="url(#p0be89f78e6)" d="M 314.795592 252 
L 314.795592 34.56 
" style="fill:none;stroke:#808080;stroke-dasharray:2.96,1.28;stroke-dashoffset:0;stroke-width:0.8;"/>
     </g>
     <g id="line2d_16">
      <g>
       <use style="stroke:#000000;stroke-width:0.8;" x="314.795592" xlink:href="#mb39bc634e0" y="252"/>
      </g>
     </g>
     <g id="text_8">
      <!-- 70 -->
      <defs>
       <path d="M 8.203125 72.90625 
L 55.078125 72.90625 
L 55.078125 68.703125 
L 28.609375 0 
L 18.3125 0 
L 43.21875 64.59375 
L 8.203125 64.59375 
z
" id="DejaVuSans-55"/>
      </defs>
      <g transform="translate(308.433092 266.598437)scale(0.1 -0.1)">
       <use xlink:href="#DejaVuSans-55"/>
       <use x="63.623047" xlink:href="#DejaVuSans-48"/>
      </g>
     </g>
    </g>
    <g id="xtick_9">
     <g id="line2d_17">
      <path clip-path="url(#p0be89f78e6)" d="M 352.052106 252 
L 352.052106 34.56 
" style="fill:none;stroke:#808080;stroke-dasharray:2.96,1.28;stroke-dashoffset:0;stroke-width:0.8;"/>
     </g>
     <g id="line2d_18">
      <g>
       <use style="stroke:#000000;stroke-width:0.8;" x="352.052106" xlink:href="#mb39bc634e0" y="252"/>
      </g>
     </g>
     <g id="text_9">
      <!-- 80 -->
      <defs>
       <path d="M 31.78125 34.625 
Q 24.75 34.625 20.71875 30.859375 
Q 16.703125 27.09375 16.703125 20.515625 
Q 16.703125 13.921875 20.71875 10.15625 
Q 24.75 6.390625 31.78125 6.390625 
Q 38.8125 6.390625 42.859375 10.171875 
Q 46.921875 13.96875 46.921875 20.515625 
Q 46.921875 27.09375 42.890625 30.859375 
Q 38.875 34.625 31.78125 34.625 
z
M 21.921875 38.8125 
Q 15.578125 40.375 12.03125 44.71875 
Q 8.5 49.078125 8.5 55.328125 
Q 8.5 64.0625 14.71875 69.140625 
Q 20.953125 74.21875 31.78125 74.21875 
Q 42.671875 74.21875 48.875 69.140625 
Q 55.078125 64.0625 55.078125 55.328125 
Q 55.078125 49.078125 51.53125 44.71875 
Q 48 40.375 41.703125 38.8125 
Q 48.828125 37.15625 52.796875 32.3125 
Q 56.78125 27.484375 56.78125 20.515625 
Q 56.78125 9.90625 50.3125 4.234375 
Q 43.84375 -1.421875 31.78125 -1.421875 
Q 19.734375 -1.421875 13.25 4.234375 
Q 6.78125 9.90625 6.78125 20.515625 
Q 6.78125 27.484375 10.78125 32.3125 
Q 14.796875 37.15625 21.921875 38.8125 
z
M 18.3125 54.390625 
Q 18.3125 48.734375 21.84375 45.5625 
Q 25.390625 42.390625 31.78125 42.390625 
Q 38.140625 42.390625 41.71875 45.5625 
Q 45.3125 48.734375 45.3125 54.390625 
Q 45.3125 60.0625 41.71875 63.234375 
Q 38.140625 66.40625 31.78125 66.40625 
Q 25.390625 66.40625 21.84375 63.234375 
Q 18.3125 60.0625 18.3125 54.390625 
z
" id="DejaVuSans-56"/>
      </defs>
      <g transform="translate(345.689606 266.598437)scale(0.1 -0.1)">
       <use xlink:href="#DejaVuSans-56"/>
       <use x="63.623047" xlink:href="#DejaVuSans-48"/>
      </g>
     </g>
    </g>
    <g id="text_10">
     <!-- Elapsed Time (m) -->
     <defs>
      <path d="M 9.8125 72.90625 
L 55.90625 72.90625 
L 55.90625 64.59375 
L 19.671875 64.59375 
L 19.671875 43.015625 
L 54.390625 43.015625 
L 54.390625 34.71875 
L 19.671875 34.71875 
L 19.671875 8.296875 
L 56.78125 8.296875 
L 56.78125 0 
L 9.8125 0 
z
" id="DejaVuSans-69"/>
      <path d="M 9.421875 75.984375 
L 18.40625 75.984375 
L 18.40625 0 
L 9.421875 0 
z
" id="DejaVuSans-108"/>
      <path d="M 34.28125 27.484375 
Q 23.390625 27.484375 19.1875 25 
Q 14.984375 22.515625 14.984375 16.5 
Q 14.984375 11.71875 18.140625 8.90625 
Q 21.296875 6.109375 26.703125 6.109375 
Q 34.1875 6.109375 38.703125 11.40625 
Q 43.21875 16.703125 43.21875 25.484375 
L 43.21875 27.484375 
z
M 52.203125 31.203125 
L 52.203125 0 
L 43.21875 0 
L 43.21875 8.296875 
Q 40.140625 3.328125 35.546875 0.953125 
Q 30.953125 -1.421875 24.3125 -1.421875 
Q 15.921875 -1.421875 10.953125 3.296875 
Q 6 8.015625 6 15.921875 
Q 6 25.140625 12.171875 29.828125 
Q 18.359375 34.515625 30.609375 34.515625 
L 43.21875 34.515625 
L 43.21875 35.40625 
Q 43.21875 41.609375 39.140625 45 
Q 35.0625 48.390625 27.6875 48.390625 
Q 23 48.390625 18.546875 47.265625 
Q 14.109375 46.140625 10.015625 43.890625 
L 10.015625 52.203125 
Q 14.9375 54.109375 19.578125 55.046875 
Q 24.21875 56 28.609375 56 
Q 40.484375 56 46.34375 49.84375 
Q 52.203125 43.703125 52.203125 31.203125 
z
" id="DejaVuSans-97"/>
      <path d="M 18.109375 8.203125 
L 18.109375 -20.796875 
L 9.078125 -20.796875 
L 9.078125 54.6875 
L 18.109375 54.6875 
L 18.109375 46.390625 
Q 20.953125 51.265625 25.265625 53.625 
Q 29.59375 56 35.59375 56 
Q 45.5625 56 51.78125 48.09375 
Q 58.015625 40.1875 58.015625 27.296875 
Q 58.015625 14.40625 51.78125 6.484375 
Q 45.5625 -1.421875 35.59375 -1.421875 
Q 29.59375 -1.421875 25.265625 0.953125 
Q 20.953125 3.328125 18.109375 8.203125 
z
M 48.6875 27.296875 
Q 48.6875 37.203125 44.609375 42.84375 
Q 40.53125 48.484375 33.40625 48.484375 
Q 26.265625 48.484375 22.1875 42.84375 
Q 18.109375 37.203125 18.109375 27.296875 
Q 18.109375 17.390625 22.1875 11.75 
Q 26.265625 6.109375 33.40625 6.109375 
Q 40.53125 6.109375 44.609375 11.75 
Q 48.6875 17.390625 48.6875 27.296875 
z
" id="DejaVuSans-112"/>
      <path d="M 44.28125 53.078125 
L 44.28125 44.578125 
Q 40.484375 46.53125 36.375 47.5 
Q 32.28125 48.484375 27.875 48.484375 
Q 21.1875 48.484375 17.84375 46.4375 
Q 14.5 44.390625 14.5 40.28125 
Q 14.5 37.15625 16.890625 35.375 
Q 19.28125 33.59375 26.515625 31.984375 
L 29.59375 31.296875 
Q 39.15625 29.25 43.1875 25.515625 
Q 47.21875 21.78125 47.21875 15.09375 
Q 47.21875 7.46875 41.1875 3.015625 
Q 35.15625 -1.421875 24.609375 -1.421875 
Q 20.21875 -1.421875 15.453125 -0.5625 
Q 10.6875 0.296875 5.421875 2 
L 5.421875 11.28125 
Q 10.40625 8.6875 15.234375 7.390625 
Q 20.0625 6.109375 24.8125 6.109375 
Q 31.15625 6.109375 34.5625 8.28125 
Q 37.984375 10.453125 37.984375 14.40625 
Q 37.984375 18.0625 35.515625 20.015625 
Q 33.0625 21.96875 24.703125 23.78125 
L 21.578125 24.515625 
Q 13.234375 26.265625 9.515625 29.90625 
Q 5.8125 33.546875 5.8125 39.890625 
Q 5.8125 47.609375 11.28125 51.796875 
Q 16.75 56 26.8125 56 
Q 31.78125 56 36.171875 55.265625 
Q 40.578125 54.546875 44.28125 53.078125 
z
" id="DejaVuSans-115"/>
      <path d="M 56.203125 29.59375 
L 56.203125 25.203125 
L 14.890625 25.203125 
Q 15.484375 15.921875 20.484375 11.0625 
Q 25.484375 6.203125 34.421875 6.203125 
Q 39.59375 6.203125 44.453125 7.46875 
Q 49.3125 8.734375 54.109375 11.28125 
L 54.109375 2.78125 
Q 49.265625 0.734375 44.1875 -0.34375 
Q 39.109375 -1.421875 33.890625 -1.421875 
Q 20.796875 -1.421875 13.15625 6.1875 
Q 5.515625 13.8125 5.515625 26.8125 
Q 5.515625 40.234375 12.765625 48.109375 
Q 20.015625 56 32.328125 56 
Q 43.359375 56 49.78125 48.890625 
Q 56.203125 41.796875 56.203125 29.59375 
z
M 47.21875 32.234375 
Q 47.125 39.59375 43.09375 43.984375 
Q 39.0625 48.390625 32.421875 48.390625 
Q 24.90625 48.390625 20.390625 44.140625 
Q 15.875 39.890625 15.1875 32.171875 
z
" id="DejaVuSans-101"/>
      <path d="M 45.40625 46.390625 
L 45.40625 75.984375 
L 54.390625 75.984375 
L 54.390625 0 
L 45.40625 0 
L 45.40625 8.203125 
Q 42.578125 3.328125 38.25 0.953125 
Q 33.9375 -1.421875 27.875 -1.421875 
Q 17.96875 -1.421875 11.734375 6.484375 
Q 5.515625 14.40625 5.515625 27.296875 
Q 5.515625 40.1875 11.734375 48.09375 
Q 17.96875 56 27.875 56 
Q 33.9375 56 38.25 53.625 
Q 42.578125 51.265625 45.40625 46.390625 
z
M 14.796875 27.296875 
Q 14.796875 17.390625 18.875 11.75 
Q 22.953125 6.109375 30.078125 6.109375 
Q 37.203125 6.109375 41.296875 11.75 
Q 45.40625 17.390625 45.40625 27.296875 
Q 45.40625 37.203125 41.296875 42.84375 
Q 37.203125 48.484375 30.078125 48.484375 
Q 22.953125 48.484375 18.875 42.84375 
Q 14.796875 37.203125 14.796875 27.296875 
z
" id="DejaVuSans-100"/>
      <path id="DejaVuSans-32"/>
      <path d="M -0.296875 72.90625 
L 61.375 72.90625 
L 61.375 64.59375 
L 35.5 64.59375 
L 35.5 0 
L 25.59375 0 
L 25.59375 64.59375 
L -0.296875 64.59375 
z
" id="DejaVuSans-84"/>
      <path d="M 9.421875 54.6875 
L 18.40625 54.6875 
L 18.40625 0 
L 9.421875 0 
z
M 9.421875 75.984375 
L 18.40625 75.984375 
L 18.40625 64.59375 
L 9.421875 64.59375 
z
" id="DejaVuSans-105"/>
      <path d="M 52 44.1875 
Q 55.375 50.25 60.0625 53.125 
Q 64.75 56 71.09375 56 
Q 79.640625 56 84.28125 50.015625 
Q 88.921875 44.046875 88.921875 33.015625 
L 88.921875 0 
L 79.890625 0 
L 79.890625 32.71875 
Q 79.890625 40.578125 77.09375 44.375 
Q 74.3125 48.1875 68.609375 48.1875 
Q 61.625 48.1875 57.5625 43.546875 
Q 53.515625 38.921875 53.515625 30.90625 
L 53.515625 0 
L 44.484375 0 
L 44.484375 32.71875 
Q 44.484375 40.625 41.703125 44.40625 
Q 38.921875 48.1875 33.109375 48.1875 
Q 26.21875 48.1875 22.15625 43.53125 
Q 18.109375 38.875 18.109375 30.90625 
L 18.109375 0 
L 9.078125 0 
L 9.078125 54.6875 
L 18.109375 54.6875 
L 18.109375 46.1875 
Q 21.1875 51.21875 25.484375 53.609375 
Q 29.78125 56 35.6875 56 
Q 41.65625 56 45.828125 52.96875 
Q 50 49.953125 52 44.1875 
z
" id="DejaVuSans-109"/>
      <path d="M 31 75.875 
Q 24.46875 64.65625 21.28125 53.65625 
Q 18.109375 42.671875 18.109375 31.390625 
Q 18.109375 20.125 21.3125 9.0625 
Q 24.515625 -2 31 -13.1875 
L 23.1875 -13.1875 
Q 15.875 -1.703125 12.234375 9.375 
Q 8.59375 20.453125 8.59375 31.390625 
Q 8.59375 42.28125 12.203125 53.3125 
Q 15.828125 64.359375 23.1875 75.875 
z
" id="DejaVuSans-40"/>
      <path d="M 8.015625 75.875 
L 15.828125 75.875 
Q 23.140625 64.359375 26.78125 53.3125 
Q 30.421875 42.28125 30.421875 31.390625 
Q 30.421875 20.453125 26.78125 9.375 
Q 23.140625 -1.703125 15.828125 -13.1875 
L 8.015625 -13.1875 
Q 14.5 -2 17.703125 9.0625 
Q 20.90625 20.125 20.90625 31.390625 
Q 20.90625 42.671875 17.703125 53.65625 
Q 14.5 64.65625 8.015625 75.875 
z
" id="DejaVuSans-41"/>
     </defs>
     <g transform="translate(177.420312 280.276563)scale(0.1 -0.1)">
      <use xlink:href="#DejaVuSans-69"/>
      <use x="63.183594" xlink:href="#DejaVuSans-108"/>
      <use x="90.966797" xlink:href="#DejaVuSans-97"/>
      <use x="152.246094" xlink:href="#DejaVuSans-112"/>
      <use x="215.722656" xlink:href="#DejaVuSans-115"/>
      <use x="267.822266" xlink:href="#DejaVuSans-101"/>
      <use x="329.345703" xlink:href="#DejaVuSans-100"/>
      <use x="392.822266" xlink:href="#DejaVuSans-32"/>
      <use x="424.609375" xlink:href="#DejaVuSans-84"/>
      <use x="485.646484" xlink:href="#DejaVuSans-105"/>
      <use x="513.429688" xlink:href="#DejaVuSans-109"/>
      <use x="610.841797" xlink:href="#DejaVuSans-101"/>
      <use x="672.365234" xlink:href="#DejaVuSans-32"/>
      <use x="704.152344" xlink:href="#DejaVuSans-40"/>
      <use x="743.166016" xlink:href="#DejaVuSans-109"/>
      <use x="840.578125" xlink:href="#DejaVuSans-41"/>
     </g>
    </g>
   </g>
   <g id="matplotlib.axis_2">
    <g id="ytick_1">
     <g id="line2d_19">
      <path clip-path="url(#p0be89f78e6)" d="M 54 246.822857 
L 388.8 246.822857 
" style="fill:none;stroke:#808080;stroke-dasharray:2.96,1.28;stroke-dashoffset:0;stroke-width:0.8;"/>
     </g>
     <g id="line2d_20">
      <defs>
       <path d="M 0 0 
L -3.5 0 
" id="mcbe44728df" style="stroke:#000000;stroke-width:0.8;"/>
      </defs>
      <g>
       <use style="stroke:#000000;stroke-width:0.8;" x="54" xlink:href="#mcbe44728df" y="246.822857"/>
      </g>
     </g>
     <g id="text_11">
      <!-- −20 -->
      <defs>
       <path d="M 10.59375 35.5 
L 73.1875 35.5 
L 73.1875 27.203125 
L 10.59375 27.203125 
z
" id="DejaVuSans-8722"/>
      </defs>
      <g transform="translate(25.895312 250.622076)scale(0.1 -0.1)">
       <use xlink:href="#DejaVuSans-8722"/>
       <use x="83.789062" xlink:href="#DejaVuSans-50"/>
       <use x="147.412109" xlink:href="#DejaVuSans-48"/>
      </g>
     </g>
    </g>
    <g id="ytick_2">
     <g id="line2d_21">
      <path clip-path="url(#p0be89f78e6)" d="M 54 220.937143 
L 388.8 220.937143 
" style="fill:none;stroke:#808080;stroke-dasharray:2.96,1.28;stroke-dashoffset:0;stroke-width:0.8;"/>
     </g>
     <g id="line2d_22">
      <g>
       <use style="stroke:#000000;stroke-width:0.8;" x="54" xlink:href="#mcbe44728df" y="220.937143"/>
      </g>
     </g>
     <g id="text_12">
      <!-- −15 -->
      <g transform="translate(25.895312 224.736362)scale(0.1 -0.1)">
       <use xlink:href="#DejaVuSans-8722"/>
       <use x="83.789062" xlink:href="#DejaVuSans-49"/>
       <use x="147.412109" xlink:href="#DejaVuSans-53"/>
      </g>
     </g>
    </g>
    <g id="ytick_3">
     <g id="line2d_23">
      <path clip-path="url(#p0be89f78e6)" d="M 54 195.051429 
L 388.8 195.051429 
" style="fill:none;stroke:#808080;stroke-dasharray:2.96,1.28;stroke-dashoffset:0;stroke-width:0.8;"/>
     </g>
     <g id="line2d_24">
      <g>
       <use style="stroke:#000000;stroke-width:0.8;" x="54" xlink:href="#mcbe44728df" y="195.051429"/>
      </g>
     </g>
     <g id="text_13">
      <!-- −10 -->
      <g transform="translate(25.895312 198.850647)scale(0.1 -0.1)">
       <use xlink:href="#DejaVuSans-8722"/>
       <use x="83.789062" xlink:href="#DejaVuSans-49"/>
       <use x="147.412109" xlink:href="#DejaVuSans-48"/>
      </g>
     </g>
    </g>
    <g id="ytick_4">
     <g id="line2d_25">
      <path clip-path="url(#p0be89f78e6)" d="M 54 169.165714 
L 388.8 169.165714 
" style="fill:none;stroke:#808080;stroke-dasharray:2.96,1.28;stroke-dashoffset:0;stroke-width:0.8;"/>
     </g>
     <g id="line2d_26">
      <g>
       <use style="stroke:#000000;stroke-width:0.8;" x="54" xlink:href="#mcbe44728df" y="169.165714"/>
      </g>
     </g>
     <g id="text_14">
      <!-- −5 -->
      <g transform="translate(32.257812 172.964933)scale(0.1 -0.1)">
       <use xlink:href="#DejaVuSans-8722"/>
       <use x="83.789062" xlink:href="#DejaVuSans-53"/>
      </g>
     </g>
    </g>
    <g id="ytick_5">
     <g id="line2d_27">
      <path clip-path="url(#p0be89f78e6)" d="M 54 143.28 
L 388.8 143.28 
" style="fill:none;stroke:#808080;stroke-dasharray:2.96,1.28;stroke-dashoffset:0;stroke-width:0.8;"/>
     </g>
     <g id="line2d_28">
      <g>
       <use style="stroke:#000000;stroke-width:0.8;" x="54" xlink:href="#mcbe44728df" y="143.28"/>
      </g>
     </g>
     <g id="text_15">
      <!-- 0 -->
      <g transform="translate(40.6375 147.079219)scale(0.1 -0.1)">
       <use xlink:href="#DejaVuSans-48"/>
      </g>
     </g>
    </g>
    <g id="ytick_6">
     <g id="line2d_29">
      <path clip-path="url(#p0be89f78e6)" d="M 54 117.394286 
L 388.8 117.394286 
" style="fill:none;stroke:#808080;stroke-dasharray:2.96,1.28;stroke-dashoffset:0;stroke-width:0.8;"/>
     </g>
     <g id="line2d_30">
      <g>
       <use style="stroke:#000000;stroke-width:0.8;" x="54" xlink:href="#mcbe44728df" y="117.394286"/>
      </g>
     </g>
     <g id="text_16">
      <!-- 5 -->
      <g transform="translate(40.6375 121.193504)scale(0.1 -0.1)">
       <use xlink:href="#DejaVuSans-53"/>
      </g>
     </g>
    </g>
    <g id="ytick_7">
     <g id="line2d_31">
      <path clip-path="url(#p0be89f78e6)" d="M 54 91.508571 
L 388.8 91.508571 
" style="fill:none;stroke:#808080;stroke-dasharray:2.96,1.28;stroke-dashoffset:0;stroke-width:0.8;"/>
     </g>
     <g id="line2d_32">
      <g>
       <use style="stroke:#000000;stroke-width:0.8;" x="54" xlink:href="#mcbe44728df" y="91.508571"/>
      </g>
     </g>
     <g id="text_17">
      <!-- 10 -->
      <g transform="translate(34.275 95.30779)scale(0.1 -0.1)">
       <use xlink:href="#DejaVuSans-49"/>
       <use x="63.623047" xlink:href="#DejaVuSans-48"/>
      </g>
     </g>
    </g>
    <g id="ytick_8">
     <g id="line2d_33">
      <path clip-path="url(#p0be89f78e6)" d="M 54 65.622857 
L 388.8 65.622857 
" style="fill:none;stroke:#808080;stroke-dasharray:2.96,1.28;stroke-dashoffset:0;stroke-width:0.8;"/>
     </g>
     <g id="line2d_34">
      <g>
       <use style="stroke:#000000;stroke-width:0.8;" x="54" xlink:href="#mcbe44728df" y="65.622857"/>
      </g>
     </g>
     <g id="text_18">
      <!-- 15 -->
      <g transform="translate(34.275 69.422076)scale(0.1 -0.1)">
       <use xlink:href="#DejaVuSans-49"/>
       <use x="63.623047" xlink:href="#DejaVuSans-53"/>
      </g>
     </g>
    </g>
    <g id="ytick_9">
     <g id="line2d_35">
      <path clip-path="url(#p0be89f78e6)" d="M 54 39.737143 
L 388.8 39.737143 
" style="fill:none;stroke:#808080;stroke-dasharray:2.96,1.28;stroke-dashoffset:0;stroke-width:0.8;"/>
     </g>
     <g id="line2d_36">
      <g>
       <use style="stroke:#000000;stroke-width:0.8;" x="54" xlink:href="#mcbe44728df" y="39.737143"/>
      </g>
     </g>
     <g id="text_19">
      <!-- 20 -->
      <g transform="translate(34.275 43.536362)scale(0.1 -0.1)">
       <use xlink:href="#DejaVuSans-50"/>
       <use x="63.623047" xlink:href="#DejaVuSans-48"/>
      </g>
     </g>
    </g>
    <g id="text_20">
     <!-- Score -->
     <defs>
      <path d="M 53.515625 70.515625 
L 53.515625 60.890625 
Q 47.90625 63.578125 42.921875 64.890625 
Q 37.9375 66.21875 33.296875 66.21875 
Q 25.25 66.21875 20.875 63.09375 
Q 16.5 59.96875 16.5 54.203125 
Q 16.5 49.359375 19.40625 46.890625 
Q 22.3125 44.4375 30.421875 42.921875 
L 36.375 41.703125 
Q 47.40625 39.59375 52.65625 34.296875 
Q 57.90625 29 57.90625 20.125 
Q 57.90625 9.515625 50.796875 4.046875 
Q 43.703125 -1.421875 29.984375 -1.421875 
Q 24.8125 -1.421875 18.96875 -0.25 
Q 13.140625 0.921875 6.890625 3.21875 
L 6.890625 13.375 
Q 12.890625 10.015625 18.65625 8.296875 
Q 24.421875 6.59375 29.984375 6.59375 
Q 38.421875 6.59375 43.015625 9.90625 
Q 47.609375 13.234375 47.609375 19.390625 
Q 47.609375 24.75 44.3125 27.78125 
Q 41.015625 30.8125 33.5 32.328125 
L 27.484375 33.5 
Q 16.453125 35.6875 11.515625 40.375 
Q 6.59375 45.0625 6.59375 53.421875 
Q 6.59375 63.09375 13.40625 68.65625 
Q 20.21875 74.21875 32.171875 74.21875 
Q 37.3125 74.21875 42.625 73.28125 
Q 47.953125 72.359375 53.515625 70.515625 
z
" id="DejaVuSans-83"/>
      <path d="M 48.78125 52.59375 
L 48.78125 44.1875 
Q 44.96875 46.296875 41.140625 47.34375 
Q 37.3125 48.390625 33.40625 48.390625 
Q 24.65625 48.390625 19.8125 42.84375 
Q 14.984375 37.3125 14.984375 27.296875 
Q 14.984375 17.28125 19.8125 11.734375 
Q 24.65625 6.203125 33.40625 6.203125 
Q 37.3125 6.203125 41.140625 7.25 
Q 44.96875 8.296875 48.78125 10.40625 
L 48.78125 2.09375 
Q 45.015625 0.34375 40.984375 -0.53125 
Q 36.96875 -1.421875 32.421875 -1.421875 
Q 20.0625 -1.421875 12.78125 6.34375 
Q 5.515625 14.109375 5.515625 27.296875 
Q 5.515625 40.671875 12.859375 48.328125 
Q 20.21875 56 33.015625 56 
Q 37.15625 56 41.109375 55.140625 
Q 45.0625 54.296875 48.78125 52.59375 
z
" id="DejaVuSans-99"/>
      <path d="M 30.609375 48.390625 
Q 23.390625 48.390625 19.1875 42.75 
Q 14.984375 37.109375 14.984375 27.296875 
Q 14.984375 17.484375 19.15625 11.84375 
Q 23.34375 6.203125 30.609375 6.203125 
Q 37.796875 6.203125 41.984375 11.859375 
Q 46.1875 17.53125 46.1875 27.296875 
Q 46.1875 37.015625 41.984375 42.703125 
Q 37.796875 48.390625 30.609375 48.390625 
z
M 30.609375 56 
Q 42.328125 56 49.015625 48.375 
Q 55.71875 40.765625 55.71875 27.296875 
Q 55.71875 13.875 49.015625 6.21875 
Q 42.328125 -1.421875 30.609375 -1.421875 
Q 18.84375 -1.421875 12.171875 6.21875 
Q 5.515625 13.875 5.515625 27.296875 
Q 5.515625 40.765625 12.171875 48.375 
Q 18.84375 56 30.609375 56 
z
" id="DejaVuSans-111"/>
      <path d="M 41.109375 46.296875 
Q 39.59375 47.171875 37.8125 47.578125 
Q 36.03125 48 33.890625 48 
Q 26.265625 48 22.1875 43.046875 
Q 18.109375 38.09375 18.109375 28.8125 
L 18.109375 0 
L 9.078125 0 
L 9.078125 54.6875 
L 18.109375 54.6875 
L 18.109375 46.1875 
Q 20.953125 51.171875 25.484375 53.578125 
Q 30.03125 56 36.53125 56 
Q 37.453125 56 38.578125 55.875 
Q 39.703125 55.765625 41.0625 55.515625 
z
" id="DejaVuSans-114"/>
     </defs>
     <g transform="translate(19.815625 157.393281)rotate(-90)scale(0.1 -0.1)">
      <use xlink:href="#DejaVuSans-83"/>
      <use x="63.476562" xlink:href="#DejaVuSans-99"/>
      <use x="118.457031" xlink:href="#DejaVuSans-111"/>
      <use x="179.638672" xlink:href="#DejaVuSans-114"/>
      <use x="220.720703" xlink:href="#DejaVuSans-101"/>
     </g>
    </g>
   </g>
   <g id="PolyCollection_1">
    <defs>
     <path d="M 59.385056 -39.106286 
L 59.385056 -36.517714 
L 59.882947 -36.7248 
L 60.354749 -36.621257 
L 60.854925 -36.621257 
L 61.330778 -36.828343 
L 61.815086 -36.621257 
L 62.299354 -36.7248 
L 62.76266 -36.828343 
L 63.225679 -36.621257 
L 63.697978 -36.517714 
L 64.171434 -36.517714 
L 64.642781 -36.207086 
L 65.294311 -36.931886 
L 65.820787 -37.035429 
L 66.321134 -37.138971 
L 66.788232 -37.138971 
L 67.257322 -37.138971 
L 67.750086 -36.310629 
L 68.292344 -36.310629 
L 68.753549 -36.103543 
L 69.235142 -36.207086 
L 69.728858 -36.310629 
L 70.58555 -36.310629 
L 71.117609 -36.310629 
L 71.750099 -36.310629 
L 72.217306 -36.207086 
L 72.723018 -36.414171 
L 73.219057 -36.621257 
L 73.681621 -36.517714 
L 74.163337 -36.517714 
L 74.639717 -36.517714 
L 75.124821 -36.207086 
L 75.645091 -36 
L 76.086557 -36 
L 76.669155 -36.103543 
L 77.127206 -36.103543 
L 77.60405 -36.207086 
L 78.082405 -36.310629 
L 78.843533 -37.863771 
L 79.327812 -37.760229 
L 79.917796 -37.760229 
L 80.39598 -37.656686 
L 80.887263 -37.656686 
L 81.373915 -36.103543 
L 81.844469 -36.103543 
L 82.314556 -36.207086 
L 82.783027 -36.310629 
L 83.266501 -36.414171 
L 83.744045 -36.414171 
L 84.201614 -36.414171 
L 84.917217 -36.414171 
L 85.369889 -36.310629 
L 85.830228 -36.103543 
L 86.314832 -36.207086 
L 86.77667 -36.207086 
L 87.37244 -36.207086 
L 87.841135 -36.207086 
L 88.544867 -36.414171 
L 89.010091 -36.310629 
L 89.489929 -36.310629 
L 89.975528 -36.310629 
L 90.569306 -36.517714 
L 91.047071 -36.517714 
L 91.508763 -36.517714 
L 91.964942 -36.517714 
L 92.430514 -36.414171 
L 92.89921 -36.207086 
L 93.370966 -36.103543 
L 93.839515 -36.207086 
L 94.314476 -36.310629 
L 94.777166 -36.310629 
L 95.248524 -36.310629 
L 95.720961 -36.207086 
L 96.186077 -36.103543 
L 96.66787 -36 
L 97.161262 -36.103543 
L 97.629445 -36.103543 
L 98.132786 -36.414171 
L 98.616114 -36.517714 
L 99.081625 -36.517714 
L 99.539966 -36.517714 
L 100.006171 -36.517714 
L 100.471685 -36.207086 
L 100.941606 -36.103543 
L 101.502897 -36.103543 
L 101.963878 -36 
L 102.442542 -36 
L 102.922199 -36.103543 
L 103.403002 -36.207086 
L 103.995268 -36.310629 
L 104.564768 -36.310629 
L 105.153263 -36.310629 
L 105.671476 -36.310629 
L 106.300019 -36.207086 
L 106.765202 -36.103543 
L 107.247233 -36.103543 
L 107.751093 -36.103543 
L 108.208115 -36 
L 108.71232 -36 
L 109.189184 -36.103543 
L 109.666815 -36.207086 
L 110.140501 -36.207086 
L 110.630854 -36.414171 
L 111.087427 -36.414171 
L 111.586487 -36.310629 
L 112.07104 -36.207086 
L 112.547402 -36.310629 
L 113.093843 -36.103543 
L 113.793435 -36.310629 
L 114.28621 -36.414171 
L 115.209705 -36.517714 
L 115.678087 -36.414171 
L 116.205136 -36.414171 
L 116.73122 -36.414171 
L 117.308695 -36.310629 
L 117.810262 -36.414171 
L 118.317739 -36.621257 
L 118.810436 -36.828343 
L 119.294787 -36.621257 
L 119.786213 -36.7248 
L 120.358553 -36.517714 
L 120.837487 -36.414171 
L 121.318599 -36.207086 
L 121.793844 -36.207086 
L 122.284974 -36.103543 
L 122.870951 -36.103543 
L 123.343735 -36 
L 123.813286 -36 
L 124.416414 -36 
L 124.911783 -36.103543 
L 125.375221 -36.310629 
L 125.875585 -36.310629 
L 126.478599 -36.621257 
L 126.979531 -36.7248 
L 127.473786 -36.621257 
L 127.960634 -36.517714 
L 128.435055 -36.517714 
L 128.953907 -36.207086 
L 129.628162 -36.103543 
L 130.313923 -36.207086 
L 130.789352 -36.103543 
L 131.276776 -36.207086 
L 131.747134 -36.207086 
L 132.222541 -36.207086 
L 132.753352 -36.103543 
L 133.26056 -36.103543 
L 133.828078 -36.310629 
L 134.460952 -36.310629 
L 134.938551 -36.310629 
L 135.42554 -36.310629 
L 135.911036 -36.310629 
L 136.546542 -36 
L 137.032381 -36.103543 
L 137.50887 -36.103543 
L 138.106821 -36.517714 
L 138.59475 -36.517714 
L 139.080331 -36.621257 
L 139.58236 -36.621257 
L 140.059236 -36.621257 
L 140.557832 -36.207086 
L 141.046588 -36.207086 
L 141.535344 -36.207086 
L 142.037461 -36.103543 
L 142.606072 -36.103543 
L 143.086937 -36.103543 
L 143.773582 -36.414171 
L 144.296524 -36.517714 
L 144.833116 -36.7248 
L 145.345 -36.931886 
L 145.850078 -37.138971 
L 146.356563 -37.035429 
L 146.967875 -37.967314 
L 147.601915 -37.863771 
L 148.09326 -37.967314 
L 148.690433 -38.1744 
L 149.20322 -37.967314 
L 149.872629 -37.553143 
L 150.394944 -37.863771 
L 150.977147 -38.1744 
L 151.473363 -37.863771 
L 151.998893 -37.967314 
L 152.557353 -37.656686 
L 153.097734 -37.346057 
L 153.685631 -36.7248 
L 154.252729 -36.7248 
L 154.986182 -37.346057 
L 155.628128 -37.553143 
L 156.202775 -37.760229 
L 156.857383 -38.485029 
L 157.465187 -38.8992 
L 158.203946 -38.485029 
L 158.803859 -37.967314 
L 159.366826 -37.863771 
L 160.104247 -38.070857 
L 160.60615 -37.760229 
L 161.23043 -37.760229 
L 161.827169 -38.381486 
L 162.420679 -38.277943 
L 163.297061 -39.520457 
L 164.083197 -40.141714 
L 164.799788 -43.558629 
L 165.454706 -43.662171 
L 166.25801 -43.558629 
L 166.912261 -42.212571 
L 167.521614 -41.591314 
L 168.068068 -38.070857 
L 168.923335 -37.553143 
L 169.442658 -37.760229 
L 170.22417 -36.931886 
L 170.825328 -36.828343 
L 171.341061 -36.7248 
L 171.990707 -36.517714 
L 172.565429 -36.517714 
L 173.056213 -36.621257 
L 173.644442 -36.621257 
L 174.326901 -36.517714 
L 175.006764 -36.828343 
L 175.642987 -37.035429 
L 176.350178 -38.070857 
L 176.950724 -38.795657 
L 177.828378 -41.0736 
L 178.33196 -40.762971 
L 178.93475 -40.3488 
L 179.591707 -40.038171 
L 180.291154 -40.3488 
L 181.013705 -38.8992 
L 181.594185 -38.8992 
L 182.12962 -39.313371 
L 182.720197 -38.588571 
L 183.219469 -37.4496 
L 183.716544 -36.621257 
L 184.485451 -38.277943 
L 185.018886 -38.277943 
L 185.653529 -39.313371 
L 186.691689 -41.487771 
L 187.40639 -41.487771 
L 187.993662 -39.934629 
L 188.557172 -39.520457 
L 189.238714 -38.485029 
L 189.820888 -36.414171 
L 190.423338 -36.414171 
L 191.457183 -36.310629 
L 191.923223 -36.310629 
L 192.398565 -36.207086 
L 192.899717 -36.103543 
L 193.376688 -36.103543 
L 193.883467 -36 
L 194.466569 -36.103543 
L 195.000944 -36.103543 
L 195.484902 -36.310629 
L 196.098798 -37.035429 
L 196.630036 -37.035429 
L 197.58484 -37.863771 
L 198.059326 -37.863771 
L 198.542561 -37.656686 
L 199.107672 -37.242514 
L 199.712549 -37.760229 
L 200.407048 -37.035429 
L 200.890107 -37.035429 
L 201.360876 -37.035429 
L 201.846324 -36.828343 
L 202.357159 -36.517714 
L 202.994929 -36.621257 
L 203.50211 -36.828343 
L 204.039665 -37.035429 
L 204.523076 -36.931886 
L 204.993133 -36.7248 
L 205.731205 -36.7248 
L 206.224148 -36.517714 
L 206.770916 -36.621257 
L 207.495207 -36.931886 
L 207.993714 -36.931886 
L 208.565359 -36.7248 
L 209.052572 -36.7248 
L 209.635732 -36.414171 
L 210.29203 -36.310629 
L 210.858404 -36.517714 
L 211.461186 -36.621257 
L 212.121392 -37.138971 
L 212.836569 -37.346057 
L 213.333759 -37.346057 
L 213.872802 -37.4496 
L 214.323366 -37.242514 
L 214.887113 -36.7248 
L 215.555469 -36.7248 
L 216.05845 -36.7248 
L 216.691824 -36.621257 
L 217.301869 -36.828343 
L 217.920788 -36.931886 
L 218.48849 -36.828343 
L 219.054034 -36.7248 
L 219.573855 -36.7248 
L 220.076537 -36.517714 
L 220.572291 -36.621257 
L 221.170136 -36.828343 
L 221.901613 -36.828343 
L 222.559745 -37.035429 
L 223.159255 -37.138971 
L 223.790313 -36.931886 
L 224.38659 -37.138971 
L 225.110371 -38.381486 
L 225.644753 -38.277943 
L 226.546841 -39.002743 
L 227.485426 -39.520457 
L 228.010813 -39.209829 
L 228.662027 -39.209829 
L 229.403548 -39.209829 
L 229.972561 -39.106286 
L 230.693128 -39.313371 
L 231.477495 -40.659429 
L 232.282754 -39.727543 
L 232.965937 -39.727543 
L 233.727494 -41.280686 
L 234.402983 -40.659429 
L 235.07782 -40.141714 
L 235.85654 -42.005486 
L 236.559489 -41.901943 
L 237.26142 -39.624 
L 237.889729 -39.727543 
L 238.860767 -41.384229 
L 239.520281 -39.209829 
L 240.435865 -39.209829 
L 241.089355 -39.727543 
L 241.829485 -39.934629 
L 242.518992 -37.863771 
L 243.354875 -39.106286 
L 243.957545 -39.313371 
L 244.458454 -39.002743 
L 245.595672 -39.934629 
L 246.374366 -41.0736 
L 247.135051 -39.934629 
L 247.767646 -40.245257 
L 248.460035 -41.0736 
L 249.152555 -40.866514 
L 249.773237 -39.313371 
L 250.388243 -39.520457 
L 250.884249 -39.002743 
L 251.566678 -38.692114 
L 252.120979 -38.070857 
L 252.876077 -39.520457 
L 253.461263 -39.934629 
L 254.066985 -40.141714 
L 254.686001 -40.141714 
L 255.418288 -40.555886 
L 256.269105 -41.591314 
L 257.089299 -42.316114 
L 257.822929 -42.937371 
L 258.675341 -43.248 
L 259.301912 -42.5232 
L 259.84209 -40.245257 
L 260.642559 -40.3488 
L 261.498604 -39.934629 
L 262.750183 -42.419657 
L 263.469907 -42.937371 
L 264.693996 -45.111771 
L 265.637056 -44.179886 
L 266.420633 -45.111771 
L 267.203761 -42.109029 
L 268.045063 -43.144457 
L 268.788398 -41.591314 
L 269.77753 -41.177143 
L 270.676686 -40.866514 
L 271.404799 -40.866514 
L 272.360962 -43.351543 
L 273.329759 -42.937371 
L 274.075313 -42.833829 
L 275.028365 -41.901943 
L 275.569589 -41.487771 
L 276.153523 -37.863771 
L 277.084905 -39.520457 
L 277.897607 -41.280686 
L 278.489069 -41.177143 
L 279.138647 -41.487771 
L 279.962022 -41.487771 
L 280.728706 -40.141714 
L 281.532862 -39.002743 
L 282.164475 -39.002743 
L 282.83584 -38.8992 
L 283.409941 -38.692114 
L 284.436002 -40.866514 
L 285.016149 -40.245257 
L 285.786739 -40.970057 
L 286.361546 -41.384229 
L 287.059686 -41.591314 
L 287.988619 -43.351543 
L 288.67045 -43.662171 
L 289.549764 -45.008229 
L 290.592362 -48.942857 
L 291.43687 -49.874743 
L 292.142851 -46.664914 
L 292.765747 -47.182629 
L 293.722473 -48.114514 
L 294.562959 -46.250743 
L 295.500465 -48.528686 
L 296.587546 -51.738514 
L 297.712874 -55.673143 
L 298.700401 -57.640457 
L 299.912698 -57.640457 
L 300.811574 -57.433371 
L 301.850229 -55.880229 
L 303.091242 -56.397943 
L 303.916581 -52.773943 
L 304.918635 -51.427886 
L 305.607766 -48.632229 
L 306.54474 -49.667657 
L 307.903168 -52.877486 
L 309.023511 -56.397943 
L 310.088484 -62.610514 
L 311.192216 -69.651429 
L 312.142932 -72.757714 
L 313.122023 -69.237257 
L 314.226515 -70.893943 
L 315.167058 -66.545143 
L 316.196434 -59.9184 
L 317.050062 -54.948343 
L 318.157147 -57.0192 
L 319.155261 -55.258971 
L 320.085973 -53.084571 
L 321.19285 -57.433371 
L 322.30434 -59.814857 
L 323.635231 -60.125486 
L 324.621319 -58.261714 
L 325.72927 -61.057371 
L 326.844339 -60.436114 
L 327.904688 -62.0928 
L 328.839479 -55.155429 
L 329.802571 -54.430629 
L 331.277974 -54.534171 
L 332.48137 -54.637714 
L 333.520049 -55.776686 
L 334.700714 -57.226286 
L 336.044702 -61.368 
L 337.18412 -61.160914 
L 338.332299 -61.678629 
L 339.562137 -56.501486 
L 340.501695 -58.882971 
L 341.587968 -60.436114 
L 342.602369 -61.368 
L 343.314291 -56.501486 
L 344.560011 -58.054629 
L 345.877368 -58.779429 
L 346.785877 -51.2208 
L 347.91274 -49.667657 
L 348.742135 -51.427886 
L 349.534516 -48.942857 
L 350.367157 -43.869257 
L 351.315949 -48.3216 
L 352.129104 -45.733029 
L 352.908851 -43.869257 
L 353.589508 -42.5232 
L 354.411086 -45.215314 
L 355.198529 -42.316114 
L 356.403167 -48.010971 
L 357.3737 -49.667657 
L 358.392855 -51.738514 
L 359.150805 -49.460571 
L 359.778227 -48.425143 
L 360.633303 -43.558629 
L 361.624491 -43.351543 
L 362.343156 -41.280686 
L 363.133047 -43.144457 
L 363.860299 -44.490514 
L 364.909431 -48.735771 
L 365.77012 -49.149943 
L 366.763725 -52.152686 
L 367.704393 -49.978286 
L 368.758662 -51.117257 
L 369.82784 -51.324343 
L 370.660315 -51.117257 
L 371.710975 -54.741257 
L 372.529787 -55.466057 
L 373.283944 -52.566857 
L 374.08782 -47.803886 
L 375.229167 -48.942857 
L 376.388243 -45.940114 
L 377.389333 -48.735771 
L 378.479389 -53.3952 
L 379.221598 -53.602286 
L 380.494672 -59.090057 
L 381.324097 -58.365257 
L 382.244082 -60.850286 
L 383.415952 -61.057371 
L 384.45973 -64.163657 
L 385.343733 -56.501486 
L 386.186959 -57.433371 
L 387.139762 -54.8448 
L 388.218135 -53.809371 
L 388.8 -50.496 
L 388.8 -109.515429 
L 388.8 -109.515429 
L 388.218135 -126.082286 
L 387.139762 -130.224 
L 386.186959 -129.188571 
L 385.343733 -120.905143 
L 384.45973 -132.294857 
L 383.415952 -121.940571 
L 382.244082 -118.834286 
L 381.324097 -118.834286 
L 380.494672 -126.082286 
L 379.221598 -122.976 
L 378.479389 -124.011429 
L 377.389333 -107.444571 
L 376.388243 -96.054857 
L 375.229167 -100.196571 
L 374.08782 -90.877714 
L 373.283944 -99.161143 
L 372.529787 -113.657143 
L 371.710975 -106.409143 
L 370.660315 -100.196571 
L 369.82784 -109.515429 
L 368.758662 -110.550857 
L 367.704393 -104.338286 
L 366.763725 -121.940571 
L 365.77012 -106.409143 
L 364.909431 -104.338286 
L 363.860299 -93.984 
L 363.133047 -84.665143 
L 362.343156 -68.098286 
L 361.624491 -75.346286 
L 360.633303 -75.346286 
L 359.778227 -88.806857 
L 359.150805 -97.090286 
L 358.392855 -105.373714 
L 357.3737 -98.125714 
L 356.403167 -82.594286 
L 355.198529 -61.885714 
L 354.411086 -70.169143 
L 353.589508 -60.850286 
L 352.908851 -71.204571 
L 352.129104 -85.700571 
L 351.315949 -103.302857 
L 350.367157 -87.771429 
L 349.534516 -107.444571 
L 348.742135 -116.763429 
L 347.91274 -102.267429 
L 346.785877 -100.196571 
L 345.877368 -127.117714 
L 344.560011 -126.082286 
L 343.314291 -124.011429 
L 342.602369 -141.613714 
L 341.587968 -144.72 
L 340.501695 -134.365714 
L 339.562137 -132.294857 
L 338.332299 -132.294857 
L 337.18412 -130.224 
L 336.044702 -127.117714 
L 334.700714 -120.905143 
L 333.520049 -105.373714 
L 332.48137 -105.373714 
L 331.277974 -108.48 
L 329.802571 -111.586286 
L 328.839479 -116.763429 
L 327.904688 -135.401143 
L 326.844339 -136.436571 
L 325.72927 -133.330286 
L 324.621319 -121.940571 
L 323.635231 -120.905143 
L 322.30434 -118.834286 
L 321.19285 -108.48 
L 320.085973 -98.125714 
L 319.155261 -107.444571 
L 318.157147 -112.621714 
L 317.050062 -113.657143 
L 316.196434 -145.755429 
L 315.167058 -158.180571 
L 314.226515 -159.216 
L 313.122023 -155.074286 
L 312.142932 -154.038857 
L 311.192216 -129.188571 
L 310.088484 -112.621714 
L 309.023511 -102.267429 
L 307.903168 -92.948571 
L 306.54474 -97.090286 
L 305.607766 -103.302857 
L 304.918635 -118.834286 
L 303.916581 -126.082286 
L 303.091242 -137.472 
L 301.850229 -135.401143 
L 300.811574 -135.401143 
L 299.912698 -133.330286 
L 298.700401 -135.401143 
L 297.712874 -135.401143 
L 296.587546 -118.834286 
L 295.500465 -108.48 
L 294.562959 -103.302857 
L 293.722473 -107.444571 
L 292.765747 -106.409143 
L 292.142851 -104.338286 
L 291.43687 -114.692571 
L 290.592362 -106.409143 
L 289.549764 -85.700571 
L 288.67045 -69.133714 
L 287.988619 -69.133714 
L 287.059686 -64.992 
L 286.361546 -64.992 
L 285.786739 -63.956571 
L 285.016149 -61.885714 
L 284.436002 -62.921143 
L 283.409941 -51.531429 
L 282.83584 -53.602286 
L 282.164475 -54.637714 
L 281.532862 -54.637714 
L 280.728706 -70.169143 
L 279.962022 -83.629714 
L 279.138647 -80.523429 
L 278.489069 -79.488 
L 277.897607 -79.488 
L 277.084905 -61.885714 
L 276.153523 -45.318857 
L 275.569589 -63.956571 
L 275.028365 -64.992 
L 274.075313 -69.133714 
L 273.329759 -70.169143 
L 272.360962 -70.169143 
L 271.404799 -60.850286 
L 270.676686 -61.885714 
L 269.77753 -71.204571 
L 268.788398 -73.275429 
L 268.045063 -88.806857 
L 267.203761 -80.523429 
L 266.420633 -93.984 
L 265.637056 -82.594286 
L 264.693996 -90.877714 
L 263.469907 -73.275429 
L 262.750183 -71.204571 
L 261.498604 -57.744 
L 260.642559 -60.850286 
L 259.84209 -56.708571 
L 259.301912 -72.24 
L 258.675341 -76.381714 
L 257.822929 -75.346286 
L 257.089299 -71.204571 
L 256.269105 -66.027429 
L 255.418288 -53.602286 
L 254.686001 -50.496 
L 254.066985 -52.566857 
L 253.461263 -51.531429 
L 252.876077 -50.496 
L 252.120979 -46.354286 
L 251.566678 -49.460571 
L 250.884249 -52.566857 
L 250.388243 -53.602286 
L 249.773237 -52.566857 
L 249.152555 -66.027429 
L 248.460035 -68.098286 
L 247.767646 -62.921143 
L 247.135051 -61.885714 
L 246.374366 -67.062857 
L 245.595672 -55.673143 
L 244.458454 -50.496 
L 243.957545 -50.496 
L 243.354875 -50.496 
L 242.518992 -45.318857 
L 241.829485 -62.921143 
L 241.089355 -62.921143 
L 240.435865 -60.850286 
L 239.520281 -60.850286 
L 238.860767 -71.204571 
L 237.889729 -58.779429 
L 237.26142 -57.744 
L 236.559489 -68.098286 
L 235.85654 -68.098286 
L 235.07782 -58.779429 
L 234.402983 -61.885714 
L 233.727494 -63.956571 
L 232.965937 -55.673143 
L 232.282754 -57.744 
L 231.477495 -63.956571 
L 230.693128 -53.602286 
L 229.972561 -53.602286 
L 229.403548 -54.637714 
L 228.662027 -52.566857 
L 228.010813 -55.673143 
L 227.485426 -56.708571 
L 226.546841 -53.602286 
L 225.644753 -51.531429 
L 225.110371 -54.637714 
L 224.38659 -44.283429 
L 223.790313 -44.283429 
L 223.159255 -45.318857 
L 222.559745 -44.283429 
L 221.901613 -41.177143 
L 221.170136 -41.177143 
L 220.572291 -40.141714 
L 220.076537 -40.141714 
L 219.573855 -41.177143 
L 219.054034 -41.177143 
L 218.48849 -41.177143 
L 217.920788 -41.177143 
L 217.301869 -40.141714 
L 216.691824 -39.106286 
L 216.05845 -40.141714 
L 215.555469 -40.141714 
L 214.887113 -40.141714 
L 214.323366 -43.248 
L 213.872802 -44.283429 
L 213.333759 -43.248 
L 212.836569 -43.248 
L 212.121392 -42.212571 
L 211.461186 -39.106286 
L 210.858404 -39.106286 
L 210.29203 -38.070857 
L 209.635732 -38.070857 
L 209.052572 -41.177143 
L 208.565359 -41.177143 
L 207.993714 -41.177143 
L 207.495207 -41.177143 
L 206.770916 -40.141714 
L 206.224148 -39.106286 
L 205.731205 -40.141714 
L 204.993133 -41.177143 
L 204.523076 -43.248 
L 204.039665 -44.283429 
L 203.50211 -42.212571 
L 202.994929 -41.177143 
L 202.357159 -40.141714 
L 201.846324 -41.177143 
L 201.360876 -43.248 
L 200.890107 -43.248 
L 200.407048 -43.248 
L 199.712549 -51.531429 
L 199.107672 -48.425143 
L 198.542561 -52.566857 
L 198.059326 -54.637714 
L 197.58484 -54.637714 
L 196.630036 -46.354286 
L 196.098798 -46.354286 
L 195.484902 -39.106286 
L 195.000944 -37.035429 
L 194.466569 -37.035429 
L 193.883467 -36 
L 193.376688 -37.035429 
L 192.899717 -37.035429 
L 192.398565 -38.070857 
L 191.923223 -39.106286 
L 191.457183 -39.106286 
L 190.423338 -39.106286 
L 189.820888 -39.106286 
L 189.238714 -57.744 
L 188.557172 -67.062857 
L 187.993662 -69.133714 
L 187.40639 -85.700571 
L 186.691689 -85.700571 
L 185.653529 -66.027429 
L 185.018886 -56.708571 
L 184.485451 -56.708571 
L 183.716544 -40.141714 
L 183.219469 -43.248 
L 182.720197 -54.637714 
L 182.12962 -56.708571 
L 181.594185 -54.637714 
L 181.013705 -54.637714 
L 180.291154 -66.027429 
L 179.591707 -57.744 
L 178.93475 -66.027429 
L 178.33196 -68.098286 
L 177.828378 -69.133714 
L 176.950724 -54.637714 
L 176.350178 -52.566857 
L 175.642987 -42.212571 
L 175.006764 -41.177143 
L 174.326901 -40.141714 
L 173.644442 -41.177143 
L 173.056213 -41.177143 
L 172.565429 -40.141714 
L 171.990707 -41.177143 
L 171.341061 -42.212571 
L 170.825328 -42.212571 
L 170.22417 -42.212571 
L 169.442658 -47.389714 
L 168.923335 -45.318857 
L 168.068068 -49.460571 
L 167.521614 -84.665143 
L 166.912261 -86.736 
L 166.25801 -101.232 
L 165.454706 -102.267429 
L 164.799788 -98.125714 
L 164.083197 -63.956571 
L 163.297061 -61.885714 
L 162.420679 -49.460571 
L 161.827169 -49.460571 
L 161.23043 -48.425143 
L 160.60615 -47.389714 
L 160.104247 -48.425143 
L 159.366826 -44.283429 
L 158.803859 -46.354286 
L 158.203946 -47.389714 
L 157.465187 -49.460571 
L 156.857383 -48.425143 
L 156.202775 -45.318857 
L 155.628128 -43.248 
L 154.986182 -42.212571 
L 154.252729 -40.141714 
L 153.685631 -40.141714 
L 153.097734 -42.212571 
L 152.557353 -42.212571 
L 151.998893 -46.354286 
L 151.473363 -45.318857 
L 150.977147 -46.354286 
L 150.394944 -45.318857 
L 149.872629 -45.318857 
L 149.20322 -46.354286 
L 148.690433 -47.389714 
L 148.09326 -46.354286 
L 147.601915 -46.354286 
L 146.967875 -47.389714 
L 146.356563 -42.212571 
L 145.850078 -43.248 
L 145.345 -42.212571 
L 144.833116 -41.177143 
L 144.296524 -39.106286 
L 143.773582 -39.106286 
L 143.086937 -37.035429 
L 142.606072 -37.035429 
L 142.037461 -37.035429 
L 141.535344 -38.070857 
L 141.046588 -38.070857 
L 140.557832 -38.070857 
L 140.059236 -39.106286 
L 139.58236 -39.106286 
L 139.080331 -39.106286 
L 138.59475 -38.070857 
L 138.106821 -38.070857 
L 137.50887 -37.035429 
L 137.032381 -37.035429 
L 136.546542 -36 
L 135.911036 -38.070857 
L 135.42554 -38.070857 
L 134.938551 -38.070857 
L 134.460952 -38.070857 
L 133.828078 -38.070857 
L 133.26056 -37.035429 
L 132.753352 -37.035429 
L 132.222541 -38.070857 
L 131.747134 -38.070857 
L 131.276776 -38.070857 
L 130.789352 -37.035429 
L 130.313923 -38.070857 
L 129.628162 -37.035429 
L 128.953907 -38.070857 
L 128.435055 -40.141714 
L 127.960634 -40.141714 
L 127.473786 -40.141714 
L 126.979531 -41.177143 
L 126.478599 -40.141714 
L 125.875585 -38.070857 
L 125.375221 -38.070857 
L 124.911783 -37.035429 
L 124.416414 -36 
L 123.813286 -36 
L 123.343735 -36 
L 122.870951 -37.035429 
L 122.284974 -37.035429 
L 121.793844 -38.070857 
L 121.318599 -38.070857 
L 120.837487 -40.141714 
L 120.358553 -40.141714 
L 119.786213 -42.212571 
L 119.294787 -41.177143 
L 118.810436 -42.212571 
L 118.317739 -40.141714 
L 117.810262 -39.106286 
L 117.308695 -38.070857 
L 116.73122 -39.106286 
L 116.205136 -39.106286 
L 115.678087 -39.106286 
L 115.209705 -40.141714 
L 114.28621 -39.106286 
L 113.793435 -38.070857 
L 113.093843 -37.035429 
L 112.547402 -39.106286 
L 112.07104 -38.070857 
L 111.586487 -39.106286 
L 111.087427 -40.141714 
L 110.630854 -40.141714 
L 110.140501 -38.070857 
L 109.666815 -38.070857 
L 109.189184 -37.035429 
L 108.71232 -36 
L 108.208115 -36 
L 107.751093 -37.035429 
L 107.247233 -37.035429 
L 106.765202 -37.035429 
L 106.300019 -38.070857 
L 105.671476 -39.106286 
L 105.153263 -39.106286 
L 104.564768 -39.106286 
L 103.995268 -39.106286 
L 103.403002 -38.070857 
L 102.922199 -37.035429 
L 102.442542 -36 
L 101.963878 -36 
L 101.502897 -37.035429 
L 100.941606 -37.035429 
L 100.471685 -38.070857 
L 100.006171 -40.141714 
L 99.539966 -40.141714 
L 99.081625 -40.141714 
L 98.616114 -40.141714 
L 98.132786 -39.106286 
L 97.629445 -37.035429 
L 97.161262 -37.035429 
L 96.66787 -36 
L 96.186077 -37.035429 
L 95.720961 -38.070857 
L 95.248524 -39.106286 
L 94.777166 -39.106286 
L 94.314476 -39.106286 
L 93.839515 -38.070857 
L 93.370966 -37.035429 
L 92.89921 -38.070857 
L 92.430514 -40.141714 
L 91.964942 -41.177143 
L 91.508763 -41.177143 
L 91.047071 -41.177143 
L 90.569306 -40.141714 
L 89.975528 -38.070857 
L 89.489929 -38.070857 
L 89.010091 -38.070857 
L 88.544867 -39.106286 
L 87.841135 -38.070857 
L 87.37244 -38.070857 
L 86.77667 -38.070857 
L 86.314832 -38.070857 
L 85.830228 -37.035429 
L 85.369889 -38.070857 
L 84.917217 -39.106286 
L 84.201614 -39.106286 
L 83.744045 -39.106286 
L 83.266501 -39.106286 
L 82.783027 -39.106286 
L 82.314556 -38.070857 
L 81.844469 -37.035429 
L 81.373915 -37.035429 
L 80.887263 -51.531429 
L 80.39598 -51.531429 
L 79.917796 -52.566857 
L 79.327812 -52.566857 
L 78.843533 -53.602286 
L 78.082405 -39.106286 
L 77.60405 -38.070857 
L 77.127206 -37.035429 
L 76.669155 -37.035429 
L 76.086557 -36 
L 75.645091 -36 
L 75.124821 -37.035429 
L 74.639717 -39.106286 
L 74.163337 -39.106286 
L 73.681621 -39.106286 
L 73.219057 -40.141714 
L 72.723018 -39.106286 
L 72.217306 -38.070857 
L 71.750099 -39.106286 
L 71.117609 -39.106286 
L 70.58555 -39.106286 
L 69.728858 -39.106286 
L 69.235142 -38.070857 
L 68.753549 -37.035429 
L 68.292344 -39.106286 
L 67.750086 -39.106286 
L 67.257322 -47.389714 
L 66.788232 -47.389714 
L 66.321134 -47.389714 
L 65.820787 -46.354286 
L 65.294311 -45.318857 
L 64.642781 -38.070857 
L 64.171434 -39.106286 
L 63.697978 -39.106286 
L 63.225679 -39.106286 
L 62.76266 -41.177143 
L 62.299354 -40.141714 
L 61.815086 -40.141714 
L 61.330778 -41.177143 
L 60.854925 -40.141714 
L 60.354749 -39.106286 
L 59.882947 -40.141714 
L 59.385056 -39.106286 
z
" id="mdbc3412150" style="stroke:#8e01c8;"/>
    </defs>
    <g clip-path="url(#p0be89f78e6)">
     <use style="fill:#8e01c8;stroke:#8e01c8;" x="0" xlink:href="#mdbc3412150" y="288"/>
    </g>
   </g>
   <g id="PolyCollection_2">
    <defs>
     <path d="M 59.385056 -36.517714 
L 59.385056 -36 
L 59.882947 -36 
L 60.354749 -36 
L 60.854925 -36 
L 61.330778 -36 
L 61.815086 -36 
L 62.299354 -36 
L 62.76266 -36 
L 63.225679 -36 
L 63.697978 -36 
L 64.171434 -36 
L 64.642781 -36 
L 65.294311 -36 
L 65.820787 -36 
L 66.321134 -36 
L 66.788232 -36 
L 67.257322 -36 
L 67.750086 -36 
L 68.292344 -36 
L 68.753549 -36 
L 69.235142 -36 
L 69.728858 -36 
L 70.58555 -36 
L 71.117609 -36 
L 71.750099 -36 
L 72.217306 -36 
L 72.723018 -36 
L 73.219057 -36 
L 73.681621 -36 
L 74.163337 -36 
L 74.639717 -36 
L 75.124821 -36 
L 75.645091 -36 
L 76.086557 -36 
L 76.669155 -36 
L 77.127206 -36 
L 77.60405 -36 
L 78.082405 -36 
L 78.843533 -36 
L 79.327812 -36 
L 79.917796 -36 
L 80.39598 -36 
L 80.887263 -36 
L 81.373915 -36 
L 81.844469 -36 
L 82.314556 -36 
L 82.783027 -36 
L 83.266501 -36 
L 83.744045 -36 
L 84.201614 -36 
L 84.917217 -36 
L 85.369889 -36 
L 85.830228 -36 
L 86.314832 -36 
L 86.77667 -36 
L 87.37244 -36 
L 87.841135 -36 
L 88.544867 -36 
L 89.010091 -36 
L 89.489929 -36 
L 89.975528 -36 
L 90.569306 -36 
L 91.047071 -36 
L 91.508763 -36 
L 91.964942 -36 
L 92.430514 -36 
L 92.89921 -36 
L 93.370966 -36 
L 93.839515 -36 
L 94.314476 -36 
L 94.777166 -36 
L 95.248524 -36 
L 95.720961 -36 
L 96.186077 -36 
L 96.66787 -36 
L 97.161262 -36 
L 97.629445 -36 
L 98.132786 -36 
L 98.616114 -36 
L 99.081625 -36 
L 99.539966 -36 
L 100.006171 -36 
L 100.471685 -36 
L 100.941606 -36 
L 101.502897 -36 
L 101.963878 -36 
L 102.442542 -36 
L 102.922199 -36 
L 103.403002 -36 
L 103.995268 -36 
L 104.564768 -36 
L 105.153263 -36 
L 105.671476 -36 
L 106.300019 -36 
L 106.765202 -36 
L 107.247233 -36 
L 107.751093 -36 
L 108.208115 -36 
L 108.71232 -36 
L 109.189184 -36 
L 109.666815 -36 
L 110.140501 -36 
L 110.630854 -36 
L 111.087427 -36 
L 111.586487 -36 
L 112.07104 -36 
L 112.547402 -36 
L 113.093843 -36 
L 113.793435 -36 
L 114.28621 -36 
L 115.209705 -36 
L 115.678087 -36 
L 116.205136 -36 
L 116.73122 -36 
L 117.308695 -36 
L 117.810262 -36 
L 118.317739 -36 
L 118.810436 -36 
L 119.294787 -36 
L 119.786213 -36 
L 120.358553 -36 
L 120.837487 -36 
L 121.318599 -36 
L 121.793844 -36 
L 122.284974 -36 
L 122.870951 -36 
L 123.343735 -36 
L 123.813286 -36 
L 124.416414 -36 
L 124.911783 -36 
L 125.375221 -36 
L 125.875585 -36 
L 126.478599 -36 
L 126.979531 -36 
L 127.473786 -36 
L 127.960634 -36 
L 128.435055 -36 
L 128.953907 -36 
L 129.628162 -36 
L 130.313923 -36 
L 130.789352 -36 
L 131.276776 -36 
L 131.747134 -36 
L 132.222541 -36 
L 132.753352 -36 
L 133.26056 -36 
L 133.828078 -36 
L 134.460952 -36 
L 134.938551 -36 
L 135.42554 -36 
L 135.911036 -36 
L 136.546542 -36 
L 137.032381 -36 
L 137.50887 -36 
L 138.106821 -36 
L 138.59475 -36 
L 139.080331 -36 
L 139.58236 -36 
L 140.059236 -36 
L 140.557832 -36 
L 141.046588 -36 
L 141.535344 -36 
L 142.037461 -36 
L 142.606072 -36 
L 143.086937 -36 
L 143.773582 -36 
L 144.296524 -36 
L 144.833116 -36 
L 145.345 -36 
L 145.850078 -36 
L 146.356563 -36 
L 146.967875 -36 
L 147.601915 -36 
L 148.09326 -36 
L 148.690433 -36 
L 149.20322 -36 
L 149.872629 -36 
L 150.394944 -36 
L 150.977147 -36 
L 151.473363 -36 
L 151.998893 -36 
L 152.557353 -36 
L 153.097734 -36 
L 153.685631 -36 
L 154.252729 -36 
L 154.986182 -36 
L 155.628128 -36 
L 156.202775 -36 
L 156.857383 -36 
L 157.465187 -36 
L 158.203946 -36 
L 158.803859 -36 
L 159.366826 -36 
L 160.104247 -36 
L 160.60615 -36 
L 161.23043 -36 
L 161.827169 -36 
L 162.420679 -36 
L 163.297061 -36 
L 164.083197 -36 
L 164.799788 -36 
L 165.454706 -36 
L 166.25801 -36 
L 166.912261 -36 
L 167.521614 -36 
L 168.068068 -36 
L 168.923335 -36 
L 169.442658 -36 
L 170.22417 -36 
L 170.825328 -36 
L 171.341061 -36 
L 171.990707 -36 
L 172.565429 -36 
L 173.056213 -36 
L 173.644442 -36 
L 174.326901 -36 
L 175.006764 -36 
L 175.642987 -36 
L 176.350178 -36 
L 176.950724 -36 
L 177.828378 -36 
L 178.33196 -36 
L 178.93475 -36 
L 179.591707 -36 
L 180.291154 -36 
L 181.013705 -36 
L 181.594185 -36 
L 182.12962 -36 
L 182.720197 -36 
L 183.219469 -36 
L 183.716544 -36 
L 184.485451 -36 
L 185.018886 -36 
L 185.653529 -36 
L 186.691689 -36 
L 187.40639 -36 
L 187.993662 -36 
L 188.557172 -36 
L 189.238714 -36 
L 189.820888 -36 
L 190.423338 -36 
L 191.457183 -36 
L 191.923223 -36 
L 192.398565 -36 
L 192.899717 -36 
L 193.376688 -36 
L 193.883467 -36 
L 194.466569 -36 
L 195.000944 -36 
L 195.484902 -36 
L 196.098798 -36 
L 196.630036 -36 
L 197.58484 -36 
L 198.059326 -36 
L 198.542561 -36 
L 199.107672 -36 
L 199.712549 -36 
L 200.407048 -36 
L 200.890107 -36 
L 201.360876 -36 
L 201.846324 -36 
L 202.357159 -36 
L 202.994929 -36 
L 203.50211 -36 
L 204.039665 -36 
L 204.523076 -36 
L 204.993133 -36 
L 205.731205 -36 
L 206.224148 -36 
L 206.770916 -36 
L 207.495207 -36 
L 207.993714 -36 
L 208.565359 -36 
L 209.052572 -36 
L 209.635732 -36 
L 210.29203 -36 
L 210.858404 -36 
L 211.461186 -36 
L 212.121392 -36 
L 212.836569 -36 
L 213.333759 -36 
L 213.872802 -36 
L 214.323366 -36 
L 214.887113 -36 
L 215.555469 -36 
L 216.05845 -36 
L 216.691824 -36 
L 217.301869 -36 
L 217.920788 -36 
L 218.48849 -36 
L 219.054034 -36 
L 219.573855 -36 
L 220.076537 -36 
L 220.572291 -36 
L 221.170136 -36 
L 221.901613 -36 
L 222.559745 -36 
L 223.159255 -36 
L 223.790313 -36 
L 224.38659 -36 
L 225.110371 -36 
L 225.644753 -36 
L 226.546841 -36 
L 227.485426 -36 
L 228.010813 -36 
L 228.662027 -36 
L 229.403548 -36 
L 229.972561 -36 
L 230.693128 -36 
L 231.477495 -36 
L 232.282754 -36 
L 232.965937 -36 
L 233.727494 -36 
L 234.402983 -36 
L 235.07782 -36 
L 235.85654 -36 
L 236.559489 -36 
L 237.26142 -36 
L 237.889729 -36 
L 238.860767 -36 
L 239.520281 -36 
L 240.435865 -36 
L 241.089355 -36 
L 241.829485 -36 
L 242.518992 -36 
L 243.354875 -36 
L 243.957545 -36 
L 244.458454 -36 
L 245.595672 -36 
L 246.374366 -36 
L 247.135051 -36 
L 247.767646 -36 
L 248.460035 -36 
L 249.152555 -36 
L 249.773237 -36 
L 250.388243 -36 
L 250.884249 -36 
L 251.566678 -36 
L 252.120979 -36 
L 252.876077 -36 
L 253.461263 -36 
L 254.066985 -36 
L 254.686001 -36 
L 255.418288 -36 
L 256.269105 -36 
L 257.089299 -36 
L 257.822929 -36 
L 258.675341 -36 
L 259.301912 -36 
L 259.84209 -36 
L 260.642559 -36 
L 261.498604 -36 
L 262.750183 -36 
L 263.469907 -36 
L 264.693996 -36 
L 265.637056 -36 
L 266.420633 -36 
L 267.203761 -36 
L 268.045063 -36 
L 268.788398 -36 
L 269.77753 -36 
L 270.676686 -36 
L 271.404799 -36 
L 272.360962 -36 
L 273.329759 -36 
L 274.075313 -36 
L 275.028365 -36 
L 275.569589 -36 
L 276.153523 -36 
L 277.084905 -36 
L 277.897607 -36 
L 278.489069 -36 
L 279.138647 -36 
L 279.962022 -36 
L 280.728706 -36 
L 281.532862 -36 
L 282.164475 -36 
L 282.83584 -36 
L 283.409941 -36 
L 284.436002 -36 
L 285.016149 -36 
L 285.786739 -36 
L 286.361546 -36 
L 287.059686 -36 
L 287.988619 -36 
L 288.67045 -36 
L 289.549764 -36 
L 290.592362 -36 
L 291.43687 -36 
L 292.142851 -36 
L 292.765747 -36 
L 293.722473 -36 
L 294.562959 -36 
L 295.500465 -36 
L 296.587546 -36 
L 297.712874 -36 
L 298.700401 -36 
L 299.912698 -36 
L 300.811574 -36 
L 301.850229 -36 
L 303.091242 -36 
L 303.916581 -36 
L 304.918635 -36 
L 305.607766 -36 
L 306.54474 -36 
L 307.903168 -36 
L 309.023511 -36 
L 310.088484 -36 
L 311.192216 -36 
L 312.142932 -36 
L 313.122023 -36 
L 314.226515 -36 
L 315.167058 -36 
L 316.196434 -36 
L 317.050062 -36 
L 318.157147 -36 
L 319.155261 -36 
L 320.085973 -36 
L 321.19285 -36 
L 322.30434 -36 
L 323.635231 -36 
L 324.621319 -36 
L 325.72927 -36 
L 326.844339 -36 
L 327.904688 -36 
L 328.839479 -36 
L 329.802571 -36 
L 331.277974 -36 
L 332.48137 -36 
L 333.520049 -36 
L 334.700714 -36 
L 336.044702 -36 
L 337.18412 -36 
L 338.332299 -36 
L 339.562137 -36 
L 340.501695 -36 
L 341.587968 -36 
L 342.602369 -36 
L 343.314291 -36 
L 344.560011 -36 
L 345.877368 -36 
L 346.785877 -36 
L 347.91274 -36 
L 348.742135 -36 
L 349.534516 -36 
L 350.367157 -36 
L 351.315949 -36 
L 352.129104 -36 
L 352.908851 -36 
L 353.589508 -36 
L 354.411086 -36 
L 355.198529 -36 
L 356.403167 -36 
L 357.3737 -36 
L 358.392855 -36 
L 359.150805 -36 
L 359.778227 -36 
L 360.633303 -36 
L 361.624491 -36 
L 362.343156 -36 
L 363.133047 -36 
L 363.860299 -36 
L 364.909431 -36 
L 365.77012 -36 
L 366.763725 -36 
L 367.704393 -36 
L 368.758662 -36 
L 369.82784 -36 
L 370.660315 -36 
L 371.710975 -36 
L 372.529787 -36 
L 373.283944 -36 
L 374.08782 -36 
L 375.229167 -36 
L 376.388243 -36 
L 377.389333 -36 
L 378.479389 -36 
L 379.221598 -36 
L 380.494672 -36 
L 381.324097 -36 
L 382.244082 -36 
L 383.415952 -36 
L 384.45973 -36 
L 385.343733 -36 
L 386.186959 -36 
L 387.139762 -36 
L 388.218135 -36 
L 388.8 -36 
L 388.8 -50.496 
L 388.8 -50.496 
L 388.218135 -53.809371 
L 387.139762 -54.8448 
L 386.186959 -57.433371 
L 385.343733 -56.501486 
L 384.45973 -64.163657 
L 383.415952 -61.057371 
L 382.244082 -60.850286 
L 381.324097 -58.365257 
L 380.494672 -59.090057 
L 379.221598 -53.602286 
L 378.479389 -53.3952 
L 377.389333 -48.735771 
L 376.388243 -45.940114 
L 375.229167 -48.942857 
L 374.08782 -47.803886 
L 373.283944 -52.566857 
L 372.529787 -55.466057 
L 371.710975 -54.741257 
L 370.660315 -51.117257 
L 369.82784 -51.324343 
L 368.758662 -51.117257 
L 367.704393 -49.978286 
L 366.763725 -52.152686 
L 365.77012 -49.149943 
L 364.909431 -48.735771 
L 363.860299 -44.490514 
L 363.133047 -43.144457 
L 362.343156 -41.280686 
L 361.624491 -43.351543 
L 360.633303 -43.558629 
L 359.778227 -48.425143 
L 359.150805 -49.460571 
L 358.392855 -51.738514 
L 357.3737 -49.667657 
L 356.403167 -48.010971 
L 355.198529 -42.316114 
L 354.411086 -45.215314 
L 353.589508 -42.5232 
L 352.908851 -43.869257 
L 352.129104 -45.733029 
L 351.315949 -48.3216 
L 350.367157 -43.869257 
L 349.534516 -48.942857 
L 348.742135 -51.427886 
L 347.91274 -49.667657 
L 346.785877 -51.2208 
L 345.877368 -58.779429 
L 344.560011 -58.054629 
L 343.314291 -56.501486 
L 342.602369 -61.368 
L 341.587968 -60.436114 
L 340.501695 -58.882971 
L 339.562137 -56.501486 
L 338.332299 -61.678629 
L 337.18412 -61.160914 
L 336.044702 -61.368 
L 334.700714 -57.226286 
L 333.520049 -55.776686 
L 332.48137 -54.637714 
L 331.277974 -54.534171 
L 329.802571 -54.430629 
L 328.839479 -55.155429 
L 327.904688 -62.0928 
L 326.844339 -60.436114 
L 325.72927 -61.057371 
L 324.621319 -58.261714 
L 323.635231 -60.125486 
L 322.30434 -59.814857 
L 321.19285 -57.433371 
L 320.085973 -53.084571 
L 319.155261 -55.258971 
L 318.157147 -57.0192 
L 317.050062 -54.948343 
L 316.196434 -59.9184 
L 315.167058 -66.545143 
L 314.226515 -70.893943 
L 313.122023 -69.237257 
L 312.142932 -72.757714 
L 311.192216 -69.651429 
L 310.088484 -62.610514 
L 309.023511 -56.397943 
L 307.903168 -52.877486 
L 306.54474 -49.667657 
L 305.607766 -48.632229 
L 304.918635 -51.427886 
L 303.916581 -52.773943 
L 303.091242 -56.397943 
L 301.850229 -55.880229 
L 300.811574 -57.433371 
L 299.912698 -57.640457 
L 298.700401 -57.640457 
L 297.712874 -55.673143 
L 296.587546 -51.738514 
L 295.500465 -48.528686 
L 294.562959 -46.250743 
L 293.722473 -48.114514 
L 292.765747 -47.182629 
L 292.142851 -46.664914 
L 291.43687 -49.874743 
L 290.592362 -48.942857 
L 289.549764 -45.008229 
L 288.67045 -43.662171 
L 287.988619 -43.351543 
L 287.059686 -41.591314 
L 286.361546 -41.384229 
L 285.786739 -40.970057 
L 285.016149 -40.245257 
L 284.436002 -40.866514 
L 283.409941 -38.692114 
L 282.83584 -38.8992 
L 282.164475 -39.002743 
L 281.532862 -39.002743 
L 280.728706 -40.141714 
L 279.962022 -41.487771 
L 279.138647 -41.487771 
L 278.489069 -41.177143 
L 277.897607 -41.280686 
L 277.084905 -39.520457 
L 276.153523 -37.863771 
L 275.569589 -41.487771 
L 275.028365 -41.901943 
L 274.075313 -42.833829 
L 273.329759 -42.937371 
L 272.360962 -43.351543 
L 271.404799 -40.866514 
L 270.676686 -40.866514 
L 269.77753 -41.177143 
L 268.788398 -41.591314 
L 268.045063 -43.144457 
L 267.203761 -42.109029 
L 266.420633 -45.111771 
L 265.637056 -44.179886 
L 264.693996 -45.111771 
L 263.469907 -42.937371 
L 262.750183 -42.419657 
L 261.498604 -39.934629 
L 260.642559 -40.3488 
L 259.84209 -40.245257 
L 259.301912 -42.5232 
L 258.675341 -43.248 
L 257.822929 -42.937371 
L 257.089299 -42.316114 
L 256.269105 -41.591314 
L 255.418288 -40.555886 
L 254.686001 -40.141714 
L 254.066985 -40.141714 
L 253.461263 -39.934629 
L 252.876077 -39.520457 
L 252.120979 -38.070857 
L 251.566678 -38.692114 
L 250.884249 -39.002743 
L 250.388243 -39.520457 
L 249.773237 -39.313371 
L 249.152555 -40.866514 
L 248.460035 -41.0736 
L 247.767646 -40.245257 
L 247.135051 -39.934629 
L 246.374366 -41.0736 
L 245.595672 -39.934629 
L 244.458454 -39.002743 
L 243.957545 -39.313371 
L 243.354875 -39.106286 
L 242.518992 -37.863771 
L 241.829485 -39.934629 
L 241.089355 -39.727543 
L 240.435865 -39.209829 
L 239.520281 -39.209829 
L 238.860767 -41.384229 
L 237.889729 -39.727543 
L 237.26142 -39.624 
L 236.559489 -41.901943 
L 235.85654 -42.005486 
L 235.07782 -40.141714 
L 234.402983 -40.659429 
L 233.727494 -41.280686 
L 232.965937 -39.727543 
L 232.282754 -39.727543 
L 231.477495 -40.659429 
L 230.693128 -39.313371 
L 229.972561 -39.106286 
L 229.403548 -39.209829 
L 228.662027 -39.209829 
L 228.010813 -39.209829 
L 227.485426 -39.520457 
L 226.546841 -39.002743 
L 225.644753 -38.277943 
L 225.110371 -38.381486 
L 224.38659 -37.138971 
L 223.790313 -36.931886 
L 223.159255 -37.138971 
L 222.559745 -37.035429 
L 221.901613 -36.828343 
L 221.170136 -36.828343 
L 220.572291 -36.621257 
L 220.076537 -36.517714 
L 219.573855 -36.7248 
L 219.054034 -36.7248 
L 218.48849 -36.828343 
L 217.920788 -36.931886 
L 217.301869 -36.828343 
L 216.691824 -36.621257 
L 216.05845 -36.7248 
L 215.555469 -36.7248 
L 214.887113 -36.7248 
L 214.323366 -37.242514 
L 213.872802 -37.4496 
L 213.333759 -37.346057 
L 212.836569 -37.346057 
L 212.121392 -37.138971 
L 211.461186 -36.621257 
L 210.858404 -36.517714 
L 210.29203 -36.310629 
L 209.635732 -36.414171 
L 209.052572 -36.7248 
L 208.565359 -36.7248 
L 207.993714 -36.931886 
L 207.495207 -36.931886 
L 206.770916 -36.621257 
L 206.224148 -36.517714 
L 205.731205 -36.7248 
L 204.993133 -36.7248 
L 204.523076 -36.931886 
L 204.039665 -37.035429 
L 203.50211 -36.828343 
L 202.994929 -36.621257 
L 202.357159 -36.517714 
L 201.846324 -36.828343 
L 201.360876 -37.035429 
L 200.890107 -37.035429 
L 200.407048 -37.035429 
L 199.712549 -37.760229 
L 199.107672 -37.242514 
L 198.542561 -37.656686 
L 198.059326 -37.863771 
L 197.58484 -37.863771 
L 196.630036 -37.035429 
L 196.098798 -37.035429 
L 195.484902 -36.310629 
L 195.000944 -36.103543 
L 194.466569 -36.103543 
L 193.883467 -36 
L 193.376688 -36.103543 
L 192.899717 -36.103543 
L 192.398565 -36.207086 
L 191.923223 -36.310629 
L 191.457183 -36.310629 
L 190.423338 -36.414171 
L 189.820888 -36.414171 
L 189.238714 -38.485029 
L 188.557172 -39.520457 
L 187.993662 -39.934629 
L 187.40639 -41.487771 
L 186.691689 -41.487771 
L 185.653529 -39.313371 
L 185.018886 -38.277943 
L 184.485451 -38.277943 
L 183.716544 -36.621257 
L 183.219469 -37.4496 
L 182.720197 -38.588571 
L 182.12962 -39.313371 
L 181.594185 -38.8992 
L 181.013705 -38.8992 
L 180.291154 -40.3488 
L 179.591707 -40.038171 
L 178.93475 -40.3488 
L 178.33196 -40.762971 
L 177.828378 -41.0736 
L 176.950724 -38.795657 
L 176.350178 -38.070857 
L 175.642987 -37.035429 
L 175.006764 -36.828343 
L 174.326901 -36.517714 
L 173.644442 -36.621257 
L 173.056213 -36.621257 
L 172.565429 -36.517714 
L 171.990707 -36.517714 
L 171.341061 -36.7248 
L 170.825328 -36.828343 
L 170.22417 -36.931886 
L 169.442658 -37.760229 
L 168.923335 -37.553143 
L 168.068068 -38.070857 
L 167.521614 -41.591314 
L 166.912261 -42.212571 
L 166.25801 -43.558629 
L 165.454706 -43.662171 
L 164.799788 -43.558629 
L 164.083197 -40.141714 
L 163.297061 -39.520457 
L 162.420679 -38.277943 
L 161.827169 -38.381486 
L 161.23043 -37.760229 
L 160.60615 -37.760229 
L 160.104247 -38.070857 
L 159.366826 -37.863771 
L 158.803859 -37.967314 
L 158.203946 -38.485029 
L 157.465187 -38.8992 
L 156.857383 -38.485029 
L 156.202775 -37.760229 
L 155.628128 -37.553143 
L 154.986182 -37.346057 
L 154.252729 -36.7248 
L 153.685631 -36.7248 
L 153.097734 -37.346057 
L 152.557353 -37.656686 
L 151.998893 -37.967314 
L 151.473363 -37.863771 
L 150.977147 -38.1744 
L 150.394944 -37.863771 
L 149.872629 -37.553143 
L 149.20322 -37.967314 
L 148.690433 -38.1744 
L 148.09326 -37.967314 
L 147.601915 -37.863771 
L 146.967875 -37.967314 
L 146.356563 -37.035429 
L 145.850078 -37.138971 
L 145.345 -36.931886 
L 144.833116 -36.7248 
L 144.296524 -36.517714 
L 143.773582 -36.414171 
L 143.086937 -36.103543 
L 142.606072 -36.103543 
L 142.037461 -36.103543 
L 141.535344 -36.207086 
L 141.046588 -36.207086 
L 140.557832 -36.207086 
L 140.059236 -36.621257 
L 139.58236 -36.621257 
L 139.080331 -36.621257 
L 138.59475 -36.517714 
L 138.106821 -36.517714 
L 137.50887 -36.103543 
L 137.032381 -36.103543 
L 136.546542 -36 
L 135.911036 -36.310629 
L 135.42554 -36.310629 
L 134.938551 -36.310629 
L 134.460952 -36.310629 
L 133.828078 -36.310629 
L 133.26056 -36.103543 
L 132.753352 -36.103543 
L 132.222541 -36.207086 
L 131.747134 -36.207086 
L 131.276776 -36.207086 
L 130.789352 -36.103543 
L 130.313923 -36.207086 
L 129.628162 -36.103543 
L 128.953907 -36.207086 
L 128.435055 -36.517714 
L 127.960634 -36.517714 
L 127.473786 -36.621257 
L 126.979531 -36.7248 
L 126.478599 -36.621257 
L 125.875585 -36.310629 
L 125.375221 -36.310629 
L 124.911783 -36.103543 
L 124.416414 -36 
L 123.813286 -36 
L 123.343735 -36 
L 122.870951 -36.103543 
L 122.284974 -36.103543 
L 121.793844 -36.207086 
L 121.318599 -36.207086 
L 120.837487 -36.414171 
L 120.358553 -36.517714 
L 119.786213 -36.7248 
L 119.294787 -36.621257 
L 118.810436 -36.828343 
L 118.317739 -36.621257 
L 117.810262 -36.414171 
L 117.308695 -36.310629 
L 116.73122 -36.414171 
L 116.205136 -36.414171 
L 115.678087 -36.414171 
L 115.209705 -36.517714 
L 114.28621 -36.414171 
L 113.793435 -36.310629 
L 113.093843 -36.103543 
L 112.547402 -36.310629 
L 112.07104 -36.207086 
L 111.586487 -36.310629 
L 111.087427 -36.414171 
L 110.630854 -36.414171 
L 110.140501 -36.207086 
L 109.666815 -36.207086 
L 109.189184 -36.103543 
L 108.71232 -36 
L 108.208115 -36 
L 107.751093 -36.103543 
L 107.247233 -36.103543 
L 106.765202 -36.103543 
L 106.300019 -36.207086 
L 105.671476 -36.310629 
L 105.153263 -36.310629 
L 104.564768 -36.310629 
L 103.995268 -36.310629 
L 103.403002 -36.207086 
L 102.922199 -36.103543 
L 102.442542 -36 
L 101.963878 -36 
L 101.502897 -36.103543 
L 100.941606 -36.103543 
L 100.471685 -36.207086 
L 100.006171 -36.517714 
L 99.539966 -36.517714 
L 99.081625 -36.517714 
L 98.616114 -36.517714 
L 98.132786 -36.414171 
L 97.629445 -36.103543 
L 97.161262 -36.103543 
L 96.66787 -36 
L 96.186077 -36.103543 
L 95.720961 -36.207086 
L 95.248524 -36.310629 
L 94.777166 -36.310629 
L 94.314476 -36.310629 
L 93.839515 -36.207086 
L 93.370966 -36.103543 
L 92.89921 -36.207086 
L 92.430514 -36.414171 
L 91.964942 -36.517714 
L 91.508763 -36.517714 
L 91.047071 -36.517714 
L 90.569306 -36.517714 
L 89.975528 -36.310629 
L 89.489929 -36.310629 
L 89.010091 -36.310629 
L 88.544867 -36.414171 
L 87.841135 -36.207086 
L 87.37244 -36.207086 
L 86.77667 -36.207086 
L 86.314832 -36.207086 
L 85.830228 -36.103543 
L 85.369889 -36.310629 
L 84.917217 -36.414171 
L 84.201614 -36.414171 
L 83.744045 -36.414171 
L 83.266501 -36.414171 
L 82.783027 -36.310629 
L 82.314556 -36.207086 
L 81.844469 -36.103543 
L 81.373915 -36.103543 
L 80.887263 -37.656686 
L 80.39598 -37.656686 
L 79.917796 -37.760229 
L 79.327812 -37.760229 
L 78.843533 -37.863771 
L 78.082405 -36.310629 
L 77.60405 -36.207086 
L 77.127206 -36.103543 
L 76.669155 -36.103543 
L 76.086557 -36 
L 75.645091 -36 
L 75.124821 -36.207086 
L 74.639717 -36.517714 
L 74.163337 -36.517714 
L 73.681621 -36.517714 
L 73.219057 -36.621257 
L 72.723018 -36.414171 
L 72.217306 -36.207086 
L 71.750099 -36.310629 
L 71.117609 -36.310629 
L 70.58555 -36.310629 
L 69.728858 -36.310629 
L 69.235142 -36.207086 
L 68.753549 -36.103543 
L 68.292344 -36.310629 
L 67.750086 -36.310629 
L 67.257322 -37.138971 
L 66.788232 -37.138971 
L 66.321134 -37.138971 
L 65.820787 -37.035429 
L 65.294311 -36.931886 
L 64.642781 -36.207086 
L 64.171434 -36.517714 
L 63.697978 -36.517714 
L 63.225679 -36.621257 
L 62.76266 -36.828343 
L 62.299354 -36.7248 
L 61.815086 -36.621257 
L 61.330778 -36.828343 
L 60.854925 -36.621257 
L 60.354749 -36.621257 
L 59.882947 -36.7248 
L 59.385056 -36.517714 
z
" id="m8aa49df803" style="stroke:#96b39e;"/>
    </defs>
    <g clip-path="url(#p0be89f78e6)">
     <use style="fill:#96b39e;stroke:#96b39e;" x="0" xlink:href="#m8aa49df803" y="288"/>
    </g>
   </g>
   <g id="patch_3">
    <path d="M 54 252 
L 54 34.56 
" style="fill:none;stroke:#000000;stroke-linecap:square;stroke-linejoin:miter;stroke-width:0.8;"/>
   </g>
   <g id="patch_4">
    <path d="M 388.8 252 
L 388.8 34.56 
" style="fill:none;stroke:#000000;stroke-linecap:square;stroke-linejoin:miter;stroke-width:0.8;"/>
   </g>
   <g id="patch_5">
    <path d="M 54 252 
L 388.8 252 
" style="fill:none;stroke:#000000;stroke-linecap:square;stroke-linejoin:miter;stroke-width:0.8;"/>
   </g>
   <g id="patch_6">
    <path d="M 54 34.56 
L 388.8 34.56 
" style="fill:none;stroke:#000000;stroke-linecap:square;stroke-linejoin:miter;stroke-width:0.8;"/>
   </g>
   <g id="text_21">
    <!-- Training - Canonical ES Modified Network 1h30 6 CPUs -->
    <defs>
     <path d="M 54.890625 33.015625 
L 54.890625 0 
L 45.90625 0 
L 45.90625 32.71875 
Q 45.90625 40.484375 42.875 44.328125 
Q 39.84375 48.1875 33.796875 48.1875 
Q 26.515625 48.1875 22.3125 43.546875 
Q 18.109375 38.921875 18.109375 30.90625 
L 18.109375 0 
L 9.078125 0 
L 9.078125 54.6875 
L 18.109375 54.6875 
L 18.109375 46.1875 
Q 21.34375 51.125 25.703125 53.5625 
Q 30.078125 56 35.796875 56 
Q 45.21875 56 50.046875 50.171875 
Q 54.890625 44.34375 54.890625 33.015625 
z
" id="DejaVuSans-110"/>
     <path d="M 45.40625 27.984375 
Q 45.40625 37.75 41.375 43.109375 
Q 37.359375 48.484375 30.078125 48.484375 
Q 22.859375 48.484375 18.828125 43.109375 
Q 14.796875 37.75 14.796875 27.984375 
Q 14.796875 18.265625 18.828125 12.890625 
Q 22.859375 7.515625 30.078125 7.515625 
Q 37.359375 7.515625 41.375 12.890625 
Q 45.40625 18.265625 45.40625 27.984375 
z
M 54.390625 6.78125 
Q 54.390625 -7.171875 48.1875 -13.984375 
Q 42 -20.796875 29.203125 -20.796875 
Q 24.46875 -20.796875 20.265625 -20.09375 
Q 16.0625 -19.390625 12.109375 -17.921875 
L 12.109375 -9.1875 
Q 16.0625 -11.328125 19.921875 -12.34375 
Q 23.78125 -13.375 27.78125 -13.375 
Q 36.625 -13.375 41.015625 -8.765625 
Q 45.40625 -4.15625 45.40625 5.171875 
L 45.40625 9.625 
Q 42.625 4.78125 38.28125 2.390625 
Q 33.9375 0 27.875 0 
Q 17.828125 0 11.671875 7.65625 
Q 5.515625 15.328125 5.515625 27.984375 
Q 5.515625 40.671875 11.671875 48.328125 
Q 17.828125 56 27.875 56 
Q 33.9375 56 38.28125 53.609375 
Q 42.625 51.21875 45.40625 46.390625 
L 45.40625 54.6875 
L 54.390625 54.6875 
z
" id="DejaVuSans-103"/>
     <path d="M 4.890625 31.390625 
L 31.203125 31.390625 
L 31.203125 23.390625 
L 4.890625 23.390625 
z
" id="DejaVuSans-45"/>
     <path d="M 64.40625 67.28125 
L 64.40625 56.890625 
Q 59.421875 61.53125 53.78125 63.8125 
Q 48.140625 66.109375 41.796875 66.109375 
Q 29.296875 66.109375 22.65625 58.46875 
Q 16.015625 50.828125 16.015625 36.375 
Q 16.015625 21.96875 22.65625 14.328125 
Q 29.296875 6.6875 41.796875 6.6875 
Q 48.140625 6.6875 53.78125 8.984375 
Q 59.421875 11.28125 64.40625 15.921875 
L 64.40625 5.609375 
Q 59.234375 2.09375 53.4375 0.328125 
Q 47.65625 -1.421875 41.21875 -1.421875 
Q 24.65625 -1.421875 15.125 8.703125 
Q 5.609375 18.84375 5.609375 36.375 
Q 5.609375 53.953125 15.125 64.078125 
Q 24.65625 74.21875 41.21875 74.21875 
Q 47.75 74.21875 53.53125 72.484375 
Q 59.328125 70.75 64.40625 67.28125 
z
" id="DejaVuSans-67"/>
     <path d="M 9.8125 72.90625 
L 24.515625 72.90625 
L 43.109375 23.296875 
L 61.8125 72.90625 
L 76.515625 72.90625 
L 76.515625 0 
L 66.890625 0 
L 66.890625 64.015625 
L 48.09375 14.015625 
L 38.1875 14.015625 
L 19.390625 64.015625 
L 19.390625 0 
L 9.8125 0 
z
" id="DejaVuSans-77"/>
     <path d="M 37.109375 75.984375 
L 37.109375 68.5 
L 28.515625 68.5 
Q 23.6875 68.5 21.796875 66.546875 
Q 19.921875 64.59375 19.921875 59.515625 
L 19.921875 54.6875 
L 34.71875 54.6875 
L 34.71875 47.703125 
L 19.921875 47.703125 
L 19.921875 0 
L 10.890625 0 
L 10.890625 47.703125 
L 2.296875 47.703125 
L 2.296875 54.6875 
L 10.890625 54.6875 
L 10.890625 58.5 
Q 10.890625 67.625 15.140625 71.796875 
Q 19.390625 75.984375 28.609375 75.984375 
z
" id="DejaVuSans-102"/>
     <path d="M 9.8125 72.90625 
L 23.09375 72.90625 
L 55.421875 11.921875 
L 55.421875 72.90625 
L 64.984375 72.90625 
L 64.984375 0 
L 51.703125 0 
L 19.390625 60.984375 
L 19.390625 0 
L 9.8125 0 
z
" id="DejaVuSans-78"/>
     <path d="M 18.3125 70.21875 
L 18.3125 54.6875 
L 36.8125 54.6875 
L 36.8125 47.703125 
L 18.3125 47.703125 
L 18.3125 18.015625 
Q 18.3125 11.328125 20.140625 9.421875 
Q 21.96875 7.515625 27.59375 7.515625 
L 36.8125 7.515625 
L 36.8125 0 
L 27.59375 0 
Q 17.1875 0 13.234375 3.875 
Q 9.28125 7.765625 9.28125 18.015625 
L 9.28125 47.703125 
L 2.6875 47.703125 
L 2.6875 54.6875 
L 9.28125 54.6875 
L 9.28125 70.21875 
z
" id="DejaVuSans-116"/>
     <path d="M 4.203125 54.6875 
L 13.1875 54.6875 
L 24.421875 12.015625 
L 35.59375 54.6875 
L 46.1875 54.6875 
L 57.421875 12.015625 
L 68.609375 54.6875 
L 77.59375 54.6875 
L 63.28125 0 
L 52.6875 0 
L 40.921875 44.828125 
L 29.109375 0 
L 18.5 0 
z
" id="DejaVuSans-119"/>
     <path d="M 9.078125 75.984375 
L 18.109375 75.984375 
L 18.109375 31.109375 
L 44.921875 54.6875 
L 56.390625 54.6875 
L 27.390625 29.109375 
L 57.625 0 
L 45.90625 0 
L 18.109375 26.703125 
L 18.109375 0 
L 9.078125 0 
z
" id="DejaVuSans-107"/>
     <path d="M 54.890625 33.015625 
L 54.890625 0 
L 45.90625 0 
L 45.90625 32.71875 
Q 45.90625 40.484375 42.875 44.328125 
Q 39.84375 48.1875 33.796875 48.1875 
Q 26.515625 48.1875 22.3125 43.546875 
Q 18.109375 38.921875 18.109375 30.90625 
L 18.109375 0 
L 9.078125 0 
L 9.078125 75.984375 
L 18.109375 75.984375 
L 18.109375 46.1875 
Q 21.34375 51.125 25.703125 53.5625 
Q 30.078125 56 35.796875 56 
Q 45.21875 56 50.046875 50.171875 
Q 54.890625 44.34375 54.890625 33.015625 
z
" id="DejaVuSans-104"/>
     <path d="M 19.671875 64.796875 
L 19.671875 37.40625 
L 32.078125 37.40625 
Q 38.96875 37.40625 42.71875 40.96875 
Q 46.484375 44.53125 46.484375 51.125 
Q 46.484375 57.671875 42.71875 61.234375 
Q 38.96875 64.796875 32.078125 64.796875 
z
M 9.8125 72.90625 
L 32.078125 72.90625 
Q 44.34375 72.90625 50.609375 67.359375 
Q 56.890625 61.8125 56.890625 51.125 
Q 56.890625 40.328125 50.609375 34.8125 
Q 44.34375 29.296875 32.078125 29.296875 
L 19.671875 29.296875 
L 19.671875 0 
L 9.8125 0 
z
" id="DejaVuSans-80"/>
     <path d="M 8.6875 72.90625 
L 18.609375 72.90625 
L 18.609375 28.609375 
Q 18.609375 16.890625 22.84375 11.734375 
Q 27.09375 6.59375 36.625 6.59375 
Q 46.09375 6.59375 50.34375 11.734375 
Q 54.59375 16.890625 54.59375 28.609375 
L 54.59375 72.90625 
L 64.5 72.90625 
L 64.5 27.390625 
Q 64.5 13.140625 57.4375 5.859375 
Q 50.390625 -1.421875 36.625 -1.421875 
Q 22.796875 -1.421875 15.734375 5.859375 
Q 8.6875 13.140625 8.6875 27.390625 
z
" id="DejaVuSans-85"/>
    </defs>
    <g transform="translate(57.331875 28.56)scale(0.12 -0.12)">
     <use xlink:href="#DejaVuSans-84"/>
     <use x="60.865234" xlink:href="#DejaVuSans-114"/>
     <use x="101.978516" xlink:href="#DejaVuSans-97"/>
     <use x="163.257812" xlink:href="#DejaVuSans-105"/>
     <use x="191.041016" xlink:href="#DejaVuSans-110"/>
     <use x="254.419922" xlink:href="#DejaVuSans-105"/>
     <use x="282.203125" xlink:href="#DejaVuSans-110"/>
     <use x="345.582031" xlink:href="#DejaVuSans-103"/>
     <use x="409.058594" xlink:href="#DejaVuSans-32"/>
     <use x="440.845703" xlink:href="#DejaVuSans-45"/>
     <use x="476.929688" xlink:href="#DejaVuSans-32"/>
     <use x="508.716797" xlink:href="#DejaVuSans-67"/>
     <use x="578.541016" xlink:href="#DejaVuSans-97"/>
     <use x="639.820312" xlink:href="#DejaVuSans-110"/>
     <use x="703.199219" xlink:href="#DejaVuSans-111"/>
     <use x="764.380859" xlink:href="#DejaVuSans-110"/>
     <use x="827.759766" xlink:href="#DejaVuSans-105"/>
     <use x="855.542969" xlink:href="#DejaVuSans-99"/>
     <use x="910.523438" xlink:href="#DejaVuSans-97"/>
     <use x="971.802734" xlink:href="#DejaVuSans-108"/>
     <use x="999.585938" xlink:href="#DejaVuSans-32"/>
     <use x="1031.373047" xlink:href="#DejaVuSans-69"/>
     <use x="1094.556641" xlink:href="#DejaVuSans-83"/>
     <use x="1158.033203" xlink:href="#DejaVuSans-32"/>
     <use x="1189.820312" xlink:href="#DejaVuSans-77"/>
     <use x="1276.099609" xlink:href="#DejaVuSans-111"/>
     <use x="1337.28125" xlink:href="#DejaVuSans-100"/>
     <use x="1400.757812" xlink:href="#DejaVuSans-105"/>
     <use x="1428.541016" xlink:href="#DejaVuSans-102"/>
     <use x="1463.746094" xlink:href="#DejaVuSans-105"/>
     <use x="1491.529297" xlink:href="#DejaVuSans-101"/>
     <use x="1553.052734" xlink:href="#DejaVuSans-100"/>
     <use x="1616.529297" xlink:href="#DejaVuSans-32"/>
     <use x="1648.316406" xlink:href="#DejaVuSans-78"/>
     <use x="1723.121094" xlink:href="#DejaVuSans-101"/>
     <use x="1784.644531" xlink:href="#DejaVuSans-116"/>
     <use x="1823.853516" xlink:href="#DejaVuSans-119"/>
     <use x="1905.640625" xlink:href="#DejaVuSans-111"/>
     <use x="1966.822266" xlink:href="#DejaVuSans-114"/>
     <use x="2007.935547" xlink:href="#DejaVuSans-107"/>
     <use x="2065.845703" xlink:href="#DejaVuSans-32"/>
     <use x="2097.632812" xlink:href="#DejaVuSans-49"/>
     <use x="2161.255859" xlink:href="#DejaVuSans-104"/>
     <use x="2224.634766" xlink:href="#DejaVuSans-51"/>
     <use x="2288.257812" xlink:href="#DejaVuSans-48"/>
     <use x="2351.880859" xlink:href="#DejaVuSans-32"/>
     <use x="2383.667969" xlink:href="#DejaVuSans-54"/>
     <use x="2447.291016" xlink:href="#DejaVuSans-32"/>
     <use x="2479.078125" xlink:href="#DejaVuSans-67"/>
     <use x="2548.902344" xlink:href="#DejaVuSans-80"/>
     <use x="2609.205078" xlink:href="#DejaVuSans-85"/>
     <use x="2682.398438" xlink:href="#DejaVuSans-115"/>
    </g>
   </g>
   <g id="legend_1">
    <g id="patch_7">
     <path d="M 322.553125 71.91625 
L 381.8 71.91625 
Q 383.8 71.91625 383.8 69.91625 
L 383.8 41.56 
Q 383.8 39.56 381.8 39.56 
L 322.553125 39.56 
Q 320.553125 39.56 320.553125 41.56 
L 320.553125 69.91625 
Q 320.553125 71.91625 322.553125 71.91625 
z
" style="fill:#ffffff;opacity:0.8;stroke:#cccccc;stroke-linejoin:miter;"/>
    </g>
    <g id="patch_8">
     <path d="M 324.553125 51.158437 
L 344.553125 51.158437 
L 344.553125 44.158437 
L 324.553125 44.158437 
z
" style="fill:#8e01c8;stroke:#8e01c8;stroke-linejoin:miter;"/>
    </g>
    <g id="text_22">
     <!-- Max -->
     <defs>
      <path d="M 54.890625 54.6875 
L 35.109375 28.078125 
L 55.90625 0 
L 45.3125 0 
L 29.390625 21.484375 
L 13.484375 0 
L 2.875 0 
L 24.125 28.609375 
L 4.6875 54.6875 
L 15.28125 54.6875 
L 29.78125 35.203125 
L 44.28125 54.6875 
z
" id="DejaVuSans-120"/>
     </defs>
     <g transform="translate(352.553125 51.158437)scale(0.1 -0.1)">
      <use xlink:href="#DejaVuSans-77"/>
      <use x="86.279297" xlink:href="#DejaVuSans-97"/>
      <use x="147.558594" xlink:href="#DejaVuSans-120"/>
     </g>
    </g>
    <g id="patch_9">
     <path d="M 324.553125 65.836562 
L 344.553125 65.836562 
L 344.553125 58.836562 
L 324.553125 58.836562 
z
" style="fill:#96b39e;stroke:#96b39e;stroke-linejoin:miter;"/>
    </g>
    <g id="text_23">
     <!-- Mean -->
     <g transform="translate(352.553125 65.836562)scale(0.1 -0.1)">
      <use xlink:href="#DejaVuSans-77"/>
      <use x="86.279297" xlink:href="#DejaVuSans-101"/>
      <use x="147.802734" xlink:href="#DejaVuSans-97"/>
      <use x="209.082031" xlink:href="#DejaVuSans-110"/>
     </g>
    </g>
   </g>
  </g>
 </g>
 <defs>
  <clipPath id="p0be89f78e6">
   <rect height="217.44" width="334.8" x="54" y="34.56"/>
  </clipPath>
 </defs>
</svg>
