<?xml version="1.0" encoding="utf-8" standalone="no"?>
<!DOCTYPE svg PUBLIC "-//W3C//DTD SVG 1.1//EN"
  "http://www.w3.org/Graphics/SVG/1.1/DTD/svg11.dtd">
<!-- Created with matplotlib (https://matplotlib.org/) -->
<svg height="288pt" version="1.1" viewBox="0 0 432 288" width="432pt" xmlns="http://www.w3.org/2000/svg" xmlns:xlink="http://www.w3.org/1999/xlink">
 <defs>
  <style type="text/css">
*{stroke-linecap:butt;stroke-linejoin:round;}
  </style>
 </defs>
 <g id="figure_1">
  <g id="patch_1">
   <path d="M 0 288 
L 432 288 
L 432 0 
L 0 0 
z
" style="fill:#ffffff;"/>
  </g>
  <g id="axes_1">
   <g id="patch_2">
    <path d="M 54 252 
L 388.8 252 
L 388.8 34.56 
L 54 34.56 
z
" style="fill:#ffffff;"/>
   </g>
   <g id="matplotlib.axis_1">
    <g id="xtick_1">
     <g id="line2d_1">
      <path clip-path="url(#pedccc2ef57)" d="M 54 252 
L 54 34.56 
" style="fill:none;stroke:#808080;stroke-dasharray:2.96,1.28;stroke-dashoffset:0;stroke-width:0.8;"/>
     </g>
     <g id="line2d_2">
      <defs>
       <path d="M 0 0 
L 0 3.5 
" id="m4dcea4652f" style="stroke:#000000;stroke-width:0.8;"/>
      </defs>
      <g>
       <use style="stroke:#000000;stroke-width:0.8;" x="54" xlink:href="#m4dcea4652f" y="252"/>
      </g>
     </g>
     <g id="text_1">
      <!-- 0 -->
      <defs>
       <path d="M 31.78125 66.40625 
Q 24.171875 66.40625 20.328125 58.90625 
Q 16.5 51.421875 16.5 36.375 
Q 16.5 21.390625 20.328125 13.890625 
Q 24.171875 6.390625 31.78125 6.390625 
Q 39.453125 6.390625 43.28125 13.890625 
Q 47.125 21.390625 47.125 36.375 
Q 47.125 51.421875 43.28125 58.90625 
Q 39.453125 66.40625 31.78125 66.40625 
z
M 31.78125 74.21875 
Q 44.046875 74.21875 50.515625 64.515625 
Q 56.984375 54.828125 56.984375 36.375 
Q 56.984375 17.96875 50.515625 8.265625 
Q 44.046875 -1.421875 31.78125 -1.421875 
Q 19.53125 -1.421875 13.0625 8.265625 
Q 6.59375 17.96875 6.59375 36.375 
Q 6.59375 54.828125 13.0625 64.515625 
Q 19.53125 74.21875 31.78125 74.21875 
z
" id="DejaVuSans-48"/>
      </defs>
      <g transform="translate(50.81875 266.598437)scale(0.1 -0.1)">
       <use xlink:href="#DejaVuSans-48"/>
      </g>
     </g>
    </g>
    <g id="xtick_2">
     <g id="line2d_3">
      <path clip-path="url(#pedccc2ef57)" d="M 91.259609 252 
L 91.259609 34.56 
" style="fill:none;stroke:#808080;stroke-dasharray:2.96,1.28;stroke-dashoffset:0;stroke-width:0.8;"/>
     </g>
     <g id="line2d_4">
      <g>
       <use style="stroke:#000000;stroke-width:0.8;" x="91.259609" xlink:href="#m4dcea4652f" y="252"/>
      </g>
     </g>
     <g id="text_2">
      <!-- 10 -->
      <defs>
       <path d="M 12.40625 8.296875 
L 28.515625 8.296875 
L 28.515625 63.921875 
L 10.984375 60.40625 
L 10.984375 69.390625 
L 28.421875 72.90625 
L 38.28125 72.90625 
L 38.28125 8.296875 
L 54.390625 8.296875 
L 54.390625 0 
L 12.40625 0 
z
" id="DejaVuSans-49"/>
      </defs>
      <g transform="translate(84.897109 266.598437)scale(0.1 -0.1)">
       <use xlink:href="#DejaVuSans-49"/>
       <use x="63.623047" xlink:href="#DejaVuSans-48"/>
      </g>
     </g>
    </g>
    <g id="xtick_3">
     <g id="line2d_5">
      <path clip-path="url(#pedccc2ef57)" d="M 128.519219 252 
L 128.519219 34.56 
" style="fill:none;stroke:#808080;stroke-dasharray:2.96,1.28;stroke-dashoffset:0;stroke-width:0.8;"/>
     </g>
     <g id="line2d_6">
      <g>
       <use style="stroke:#000000;stroke-width:0.8;" x="128.519219" xlink:href="#m4dcea4652f" y="252"/>
      </g>
     </g>
     <g id="text_3">
      <!-- 20 -->
      <defs>
       <path d="M 19.1875 8.296875 
L 53.609375 8.296875 
L 53.609375 0 
L 7.328125 0 
L 7.328125 8.296875 
Q 12.9375 14.109375 22.625 23.890625 
Q 32.328125 33.6875 34.8125 36.53125 
Q 39.546875 41.84375 41.421875 45.53125 
Q 43.3125 49.21875 43.3125 52.78125 
Q 43.3125 58.59375 39.234375 62.25 
Q 35.15625 65.921875 28.609375 65.921875 
Q 23.96875 65.921875 18.8125 64.3125 
Q 13.671875 62.703125 7.8125 59.421875 
L 7.8125 69.390625 
Q 13.765625 71.78125 18.9375 73 
Q 24.125 74.21875 28.421875 74.21875 
Q 39.75 74.21875 46.484375 68.546875 
Q 53.21875 62.890625 53.21875 53.421875 
Q 53.21875 48.921875 51.53125 44.890625 
Q 49.859375 40.875 45.40625 35.40625 
Q 44.1875 33.984375 37.640625 27.21875 
Q 31.109375 20.453125 19.1875 8.296875 
z
" id="DejaVuSans-50"/>
      </defs>
      <g transform="translate(122.156719 266.598437)scale(0.1 -0.1)">
       <use xlink:href="#DejaVuSans-50"/>
       <use x="63.623047" xlink:href="#DejaVuSans-48"/>
      </g>
     </g>
    </g>
    <g id="xtick_4">
     <g id="line2d_7">
      <path clip-path="url(#pedccc2ef57)" d="M 165.778828 252 
L 165.778828 34.56 
" style="fill:none;stroke:#808080;stroke-dasharray:2.96,1.28;stroke-dashoffset:0;stroke-width:0.8;"/>
     </g>
     <g id="line2d_8">
      <g>
       <use style="stroke:#000000;stroke-width:0.8;" x="165.778828" xlink:href="#m4dcea4652f" y="252"/>
      </g>
     </g>
     <g id="text_4">
      <!-- 30 -->
      <defs>
       <path d="M 40.578125 39.3125 
Q 47.65625 37.796875 51.625 33 
Q 55.609375 28.21875 55.609375 21.1875 
Q 55.609375 10.40625 48.1875 4.484375 
Q 40.765625 -1.421875 27.09375 -1.421875 
Q 22.515625 -1.421875 17.65625 -0.515625 
Q 12.796875 0.390625 7.625 2.203125 
L 7.625 11.71875 
Q 11.71875 9.328125 16.59375 8.109375 
Q 21.484375 6.890625 26.8125 6.890625 
Q 36.078125 6.890625 40.9375 10.546875 
Q 45.796875 14.203125 45.796875 21.1875 
Q 45.796875 27.640625 41.28125 31.265625 
Q 36.765625 34.90625 28.71875 34.90625 
L 20.21875 34.90625 
L 20.21875 43.015625 
L 29.109375 43.015625 
Q 36.375 43.015625 40.234375 45.921875 
Q 44.09375 48.828125 44.09375 54.296875 
Q 44.09375 59.90625 40.109375 62.90625 
Q 36.140625 65.921875 28.71875 65.921875 
Q 24.65625 65.921875 20.015625 65.03125 
Q 15.375 64.15625 9.8125 62.3125 
L 9.8125 71.09375 
Q 15.4375 72.65625 20.34375 73.4375 
Q 25.25 74.21875 29.59375 74.21875 
Q 40.828125 74.21875 47.359375 69.109375 
Q 53.90625 64.015625 53.90625 55.328125 
Q 53.90625 49.265625 50.4375 45.09375 
Q 46.96875 40.921875 40.578125 39.3125 
z
" id="DejaVuSans-51"/>
      </defs>
      <g transform="translate(159.416328 266.598437)scale(0.1 -0.1)">
       <use xlink:href="#DejaVuSans-51"/>
       <use x="63.623047" xlink:href="#DejaVuSans-48"/>
      </g>
     </g>
    </g>
    <g id="xtick_5">
     <g id="line2d_9">
      <path clip-path="url(#pedccc2ef57)" d="M 203.038437 252 
L 203.038437 34.56 
" style="fill:none;stroke:#808080;stroke-dasharray:2.96,1.28;stroke-dashoffset:0;stroke-width:0.8;"/>
     </g>
     <g id="line2d_10">
      <g>
       <use style="stroke:#000000;stroke-width:0.8;" x="203.038437" xlink:href="#m4dcea4652f" y="252"/>
      </g>
     </g>
     <g id="text_5">
      <!-- 40 -->
      <defs>
       <path d="M 37.796875 64.3125 
L 12.890625 25.390625 
L 37.796875 25.390625 
z
M 35.203125 72.90625 
L 47.609375 72.90625 
L 47.609375 25.390625 
L 58.015625 25.390625 
L 58.015625 17.1875 
L 47.609375 17.1875 
L 47.609375 0 
L 37.796875 0 
L 37.796875 17.1875 
L 4.890625 17.1875 
L 4.890625 26.703125 
z
" id="DejaVuSans-52"/>
      </defs>
      <g transform="translate(196.675937 266.598437)scale(0.1 -0.1)">
       <use xlink:href="#DejaVuSans-52"/>
       <use x="63.623047" xlink:href="#DejaVuSans-48"/>
      </g>
     </g>
    </g>
    <g id="xtick_6">
     <g id="line2d_11">
      <path clip-path="url(#pedccc2ef57)" d="M 240.298047 252 
L 240.298047 34.56 
" style="fill:none;stroke:#808080;stroke-dasharray:2.96,1.28;stroke-dashoffset:0;stroke-width:0.8;"/>
     </g>
     <g id="line2d_12">
      <g>
       <use style="stroke:#000000;stroke-width:0.8;" x="240.298047" xlink:href="#m4dcea4652f" y="252"/>
      </g>
     </g>
     <g id="text_6">
      <!-- 50 -->
      <defs>
       <path d="M 10.796875 72.90625 
L 49.515625 72.90625 
L 49.515625 64.59375 
L 19.828125 64.59375 
L 19.828125 46.734375 
Q 21.96875 47.46875 24.109375 47.828125 
Q 26.265625 48.1875 28.421875 48.1875 
Q 40.625 48.1875 47.75 41.5 
Q 54.890625 34.8125 54.890625 23.390625 
Q 54.890625 11.625 47.5625 5.09375 
Q 40.234375 -1.421875 26.90625 -1.421875 
Q 22.3125 -1.421875 17.546875 -0.640625 
Q 12.796875 0.140625 7.71875 1.703125 
L 7.71875 11.625 
Q 12.109375 9.234375 16.796875 8.0625 
Q 21.484375 6.890625 26.703125 6.890625 
Q 35.15625 6.890625 40.078125 11.328125 
Q 45.015625 15.765625 45.015625 23.390625 
Q 45.015625 31 40.078125 35.4375 
Q 35.15625 39.890625 26.703125 39.890625 
Q 22.75 39.890625 18.8125 39.015625 
Q 14.890625 38.140625 10.796875 36.28125 
z
" id="DejaVuSans-53"/>
      </defs>
      <g transform="translate(233.935547 266.598437)scale(0.1 -0.1)">
       <use xlink:href="#DejaVuSans-53"/>
       <use x="63.623047" xlink:href="#DejaVuSans-48"/>
      </g>
     </g>
    </g>
    <g id="xtick_7">
     <g id="line2d_13">
      <path clip-path="url(#pedccc2ef57)" d="M 277.557656 252 
L 277.557656 34.56 
" style="fill:none;stroke:#808080;stroke-dasharray:2.96,1.28;stroke-dashoffset:0;stroke-width:0.8;"/>
     </g>
     <g id="line2d_14">
      <g>
       <use style="stroke:#000000;stroke-width:0.8;" x="277.557656" xlink:href="#m4dcea4652f" y="252"/>
      </g>
     </g>
     <g id="text_7">
      <!-- 60 -->
      <defs>
       <path d="M 33.015625 40.375 
Q 26.375 40.375 22.484375 35.828125 
Q 18.609375 31.296875 18.609375 23.390625 
Q 18.609375 15.53125 22.484375 10.953125 
Q 26.375 6.390625 33.015625 6.390625 
Q 39.65625 6.390625 43.53125 10.953125 
Q 47.40625 15.53125 47.40625 23.390625 
Q 47.40625 31.296875 43.53125 35.828125 
Q 39.65625 40.375 33.015625 40.375 
z
M 52.59375 71.296875 
L 52.59375 62.3125 
Q 48.875 64.0625 45.09375 64.984375 
Q 41.3125 65.921875 37.59375 65.921875 
Q 27.828125 65.921875 22.671875 59.328125 
Q 17.53125 52.734375 16.796875 39.40625 
Q 19.671875 43.65625 24.015625 45.921875 
Q 28.375 48.1875 33.59375 48.1875 
Q 44.578125 48.1875 50.953125 41.515625 
Q 57.328125 34.859375 57.328125 23.390625 
Q 57.328125 12.15625 50.6875 5.359375 
Q 44.046875 -1.421875 33.015625 -1.421875 
Q 20.359375 -1.421875 13.671875 8.265625 
Q 6.984375 17.96875 6.984375 36.375 
Q 6.984375 53.65625 15.1875 63.9375 
Q 23.390625 74.21875 37.203125 74.21875 
Q 40.921875 74.21875 44.703125 73.484375 
Q 48.484375 72.75 52.59375 71.296875 
z
" id="DejaVuSans-54"/>
      </defs>
      <g transform="translate(271.195156 266.598437)scale(0.1 -0.1)">
       <use xlink:href="#DejaVuSans-54"/>
       <use x="63.623047" xlink:href="#DejaVuSans-48"/>
      </g>
     </g>
    </g>
    <g id="xtick_8">
     <g id="line2d_15">
      <path clip-path="url(#pedccc2ef57)" d="M 314.817265 252 
L 314.817265 34.56 
" style="fill:none;stroke:#808080;stroke-dasharray:2.96,1.28;stroke-dashoffset:0;stroke-width:0.8;"/>
     </g>
     <g id="line2d_16">
      <g>
       <use style="stroke:#000000;stroke-width:0.8;" x="314.817265" xlink:href="#m4dcea4652f" y="252"/>
      </g>
     </g>
     <g id="text_8">
      <!-- 70 -->
      <defs>
       <path d="M 8.203125 72.90625 
L 55.078125 72.90625 
L 55.078125 68.703125 
L 28.609375 0 
L 18.3125 0 
L 43.21875 64.59375 
L 8.203125 64.59375 
z
" id="DejaVuSans-55"/>
      </defs>
      <g transform="translate(308.454765 266.598437)scale(0.1 -0.1)">
       <use xlink:href="#DejaVuSans-55"/>
       <use x="63.623047" xlink:href="#DejaVuSans-48"/>
      </g>
     </g>
    </g>
    <g id="xtick_9">
     <g id="line2d_17">
      <path clip-path="url(#pedccc2ef57)" d="M 352.076874 252 
L 352.076874 34.56 
" style="fill:none;stroke:#808080;stroke-dasharray:2.96,1.28;stroke-dashoffset:0;stroke-width:0.8;"/>
     </g>
     <g id="line2d_18">
      <g>
       <use style="stroke:#000000;stroke-width:0.8;" x="352.076874" xlink:href="#m4dcea4652f" y="252"/>
      </g>
     </g>
     <g id="text_9">
      <!-- 80 -->
      <defs>
       <path d="M 31.78125 34.625 
Q 24.75 34.625 20.71875 30.859375 
Q 16.703125 27.09375 16.703125 20.515625 
Q 16.703125 13.921875 20.71875 10.15625 
Q 24.75 6.390625 31.78125 6.390625 
Q 38.8125 6.390625 42.859375 10.171875 
Q 46.921875 13.96875 46.921875 20.515625 
Q 46.921875 27.09375 42.890625 30.859375 
Q 38.875 34.625 31.78125 34.625 
z
M 21.921875 38.8125 
Q 15.578125 40.375 12.03125 44.71875 
Q 8.5 49.078125 8.5 55.328125 
Q 8.5 64.0625 14.71875 69.140625 
Q 20.953125 74.21875 31.78125 74.21875 
Q 42.671875 74.21875 48.875 69.140625 
Q 55.078125 64.0625 55.078125 55.328125 
Q 55.078125 49.078125 51.53125 44.71875 
Q 48 40.375 41.703125 38.8125 
Q 48.828125 37.15625 52.796875 32.3125 
Q 56.78125 27.484375 56.78125 20.515625 
Q 56.78125 9.90625 50.3125 4.234375 
Q 43.84375 -1.421875 31.78125 -1.421875 
Q 19.734375 -1.421875 13.25 4.234375 
Q 6.78125 9.90625 6.78125 20.515625 
Q 6.78125 27.484375 10.78125 32.3125 
Q 14.796875 37.15625 21.921875 38.8125 
z
M 18.3125 54.390625 
Q 18.3125 48.734375 21.84375 45.5625 
Q 25.390625 42.390625 31.78125 42.390625 
Q 38.140625 42.390625 41.71875 45.5625 
Q 45.3125 48.734375 45.3125 54.390625 
Q 45.3125 60.0625 41.71875 63.234375 
Q 38.140625 66.40625 31.78125 66.40625 
Q 25.390625 66.40625 21.84375 63.234375 
Q 18.3125 60.0625 18.3125 54.390625 
z
" id="DejaVuSans-56"/>
      </defs>
      <g transform="translate(345.714374 266.598437)scale(0.1 -0.1)">
       <use xlink:href="#DejaVuSans-56"/>
       <use x="63.623047" xlink:href="#DejaVuSans-48"/>
      </g>
     </g>
    </g>
    <g id="text_10">
     <!-- Elapsed Time (m) -->
     <defs>
      <path d="M 9.8125 72.90625 
L 55.90625 72.90625 
L 55.90625 64.59375 
L 19.671875 64.59375 
L 19.671875 43.015625 
L 54.390625 43.015625 
L 54.390625 34.71875 
L 19.671875 34.71875 
L 19.671875 8.296875 
L 56.78125 8.296875 
L 56.78125 0 
L 9.8125 0 
z
" id="DejaVuSans-69"/>
      <path d="M 9.421875 75.984375 
L 18.40625 75.984375 
L 18.40625 0 
L 9.421875 0 
z
" id="DejaVuSans-108"/>
      <path d="M 34.28125 27.484375 
Q 23.390625 27.484375 19.1875 25 
Q 14.984375 22.515625 14.984375 16.5 
Q 14.984375 11.71875 18.140625 8.90625 
Q 21.296875 6.109375 26.703125 6.109375 
Q 34.1875 6.109375 38.703125 11.40625 
Q 43.21875 16.703125 43.21875 25.484375 
L 43.21875 27.484375 
z
M 52.203125 31.203125 
L 52.203125 0 
L 43.21875 0 
L 43.21875 8.296875 
Q 40.140625 3.328125 35.546875 0.953125 
Q 30.953125 -1.421875 24.3125 -1.421875 
Q 15.921875 -1.421875 10.953125 3.296875 
Q 6 8.015625 6 15.921875 
Q 6 25.140625 12.171875 29.828125 
Q 18.359375 34.515625 30.609375 34.515625 
L 43.21875 34.515625 
L 43.21875 35.40625 
Q 43.21875 41.609375 39.140625 45 
Q 35.0625 48.390625 27.6875 48.390625 
Q 23 48.390625 18.546875 47.265625 
Q 14.109375 46.140625 10.015625 43.890625 
L 10.015625 52.203125 
Q 14.9375 54.109375 19.578125 55.046875 
Q 24.21875 56 28.609375 56 
Q 40.484375 56 46.34375 49.84375 
Q 52.203125 43.703125 52.203125 31.203125 
z
" id="DejaVuSans-97"/>
      <path d="M 18.109375 8.203125 
L 18.109375 -20.796875 
L 9.078125 -20.796875 
L 9.078125 54.6875 
L 18.109375 54.6875 
L 18.109375 46.390625 
Q 20.953125 51.265625 25.265625 53.625 
Q 29.59375 56 35.59375 56 
Q 45.5625 56 51.78125 48.09375 
Q 58.015625 40.1875 58.015625 27.296875 
Q 58.015625 14.40625 51.78125 6.484375 
Q 45.5625 -1.421875 35.59375 -1.421875 
Q 29.59375 -1.421875 25.265625 0.953125 
Q 20.953125 3.328125 18.109375 8.203125 
z
M 48.6875 27.296875 
Q 48.6875 37.203125 44.609375 42.84375 
Q 40.53125 48.484375 33.40625 48.484375 
Q 26.265625 48.484375 22.1875 42.84375 
Q 18.109375 37.203125 18.109375 27.296875 
Q 18.109375 17.390625 22.1875 11.75 
Q 26.265625 6.109375 33.40625 6.109375 
Q 40.53125 6.109375 44.609375 11.75 
Q 48.6875 17.390625 48.6875 27.296875 
z
" id="DejaVuSans-112"/>
      <path d="M 44.28125 53.078125 
L 44.28125 44.578125 
Q 40.484375 46.53125 36.375 47.5 
Q 32.28125 48.484375 27.875 48.484375 
Q 21.1875 48.484375 17.84375 46.4375 
Q 14.5 44.390625 14.5 40.28125 
Q 14.5 37.15625 16.890625 35.375 
Q 19.28125 33.59375 26.515625 31.984375 
L 29.59375 31.296875 
Q 39.15625 29.25 43.1875 25.515625 
Q 47.21875 21.78125 47.21875 15.09375 
Q 47.21875 7.46875 41.1875 3.015625 
Q 35.15625 -1.421875 24.609375 -1.421875 
Q 20.21875 -1.421875 15.453125 -0.5625 
Q 10.6875 0.296875 5.421875 2 
L 5.421875 11.28125 
Q 10.40625 8.6875 15.234375 7.390625 
Q 20.0625 6.109375 24.8125 6.109375 
Q 31.15625 6.109375 34.5625 8.28125 
Q 37.984375 10.453125 37.984375 14.40625 
Q 37.984375 18.0625 35.515625 20.015625 
Q 33.0625 21.96875 24.703125 23.78125 
L 21.578125 24.515625 
Q 13.234375 26.265625 9.515625 29.90625 
Q 5.8125 33.546875 5.8125 39.890625 
Q 5.8125 47.609375 11.28125 51.796875 
Q 16.75 56 26.8125 56 
Q 31.78125 56 36.171875 55.265625 
Q 40.578125 54.546875 44.28125 53.078125 
z
" id="DejaVuSans-115"/>
      <path d="M 56.203125 29.59375 
L 56.203125 25.203125 
L 14.890625 25.203125 
Q 15.484375 15.921875 20.484375 11.0625 
Q 25.484375 6.203125 34.421875 6.203125 
Q 39.59375 6.203125 44.453125 7.46875 
Q 49.3125 8.734375 54.109375 11.28125 
L 54.109375 2.78125 
Q 49.265625 0.734375 44.1875 -0.34375 
Q 39.109375 -1.421875 33.890625 -1.421875 
Q 20.796875 -1.421875 13.15625 6.1875 
Q 5.515625 13.8125 5.515625 26.8125 
Q 5.515625 40.234375 12.765625 48.109375 
Q 20.015625 56 32.328125 56 
Q 43.359375 56 49.78125 48.890625 
Q 56.203125 41.796875 56.203125 29.59375 
z
M 47.21875 32.234375 
Q 47.125 39.59375 43.09375 43.984375 
Q 39.0625 48.390625 32.421875 48.390625 
Q 24.90625 48.390625 20.390625 44.140625 
Q 15.875 39.890625 15.1875 32.171875 
z
" id="DejaVuSans-101"/>
      <path d="M 45.40625 46.390625 
L 45.40625 75.984375 
L 54.390625 75.984375 
L 54.390625 0 
L 45.40625 0 
L 45.40625 8.203125 
Q 42.578125 3.328125 38.25 0.953125 
Q 33.9375 -1.421875 27.875 -1.421875 
Q 17.96875 -1.421875 11.734375 6.484375 
Q 5.515625 14.40625 5.515625 27.296875 
Q 5.515625 40.1875 11.734375 48.09375 
Q 17.96875 56 27.875 56 
Q 33.9375 56 38.25 53.625 
Q 42.578125 51.265625 45.40625 46.390625 
z
M 14.796875 27.296875 
Q 14.796875 17.390625 18.875 11.75 
Q 22.953125 6.109375 30.078125 6.109375 
Q 37.203125 6.109375 41.296875 11.75 
Q 45.40625 17.390625 45.40625 27.296875 
Q 45.40625 37.203125 41.296875 42.84375 
Q 37.203125 48.484375 30.078125 48.484375 
Q 22.953125 48.484375 18.875 42.84375 
Q 14.796875 37.203125 14.796875 27.296875 
z
" id="DejaVuSans-100"/>
      <path id="DejaVuSans-32"/>
      <path d="M -0.296875 72.90625 
L 61.375 72.90625 
L 61.375 64.59375 
L 35.5 64.59375 
L 35.5 0 
L 25.59375 0 
L 25.59375 64.59375 
L -0.296875 64.59375 
z
" id="DejaVuSans-84"/>
      <path d="M 9.421875 54.6875 
L 18.40625 54.6875 
L 18.40625 0 
L 9.421875 0 
z
M 9.421875 75.984375 
L 18.40625 75.984375 
L 18.40625 64.59375 
L 9.421875 64.59375 
z
" id="DejaVuSans-105"/>
      <path d="M 52 44.1875 
Q 55.375 50.25 60.0625 53.125 
Q 64.75 56 71.09375 56 
Q 79.640625 56 84.28125 50.015625 
Q 88.921875 44.046875 88.921875 33.015625 
L 88.921875 0 
L 79.890625 0 
L 79.890625 32.71875 
Q 79.890625 40.578125 77.09375 44.375 
Q 74.3125 48.1875 68.609375 48.1875 
Q 61.625 48.1875 57.5625 43.546875 
Q 53.515625 38.921875 53.515625 30.90625 
L 53.515625 0 
L 44.484375 0 
L 44.484375 32.71875 
Q 44.484375 40.625 41.703125 44.40625 
Q 38.921875 48.1875 33.109375 48.1875 
Q 26.21875 48.1875 22.15625 43.53125 
Q 18.109375 38.875 18.109375 30.90625 
L 18.109375 0 
L 9.078125 0 
L 9.078125 54.6875 
L 18.109375 54.6875 
L 18.109375 46.1875 
Q 21.1875 51.21875 25.484375 53.609375 
Q 29.78125 56 35.6875 56 
Q 41.65625 56 45.828125 52.96875 
Q 50 49.953125 52 44.1875 
z
" id="DejaVuSans-109"/>
      <path d="M 31 75.875 
Q 24.46875 64.65625 21.28125 53.65625 
Q 18.109375 42.671875 18.109375 31.390625 
Q 18.109375 20.125 21.3125 9.0625 
Q 24.515625 -2 31 -13.1875 
L 23.1875 -13.1875 
Q 15.875 -1.703125 12.234375 9.375 
Q 8.59375 20.453125 8.59375 31.390625 
Q 8.59375 42.28125 12.203125 53.3125 
Q 15.828125 64.359375 23.1875 75.875 
z
" id="DejaVuSans-40"/>
      <path d="M 8.015625 75.875 
L 15.828125 75.875 
Q 23.140625 64.359375 26.78125 53.3125 
Q 30.421875 42.28125 30.421875 31.390625 
Q 30.421875 20.453125 26.78125 9.375 
Q 23.140625 -1.703125 15.828125 -13.1875 
L 8.015625 -13.1875 
Q 14.5 -2 17.703125 9.0625 
Q 20.90625 20.125 20.90625 31.390625 
Q 20.90625 42.671875 17.703125 53.65625 
Q 14.5 64.65625 8.015625 75.875 
z
" id="DejaVuSans-41"/>
     </defs>
     <g transform="translate(177.420312 280.276563)scale(0.1 -0.1)">
      <use xlink:href="#DejaVuSans-69"/>
      <use x="63.183594" xlink:href="#DejaVuSans-108"/>
      <use x="90.966797" xlink:href="#DejaVuSans-97"/>
      <use x="152.246094" xlink:href="#DejaVuSans-112"/>
      <use x="215.722656" xlink:href="#DejaVuSans-115"/>
      <use x="267.822266" xlink:href="#DejaVuSans-101"/>
      <use x="329.345703" xlink:href="#DejaVuSans-100"/>
      <use x="392.822266" xlink:href="#DejaVuSans-32"/>
      <use x="424.609375" xlink:href="#DejaVuSans-84"/>
      <use x="485.646484" xlink:href="#DejaVuSans-105"/>
      <use x="513.429688" xlink:href="#DejaVuSans-109"/>
      <use x="610.841797" xlink:href="#DejaVuSans-101"/>
      <use x="672.365234" xlink:href="#DejaVuSans-32"/>
      <use x="704.152344" xlink:href="#DejaVuSans-40"/>
      <use x="743.166016" xlink:href="#DejaVuSans-109"/>
      <use x="840.578125" xlink:href="#DejaVuSans-41"/>
     </g>
    </g>
   </g>
   <g id="matplotlib.axis_2">
    <g id="ytick_1">
     <g id="line2d_19">
      <path clip-path="url(#pedccc2ef57)" d="M 54 246.822857 
L 388.8 246.822857 
" style="fill:none;stroke:#808080;stroke-dasharray:2.96,1.28;stroke-dashoffset:0;stroke-width:0.8;"/>
     </g>
     <g id="line2d_20">
      <defs>
       <path d="M 0 0 
L -3.5 0 
" id="mabac9c2270" style="stroke:#000000;stroke-width:0.8;"/>
      </defs>
      <g>
       <use style="stroke:#000000;stroke-width:0.8;" x="54" xlink:href="#mabac9c2270" y="246.822857"/>
      </g>
     </g>
     <g id="text_11">
      <!-- −20 -->
      <defs>
       <path d="M 10.59375 35.5 
L 73.1875 35.5 
L 73.1875 27.203125 
L 10.59375 27.203125 
z
" id="DejaVuSans-8722"/>
      </defs>
      <g transform="translate(25.895312 250.622076)scale(0.1 -0.1)">
       <use xlink:href="#DejaVuSans-8722"/>
       <use x="83.789062" xlink:href="#DejaVuSans-50"/>
       <use x="147.412109" xlink:href="#DejaVuSans-48"/>
      </g>
     </g>
    </g>
    <g id="ytick_2">
     <g id="line2d_21">
      <path clip-path="url(#pedccc2ef57)" d="M 54 220.937143 
L 388.8 220.937143 
" style="fill:none;stroke:#808080;stroke-dasharray:2.96,1.28;stroke-dashoffset:0;stroke-width:0.8;"/>
     </g>
     <g id="line2d_22">
      <g>
       <use style="stroke:#000000;stroke-width:0.8;" x="54" xlink:href="#mabac9c2270" y="220.937143"/>
      </g>
     </g>
     <g id="text_12">
      <!-- −15 -->
      <g transform="translate(25.895312 224.736362)scale(0.1 -0.1)">
       <use xlink:href="#DejaVuSans-8722"/>
       <use x="83.789062" xlink:href="#DejaVuSans-49"/>
       <use x="147.412109" xlink:href="#DejaVuSans-53"/>
      </g>
     </g>
    </g>
    <g id="ytick_3">
     <g id="line2d_23">
      <path clip-path="url(#pedccc2ef57)" d="M 54 195.051429 
L 388.8 195.051429 
" style="fill:none;stroke:#808080;stroke-dasharray:2.96,1.28;stroke-dashoffset:0;stroke-width:0.8;"/>
     </g>
     <g id="line2d_24">
      <g>
       <use style="stroke:#000000;stroke-width:0.8;" x="54" xlink:href="#mabac9c2270" y="195.051429"/>
      </g>
     </g>
     <g id="text_13">
      <!-- −10 -->
      <g transform="translate(25.895312 198.850647)scale(0.1 -0.1)">
       <use xlink:href="#DejaVuSans-8722"/>
       <use x="83.789062" xlink:href="#DejaVuSans-49"/>
       <use x="147.412109" xlink:href="#DejaVuSans-48"/>
      </g>
     </g>
    </g>
    <g id="ytick_4">
     <g id="line2d_25">
      <path clip-path="url(#pedccc2ef57)" d="M 54 169.165714 
L 388.8 169.165714 
" style="fill:none;stroke:#808080;stroke-dasharray:2.96,1.28;stroke-dashoffset:0;stroke-width:0.8;"/>
     </g>
     <g id="line2d_26">
      <g>
       <use style="stroke:#000000;stroke-width:0.8;" x="54" xlink:href="#mabac9c2270" y="169.165714"/>
      </g>
     </g>
     <g id="text_14">
      <!-- −5 -->
      <g transform="translate(32.257812 172.964933)scale(0.1 -0.1)">
       <use xlink:href="#DejaVuSans-8722"/>
       <use x="83.789062" xlink:href="#DejaVuSans-53"/>
      </g>
     </g>
    </g>
    <g id="ytick_5">
     <g id="line2d_27">
      <path clip-path="url(#pedccc2ef57)" d="M 54 143.28 
L 388.8 143.28 
" style="fill:none;stroke:#808080;stroke-dasharray:2.96,1.28;stroke-dashoffset:0;stroke-width:0.8;"/>
     </g>
     <g id="line2d_28">
      <g>
       <use style="stroke:#000000;stroke-width:0.8;" x="54" xlink:href="#mabac9c2270" y="143.28"/>
      </g>
     </g>
     <g id="text_15">
      <!-- 0 -->
      <g transform="translate(40.6375 147.079219)scale(0.1 -0.1)">
       <use xlink:href="#DejaVuSans-48"/>
      </g>
     </g>
    </g>
    <g id="ytick_6">
     <g id="line2d_29">
      <path clip-path="url(#pedccc2ef57)" d="M 54 117.394286 
L 388.8 117.394286 
" style="fill:none;stroke:#808080;stroke-dasharray:2.96,1.28;stroke-dashoffset:0;stroke-width:0.8;"/>
     </g>
     <g id="line2d_30">
      <g>
       <use style="stroke:#000000;stroke-width:0.8;" x="54" xlink:href="#mabac9c2270" y="117.394286"/>
      </g>
     </g>
     <g id="text_16">
      <!-- 5 -->
      <g transform="translate(40.6375 121.193504)scale(0.1 -0.1)">
       <use xlink:href="#DejaVuSans-53"/>
      </g>
     </g>
    </g>
    <g id="ytick_7">
     <g id="line2d_31">
      <path clip-path="url(#pedccc2ef57)" d="M 54 91.508571 
L 388.8 91.508571 
" style="fill:none;stroke:#808080;stroke-dasharray:2.96,1.28;stroke-dashoffset:0;stroke-width:0.8;"/>
     </g>
     <g id="line2d_32">
      <g>
       <use style="stroke:#000000;stroke-width:0.8;" x="54" xlink:href="#mabac9c2270" y="91.508571"/>
      </g>
     </g>
     <g id="text_17">
      <!-- 10 -->
      <g transform="translate(34.275 95.30779)scale(0.1 -0.1)">
       <use xlink:href="#DejaVuSans-49"/>
       <use x="63.623047" xlink:href="#DejaVuSans-48"/>
      </g>
     </g>
    </g>
    <g id="ytick_8">
     <g id="line2d_33">
      <path clip-path="url(#pedccc2ef57)" d="M 54 65.622857 
L 388.8 65.622857 
" style="fill:none;stroke:#808080;stroke-dasharray:2.96,1.28;stroke-dashoffset:0;stroke-width:0.8;"/>
     </g>
     <g id="line2d_34">
      <g>
       <use style="stroke:#000000;stroke-width:0.8;" x="54" xlink:href="#mabac9c2270" y="65.622857"/>
      </g>
     </g>
     <g id="text_18">
      <!-- 15 -->
      <g transform="translate(34.275 69.422076)scale(0.1 -0.1)">
       <use xlink:href="#DejaVuSans-49"/>
       <use x="63.623047" xlink:href="#DejaVuSans-53"/>
      </g>
     </g>
    </g>
    <g id="ytick_9">
     <g id="line2d_35">
      <path clip-path="url(#pedccc2ef57)" d="M 54 39.737143 
L 388.8 39.737143 
" style="fill:none;stroke:#808080;stroke-dasharray:2.96,1.28;stroke-dashoffset:0;stroke-width:0.8;"/>
     </g>
     <g id="line2d_36">
      <g>
       <use style="stroke:#000000;stroke-width:0.8;" x="54" xlink:href="#mabac9c2270" y="39.737143"/>
      </g>
     </g>
     <g id="text_19">
      <!-- 20 -->
      <g transform="translate(34.275 43.536362)scale(0.1 -0.1)">
       <use xlink:href="#DejaVuSans-50"/>
       <use x="63.623047" xlink:href="#DejaVuSans-48"/>
      </g>
     </g>
    </g>
    <g id="text_20">
     <!-- Score -->
     <defs>
      <path d="M 53.515625 70.515625 
L 53.515625 60.890625 
Q 47.90625 63.578125 42.921875 64.890625 
Q 37.9375 66.21875 33.296875 66.21875 
Q 25.25 66.21875 20.875 63.09375 
Q 16.5 59.96875 16.5 54.203125 
Q 16.5 49.359375 19.40625 46.890625 
Q 22.3125 44.4375 30.421875 42.921875 
L 36.375 41.703125 
Q 47.40625 39.59375 52.65625 34.296875 
Q 57.90625 29 57.90625 20.125 
Q 57.90625 9.515625 50.796875 4.046875 
Q 43.703125 -1.421875 29.984375 -1.421875 
Q 24.8125 -1.421875 18.96875 -0.25 
Q 13.140625 0.921875 6.890625 3.21875 
L 6.890625 13.375 
Q 12.890625 10.015625 18.65625 8.296875 
Q 24.421875 6.59375 29.984375 6.59375 
Q 38.421875 6.59375 43.015625 9.90625 
Q 47.609375 13.234375 47.609375 19.390625 
Q 47.609375 24.75 44.3125 27.78125 
Q 41.015625 30.8125 33.5 32.328125 
L 27.484375 33.5 
Q 16.453125 35.6875 11.515625 40.375 
Q 6.59375 45.0625 6.59375 53.421875 
Q 6.59375 63.09375 13.40625 68.65625 
Q 20.21875 74.21875 32.171875 74.21875 
Q 37.3125 74.21875 42.625 73.28125 
Q 47.953125 72.359375 53.515625 70.515625 
z
" id="DejaVuSans-83"/>
      <path d="M 48.78125 52.59375 
L 48.78125 44.1875 
Q 44.96875 46.296875 41.140625 47.34375 
Q 37.3125 48.390625 33.40625 48.390625 
Q 24.65625 48.390625 19.8125 42.84375 
Q 14.984375 37.3125 14.984375 27.296875 
Q 14.984375 17.28125 19.8125 11.734375 
Q 24.65625 6.203125 33.40625 6.203125 
Q 37.3125 6.203125 41.140625 7.25 
Q 44.96875 8.296875 48.78125 10.40625 
L 48.78125 2.09375 
Q 45.015625 0.34375 40.984375 -0.53125 
Q 36.96875 -1.421875 32.421875 -1.421875 
Q 20.0625 -1.421875 12.78125 6.34375 
Q 5.515625 14.109375 5.515625 27.296875 
Q 5.515625 40.671875 12.859375 48.328125 
Q 20.21875 56 33.015625 56 
Q 37.15625 56 41.109375 55.140625 
Q 45.0625 54.296875 48.78125 52.59375 
z
" id="DejaVuSans-99"/>
      <path d="M 30.609375 48.390625 
Q 23.390625 48.390625 19.1875 42.75 
Q 14.984375 37.109375 14.984375 27.296875 
Q 14.984375 17.484375 19.15625 11.84375 
Q 23.34375 6.203125 30.609375 6.203125 
Q 37.796875 6.203125 41.984375 11.859375 
Q 46.1875 17.53125 46.1875 27.296875 
Q 46.1875 37.015625 41.984375 42.703125 
Q 37.796875 48.390625 30.609375 48.390625 
z
M 30.609375 56 
Q 42.328125 56 49.015625 48.375 
Q 55.71875 40.765625 55.71875 27.296875 
Q 55.71875 13.875 49.015625 6.21875 
Q 42.328125 -1.421875 30.609375 -1.421875 
Q 18.84375 -1.421875 12.171875 6.21875 
Q 5.515625 13.875 5.515625 27.296875 
Q 5.515625 40.765625 12.171875 48.375 
Q 18.84375 56 30.609375 56 
z
" id="DejaVuSans-111"/>
      <path d="M 41.109375 46.296875 
Q 39.59375 47.171875 37.8125 47.578125 
Q 36.03125 48 33.890625 48 
Q 26.265625 48 22.1875 43.046875 
Q 18.109375 38.09375 18.109375 28.8125 
L 18.109375 0 
L 9.078125 0 
L 9.078125 54.6875 
L 18.109375 54.6875 
L 18.109375 46.1875 
Q 20.953125 51.171875 25.484375 53.578125 
Q 30.03125 56 36.53125 56 
Q 37.453125 56 38.578125 55.875 
Q 39.703125 55.765625 41.0625 55.515625 
z
" id="DejaVuSans-114"/>
     </defs>
     <g transform="translate(19.815625 157.393281)rotate(-90)scale(0.1 -0.1)">
      <use xlink:href="#DejaVuSans-83"/>
      <use x="63.476562" xlink:href="#DejaVuSans-99"/>
      <use x="118.457031" xlink:href="#DejaVuSans-111"/>
      <use x="179.638672" xlink:href="#DejaVuSans-114"/>
      <use x="220.720703" xlink:href="#DejaVuSans-101"/>
     </g>
    </g>
   </g>
   <g id="PolyCollection_1">
    <defs>
     <path d="M 59.460348 -42.212571 
L 59.460348 -36.931886 
L 59.921111 -36.931886 
L 60.556639 -36.517714 
L 61.079307 -36.7248 
L 61.557097 -36.931886 
L 62.017279 -37.4496 
L 62.445935 -37.656686 
L 62.884756 -37.760229 
L 63.516734 -39.209829 
L 64.286109 -40.970057 
L 65.220843 -46.1472 
L 65.893205 -47.079086 
L 66.816251 -47.079086 
L 67.964365 -48.839314 
L 68.819922 -47.389714 
L 69.714172 -44.490514 
L 70.368742 -43.869257 
L 71.084953 -44.076343 
L 71.700379 -40.866514 
L 72.389125 -42.005486 
L 73.153286 -42.316114 
L 74.053976 -42.109029 
L 74.552609 -42.316114 
L 75.300412 -42.316114 
L 75.967812 -41.177143 
L 76.636862 -38.070857 
L 77.212215 -38.692114 
L 77.863243 -38.277943 
L 78.377268 -38.485029 
L 79.273661 -38.070857 
L 80.189076 -37.967314 
L 80.872302 -38.070857 
L 81.3806 -38.1744 
L 82.027537 -38.381486 
L 82.544546 -38.8992 
L 83.055851 -39.002743 
L 83.815023 -38.381486 
L 84.504617 -42.109029 
L 85.133715 -41.901943 
L 85.6601 -41.487771 
L 86.090457 -41.694857 
L 86.524694 -41.591314 
L 86.983096 -37.863771 
L 87.436674 -37.863771 
L 87.879772 -38.1744 
L 88.321589 -38.381486 
L 88.765568 -38.277943 
L 89.220165 -38.588571 
L 89.822973 -38.381486 
L 90.275981 -37.863771 
L 90.717492 -38.070857 
L 91.172666 -38.1744 
L 91.630967 -38.588571 
L 92.147333 -38.588571 
L 92.633197 -38.795657 
L 93.294889 -39.520457 
L 93.855652 -39.520457 
L 94.498829 -39.727543 
L 94.975161 -40.3488 
L 95.572251 -41.487771 
L 96.31787 -41.177143 
L 96.813732 -41.901943 
L 97.388153 -41.901943 
L 98.001853 -42.212571 
L 98.716598 -43.351543 
L 99.62462 -45.215314 
L 100.074295 -44.801143 
L 100.715204 -44.6976 
L 101.660922 -44.801143 
L 102.320642 -43.351543 
L 103.052177 -42.5232 
L 103.59819 -42.730286 
L 104.193915 -42.626743 
L 104.734439 -42.109029 
L 105.40801 -41.591314 
L 106.185977 -42.005486 
L 106.765826 -42.419657 
L 107.343447 -41.901943 
L 108.539515 -41.901943 
L 109.060435 -42.316114 
L 109.805353 -42.316114 
L 110.430256 -43.351543 
L 111.151183 -44.179886 
L 111.613544 -44.283429 
L 112.340352 -45.318857 
L 112.807201 -43.455086 
L 113.637902 -42.730286 
L 114.293095 -42.212571 
L 115.128617 -47.286171 
L 115.903515 -48.528686 
L 117.291299 -48.528686 
L 117.881483 -48.942857 
L 118.650643 -49.357029 
L 119.35657 -45.008229 
L 119.958669 -42.833829 
L 120.767875 -46.1472 
L 121.449239 -45.940114 
L 122.407789 -46.354286 
L 123.017179 -45.111771 
L 127.972694 -48.218057 
L 128.768014 -46.768457 
L 129.395494 -46.872 
L 130.113722 -48.425143 
L 130.7074 -50.910171 
L 131.402858 -47.5968 
L 132.430936 -48.942857 
L 133.238701 -53.188114 
L 133.969448 -53.291657 
L 134.826685 -58.882971 
L 135.305157 -58.882971 
L 136.101109 -58.675886 
L 137.021723 -55.155429 
L 137.928232 -56.087314 
L 138.721981 -50.910171 
L 139.448471 -52.877486 
L 139.999212 -50.599543 
L 140.688647 -51.013714 
L 141.515903 -53.291657 
L 142.084127 -51.324343 
L 143.094588 -49.357029 
L 144.160653 -51.738514 
L 144.777002 -49.874743 
L 145.575633 -44.904686 
L 146.715966 -46.561371 
L 147.540084 -49.149943 
L 148.402765 -49.357029 
L 149.258016 -53.188114 
L 149.859758 -53.498743 
L 150.56406 -52.463314 
L 151.594542 -55.5696 
L 152.722461 -53.291657 
L 153.569732 -52.463314 
L 154.426034 -52.463314 
L 155.150957 -54.637714 
L 155.902468 -51.117257 
L 156.513083 -50.910171 
L 157.341943 -53.602286 
L 158.166329 -57.329829 
L 158.807098 -54.948343 
L 159.533751 -55.880229 
L 160.101805 -55.673143 
L 160.889561 -53.705829 
L 161.681381 -51.842057 
L 162.541798 -52.981029 
L 163.51058 -54.223543 
L 164.577545 -58.4688 
L 165.294649 -55.155429 
L 166.156182 -58.158171 
L 167.068363 -61.885714 
L 167.856659 -57.433371 
L 168.475382 -53.084571 
L 169.125432 -53.602286 
L 169.965215 -49.253486 
L 170.740506 -43.9728 
L 171.527432 -43.662171 
L 172.392462 -43.9728 
L 173.43866 -43.248 
L 174.284013 -41.280686 
L 175.125683 -42.316114 
L 175.917898 -45.318857 
L 176.660749 -46.768457 
L 177.823876 -48.632229 
L 178.670527 -51.842057 
L 179.3011 -51.427886 
L 180.31645 -52.256229 
L 181.302744 -53.188114 
L 181.985274 -52.6704 
L 182.928174 -53.3952 
L 183.875622 -55.5696 
L 184.881446 -52.6704 
L 185.565192 -49.667657 
L 186.256348 -49.460571 
L 187.226258 -48.632229 
L 188.144377 -47.907429 
L 189.190942 -53.084571 
L 190.043097 -54.327086 
L 190.732382 -53.188114 
L 191.427839 -51.634971 
L 192.119807 -50.599543 
L 193.109212 -48.114514 
L 193.78049 -48.114514 
L 194.595009 -51.013714 
L 195.32683 -50.081829 
L 196.093739 -49.667657 
L 197.014753 -50.081829 
L 197.809773 -51.324343 
L 198.624853 -48.010971 
L 199.200527 -49.253486 
L 199.942513 -49.357029 
L 200.688018 -47.5968 
L 201.677394 -44.6976 
L 202.322747 -45.940114 
L 203.092686 -45.733029 
L 203.629285 -44.490514 
L 204.336121 -43.040914 
L 205.008788 -44.076343 
L 205.994547 -42.937371 
L 206.645361 -42.109029 
L 207.4205 -44.076343 
L 208.151769 -43.662171 
L 208.749607 -43.662171 
L 209.424119 -43.455086 
L 210.288873 -44.076343 
L 211.021499 -44.490514 
L 211.695992 -45.008229 
L 212.383115 -43.662171 
L 213.235768 -45.733029 
L 213.848455 -44.594057 
L 214.537873 -41.7984 
L 215.182815 -42.419657 
L 215.781367 -43.144457 
L 216.308059 -40.970057 
L 217.056428 -42.109029 
L 217.608571 -42.212571 
L 218.294649 -41.280686 
L 218.921025 -42.212571 
L 219.534528 -42.5232 
L 220.189833 -42.316114 
L 220.77709 -42.626743 
L 221.394373 -43.040914 
L 222.144083 -44.076343 
L 223.155303 -46.043657 
L 223.884472 -45.940114 
L 224.382268 -45.4224 
L 225.074482 -45.318857 
L 225.602924 -43.040914 
L 226.155088 -41.0736 
L 226.826236 -43.040914 
L 227.75323 -43.351543 
L 228.390903 -42.5232 
L 229.026691 -43.765714 
L 229.768104 -45.940114 
L 230.678546 -46.664914 
L 231.509639 -49.978286 
L 232.123827 -51.2208 
L 232.792121 -49.7712 
L 233.479336 -47.079086 
L 234.279233 -46.250743 
L 234.909983 -43.662171 
L 235.48155 -43.040914 
L 236.285366 -46.1472 
L 237.27455 -50.081829 
L 238.044625 -47.907429 
L 239.032391 -50.392457 
L 239.951376 -52.566857 
L 241.00373 -52.566857 
L 241.745331 -50.599543 
L 242.493055 -51.427886 
L 243.294919 -48.425143 
L 243.871843 -46.457829 
L 244.610791 -46.975543 
L 245.399654 -46.561371 
L 246.179239 -45.836571 
L 247.204889 -49.253486 
L 248.14067 -49.253486 
L 249.269926 -48.528686 
L 250.276578 -50.703086 
L 251.143055 -51.427886 
L 252.276359 -49.460571 
L 252.91778 -49.0464 
L 253.74559 -49.357029 
L 254.504027 -48.528686 
L 255.29925 -48.735771 
L 255.955715 -48.425143 
L 256.528057 -49.564114 
L 257.515522 -52.359771 
L 258.072668 -51.531429 
L 259.159725 -57.951086 
L 260.057653 -60.746743 
L 260.929849 -62.610514 
L 261.95152 -63.438857 
L 262.837323 -65.302629 
L 263.636931 -62.299886 
L 264.429352 -59.504229 
L 265.216841 -56.501486 
L 265.918151 -51.2208 
L 266.721778 -49.7712 
L 267.720243 -48.3216 
L 268.512513 -49.149943 
L 269.170981 -50.392457 
L 269.830499 -50.288914 
L 270.56404 -51.9456 
L 271.28023 -50.703086 
L 272.052827 -49.564114 
L 272.730617 -48.735771 
L 273.394719 -49.667657 
L 274.234223 -49.149943 
L 274.988108 -49.978286 
L 275.927269 -57.433371 
L 277.095869 -59.1936 
L 277.832155 -58.572343 
L 278.879817 -61.160914 
L 279.690117 -62.299886 
L 280.615683 -62.0928 
L 281.372877 -64.474286 
L 282.264285 -67.477029 
L 283.268839 -66.130971 
L 283.977566 -65.302629 
L 284.783037 -60.229029 
L 285.641745 -61.678629 
L 286.384642 -58.779429 
L 287.248688 -56.812114 
L 288.347869 -60.436114 
L 289.376938 -58.882971 
L 290.364511 -57.847543 
L 291.09458 -55.983771 
L 292.135811 -57.433371 
L 293.175758 -52.359771 
L 294.161934 -54.948343 
L 295.201556 -52.463314 
L 296.131249 -55.880229 
L 296.962179 -54.741257 
L 298.218245 -57.329829 
L 298.958514 -53.602286 
L 300.103285 -53.809371 
L 301.167134 -54.741257 
L 301.99874 -52.773943 
L 303.076767 -56.397943 
L 303.945755 -58.261714 
L 304.706853 -57.433371 
L 305.593771 -57.329829 
L 306.273845 -59.1936 
L 306.901321 -53.912914 
L 307.63201 -54.016457 
L 308.276285 -53.3952 
L 309.095119 -51.324343 
L 309.806523 -49.0464 
L 310.557895 -48.942857 
L 311.508046 -47.493257 
L 312.086101 -45.525943 
L 312.724482 -44.904686 
L 313.480364 -45.318857 
L 313.999633 -42.419657 
L 314.867046 -43.869257 
L 315.837384 -47.286171 
L 316.545066 -48.114514 
L 317.421535 -47.493257 
L 318.243611 -50.910171 
L 318.856375 -48.839314 
L 319.924062 -49.7712 
L 321.023226 -52.049143 
L 321.651538 -52.359771 
L 322.491027 -53.084571 
L 323.192966 -52.981029 
L 323.893972 -50.599543 
L 324.6545 -45.836571 
L 325.335916 -46.354286 
L 325.949265 -42.937371 
L 326.504696 -44.076343 
L 327.374713 -45.111771 
L 328.13499 -47.286171 
L 329.028403 -47.700343 
L 329.9264 -49.460571 
L 330.721137 -51.324343 
L 331.642284 -52.359771 
L 332.39684 -50.910171 
L 333.14447 -51.013714 
L 334.168988 -52.773943 
L 334.86087 -51.427886 
L 335.465825 -48.942857 
L 336.175595 -49.7712 
L 337.124295 -50.185371 
L 337.766917 -47.493257 
L 338.605111 -48.528686 
L 339.300238 -47.286171 
L 340.16929 -50.185371 
L 340.825291 -48.010971 
L 341.395458 -47.493257 
L 342.148711 -46.457829 
L 342.850127 -49.253486 
L 343.489335 -46.975543 
L 344.021071 -46.561371 
L 344.54199 -45.629486 
L 345.144324 -44.179886 
L 345.73184 -42.005486 
L 346.294001 -39.831086 
L 346.903344 -41.280686 
L 347.482129 -40.866514 
L 347.978942 -40.245257 
L 348.6054 -39.624 
L 349.245743 -39.727543 
L 350.114169 -40.3488 
L 350.653684 -41.487771 
L 351.49258 -42.730286 
L 352.595662 -43.351543 
L 353.282135 -43.455086 
L 354.046877 -45.836571 
L 354.904734 -45.4224 
L 356.020083 -46.250743 
L 356.743014 -47.182629 
L 357.188571 -47.182629 
L 357.720501 -43.765714 
L 358.407988 -43.662171 
L 359.089629 -44.283429 
L 359.583187 -42.833829 
L 360.39372 -45.008229 
L 361.00614 -46.768457 
L 361.865855 -52.152686 
L 362.602208 -53.3952 
L 363.521771 -59.607771 
L 364.493966 -65.302629 
L 365.209981 -66.027429 
L 366.022835 -66.130971 
L 366.633646 -64.784914 
L 367.390759 -60.436114 
L 368.113016 -56.915657 
L 368.861746 -57.640457 
L 369.701169 -57.329829 
L 370.455487 -57.536914 
L 371.259586 -59.090057 
L 371.887853 -57.0192 
L 372.456589 -54.016457 
L 373.27258 -53.291657 
L 374.109549 -58.054629 
L 375.242597 -61.782171 
L 376.138023 -66.338057 
L 377.194039 -72.861257 
L 378.169139 -72.343543 
L 378.961435 -70.272686 
L 380.10602 -67.994743 
L 380.957677 -65.923886 
L 381.594276 -58.572343 
L 382.446691 -57.536914 
L 383.286466 -54.016457 
L 384.463042 -52.981029 
L 385.369647 -51.842057 
L 386.101488 -53.291657 
L 387.102903 -54.637714 
L 387.931825 -55.776686 
L 388.8 -53.809371 
L 388.8 -96.054857 
L 388.8 -96.054857 
L 387.931825 -102.267429 
L 387.102903 -102.267429 
L 386.101488 -112.621714 
L 385.369647 -106.409143 
L 384.463042 -102.267429 
L 383.286466 -106.409143 
L 382.446691 -113.657143 
L 381.594276 -113.657143 
L 380.957677 -135.401143 
L 380.10602 -140.578286 
L 378.961435 -140.578286 
L 378.169139 -139.542857 
L 377.194039 -130.224 
L 376.138023 -114.692571 
L 375.242597 -105.373714 
L 374.109549 -96.054857 
L 373.27258 -87.771429 
L 372.456589 -97.090286 
L 371.887853 -103.302857 
L 371.259586 -113.657143 
L 370.455487 -112.621714 
L 369.701169 -112.621714 
L 368.861746 -111.586286 
L 368.113016 -118.834286 
L 367.390759 -118.834286 
L 366.633646 -131.259429 
L 366.022835 -130.224 
L 365.209981 -131.259429 
L 364.493966 -118.834286 
L 363.521771 -109.515429 
L 362.602208 -88.806857 
L 361.865855 -92.948571 
L 361.00614 -74.310857 
L 360.39372 -71.204571 
L 359.583187 -61.885714 
L 359.089629 -71.204571 
L 358.407988 -64.992 
L 357.720501 -64.992 
L 357.188571 -70.169143 
L 356.743014 -70.169143 
L 356.020083 -64.992 
L 354.904734 -64.992 
L 354.046877 -68.098286 
L 353.282135 -77.417143 
L 352.595662 -76.381714 
L 351.49258 -72.24 
L 350.653684 -68.098286 
L 350.114169 -63.956571 
L 349.245743 -53.602286 
L 348.6054 -54.637714 
L 347.978942 -59.814857 
L 347.482129 -58.779429 
L 346.903344 -59.814857 
L 346.294001 -52.566857 
L 345.73184 -57.744 
L 345.144324 -62.921143 
L 344.54199 -74.310857 
L 344.021071 -79.488 
L 343.489335 -80.523429 
L 342.850127 -96.054857 
L 342.148711 -85.700571 
L 341.395458 -91.913143 
L 340.825291 -98.125714 
L 340.16929 -115.728 
L 339.300238 -99.161143 
L 338.605111 -101.232 
L 337.766917 -89.842286 
L 337.124295 -97.090286 
L 336.175595 -83.629714 
L 335.465825 -84.665143 
L 334.86087 -100.196571 
L 334.168988 -111.586286 
L 333.14447 -108.48 
L 332.39684 -111.586286 
L 331.642284 -120.905143 
L 330.721137 -119.869714 
L 329.9264 -106.409143 
L 329.028403 -91.913143 
L 328.13499 -88.806857 
L 327.374713 -74.310857 
L 326.504696 -63.956571 
L 325.949265 -63.956571 
L 325.335916 -78.452571 
L 324.6545 -77.417143 
L 323.893972 -96.054857 
L 323.192966 -108.48 
L 322.491027 -105.373714 
L 321.651538 -108.48 
L 321.023226 -108.48 
L 319.924062 -100.196571 
L 318.856375 -100.196571 
L 318.243611 -116.763429 
L 317.421535 -98.125714 
L 316.545066 -105.373714 
L 315.837384 -100.196571 
L 314.867046 -81.558857 
L 313.999633 -68.098286 
L 313.480364 -80.523429 
L 312.724482 -73.275429 
L 312.086101 -86.736 
L 311.508046 -96.054857 
L 310.557895 -97.090286 
L 309.806523 -93.984 
L 309.095119 -101.232 
L 308.276285 -101.232 
L 307.63201 -100.196571 
L 306.901321 -102.267429 
L 306.273845 -119.869714 
L 305.593771 -119.869714 
L 304.706853 -115.728 
L 303.945755 -124.011429 
L 303.076767 -120.905143 
L 301.99874 -107.444571 
L 301.167134 -111.586286 
L 300.103285 -112.621714 
L 298.958514 -104.338286 
L 298.218245 -117.798857 
L 296.962179 -120.905143 
L 296.131249 -115.728 
L 295.201556 -100.196571 
L 294.161934 -110.550857 
L 293.175758 -105.373714 
L 292.135811 -105.373714 
L 291.09458 -103.302857 
L 290.364511 -109.515429 
L 289.376938 -109.515429 
L 288.347869 -114.692571 
L 287.248688 -106.409143 
L 286.384642 -116.763429 
L 285.641745 -129.188571 
L 284.783037 -129.188571 
L 283.977566 -129.188571 
L 283.268839 -129.188571 
L 282.264285 -137.472 
L 281.372877 -127.117714 
L 280.615683 -124.011429 
L 279.690117 -124.011429 
L 278.879817 -124.011429 
L 277.832155 -105.373714 
L 277.095869 -105.373714 
L 275.927269 -98.125714 
L 274.988108 -85.700571 
L 274.234223 -85.700571 
L 273.394719 -96.054857 
L 272.730617 -92.948571 
L 272.052827 -91.913143 
L 271.28023 -93.984 
L 270.56404 -104.338286 
L 269.830499 -93.984 
L 269.170981 -97.090286 
L 268.512513 -90.877714 
L 267.720243 -87.771429 
L 266.721778 -99.161143 
L 265.918151 -109.515429 
L 265.216841 -121.940571 
L 264.429352 -133.330286 
L 263.636931 -146.790857 
L 262.837323 -135.401143 
L 261.95152 -121.940571 
L 260.929849 -119.869714 
L 260.057653 -112.621714 
L 259.159725 -100.196571 
L 258.072668 -87.771429 
L 257.515522 -90.877714 
L 256.528057 -80.523429 
L 255.955715 -76.381714 
L 255.29925 -75.346286 
L 254.504027 -77.417143 
L 253.74559 -87.771429 
L 252.91778 -97.090286 
L 252.276359 -100.196571 
L 251.143055 -113.657143 
L 250.276578 -109.515429 
L 249.269926 -96.054857 
L 248.14067 -89.842286 
L 247.204889 -90.877714 
L 246.179239 -77.417143 
L 245.399654 -78.452571 
L 244.610791 -90.877714 
L 243.871843 -92.948571 
L 243.294919 -105.373714 
L 242.493055 -118.834286 
L 241.745331 -116.763429 
L 241.00373 -117.798857 
L 239.951376 -121.940571 
L 239.032391 -106.409143 
L 238.044625 -93.984 
L 237.27455 -109.515429 
L 236.285366 -91.913143 
L 235.48155 -73.275429 
L 234.909983 -79.488 
L 234.279233 -93.984 
L 233.479336 -92.948571 
L 232.792121 -102.267429 
L 232.123827 -111.586286 
L 231.509639 -103.302857 
L 230.678546 -82.594286 
L 229.768104 -76.381714 
L 229.026691 -69.133714 
L 228.390903 -61.885714 
L 227.75323 -70.169143 
L 226.826236 -70.169143 
L 226.155088 -63.956571 
L 225.602924 -72.24 
L 225.074482 -79.488 
L 224.382268 -75.346286 
L 223.884472 -76.381714 
L 223.155303 -75.346286 
L 222.144083 -63.956571 
L 221.394373 -60.850286 
L 220.77709 -60.850286 
L 220.189833 -59.814857 
L 219.534528 -59.814857 
L 218.921025 -60.850286 
L 218.294649 -62.921143 
L 217.608571 -70.169143 
L 217.056428 -69.133714 
L 216.308059 -67.062857 
L 215.781367 -76.381714 
L 215.182815 -69.133714 
L 214.537873 -62.921143 
L 213.848455 -75.346286 
L 213.235768 -78.452571 
L 212.383115 -72.24 
L 211.695992 -78.452571 
L 211.021499 -76.381714 
L 210.288873 -76.381714 
L 209.424119 -77.417143 
L 208.749607 -81.558857 
L 208.151769 -78.452571 
L 207.4205 -83.629714 
L 206.645361 -76.381714 
L 205.994547 -76.381714 
L 205.008788 -75.346286 
L 204.336121 -75.346286 
L 203.629285 -81.558857 
L 203.092686 -84.665143 
L 202.322747 -87.771429 
L 201.677394 -81.558857 
L 200.688018 -86.736 
L 199.942513 -90.877714 
L 199.200527 -89.842286 
L 198.624853 -80.523429 
L 197.809773 -97.090286 
L 197.014753 -93.984 
L 196.093739 -93.984 
L 195.32683 -92.948571 
L 194.595009 -101.232 
L 193.78049 -87.771429 
L 193.109212 -93.984 
L 192.119807 -92.948571 
L 191.427839 -97.090286 
L 190.732382 -107.444571 
L 190.043097 -109.515429 
L 189.190942 -102.267429 
L 188.144377 -92.948571 
L 187.226258 -99.161143 
L 186.256348 -99.161143 
L 185.565192 -101.232 
L 184.881446 -115.728 
L 183.875622 -124.011429 
L 182.928174 -114.692571 
L 181.985274 -104.338286 
L 181.302744 -104.338286 
L 180.31645 -93.984 
L 179.3011 -95.019429 
L 178.670527 -97.090286 
L 177.823876 -87.771429 
L 176.660749 -84.665143 
L 175.917898 -84.665143 
L 175.125683 -67.062857 
L 174.284013 -63.956571 
L 173.43866 -83.629714 
L 172.392462 -84.665143 
L 171.527432 -84.665143 
L 170.740506 -88.806857 
L 169.965215 -102.267429 
L 169.125432 -102.267429 
L 168.475382 -102.267429 
L 167.856659 -112.621714 
L 167.068363 -127.117714 
L 166.156182 -117.798857 
L 165.294649 -109.515429 
L 164.577545 -112.621714 
L 163.51058 -98.125714 
L 162.541798 -90.877714 
L 161.681381 -85.700571 
L 160.889561 -93.984 
L 160.101805 -100.196571 
L 159.533751 -101.232 
L 158.807098 -98.125714 
L 158.166329 -112.621714 
L 157.341943 -102.267429 
L 156.513083 -98.125714 
L 155.902468 -98.125714 
L 155.150957 -118.834286 
L 154.426034 -105.373714 
L 153.569732 -103.302857 
L 152.722461 -109.515429 
L 151.594542 -122.976 
L 150.56406 -105.373714 
L 149.859758 -113.657143 
L 149.258016 -109.515429 
L 148.402765 -96.054857 
L 147.540084 -107.444571 
L 146.715966 -96.054857 
L 145.575633 -85.700571 
L 144.777002 -104.338286 
L 144.160653 -108.48 
L 143.094588 -83.629714 
L 142.084127 -104.338286 
L 141.515903 -117.798857 
L 140.688647 -105.373714 
L 139.999212 -110.550857 
L 139.448471 -114.692571 
L 138.721981 -95.019429 
L 137.928232 -99.161143 
L 137.021723 -99.161143 
L 136.101109 -112.621714 
L 135.305157 -115.728 
L 134.826685 -115.728 
L 133.969448 -101.232 
L 133.238701 -119.869714 
L 132.430936 -101.232 
L 131.402858 -98.125714 
L 130.7074 -116.763429 
L 130.113722 -109.515429 
L 129.395494 -84.665143 
L 128.768014 -86.736 
L 127.972694 -96.054857 
L 123.017179 -80.523429 
L 122.407789 -84.665143 
L 121.449239 -82.594286 
L 120.767875 -77.417143 
L 119.958669 -58.779429 
L 119.35657 -66.027429 
L 118.650643 -92.948571 
L 117.881483 -92.948571 
L 117.291299 -89.842286 
L 115.903515 -90.877714 
L 115.128617 -85.700571 
L 114.293095 -55.673143 
L 113.637902 -56.708571 
L 112.807201 -61.885714 
L 112.340352 -67.062857 
L 111.613544 -64.992 
L 111.151183 -67.062857 
L 110.430256 -64.992 
L 109.805353 -66.027429 
L 109.060435 -72.24 
L 108.539515 -68.098286 
L 107.343447 -67.062857 
L 106.765826 -73.275429 
L 106.185977 -66.027429 
L 105.40801 -61.885714 
L 104.734439 -67.062857 
L 104.193915 -71.204571 
L 103.59819 -72.24 
L 103.052177 -72.24 
L 102.320642 -84.665143 
L 101.660922 -98.125714 
L 100.715204 -99.161143 
L 100.074295 -100.196571 
L 99.62462 -101.232 
L 98.716598 -86.736 
L 98.001853 -76.381714 
L 97.388153 -70.169143 
L 96.813732 -66.027429 
L 96.31787 -63.956571 
L 95.572251 -69.133714 
L 94.975161 -59.814857 
L 94.498829 -58.779429 
L 93.855652 -55.673143 
L 93.294889 -54.637714 
L 92.633197 -43.248 
L 92.147333 -43.248 
L 91.630967 -43.248 
L 91.172666 -43.248 
L 90.717492 -44.283429 
L 90.275981 -43.248 
L 89.822973 -44.283429 
L 89.220165 -45.318857 
L 88.765568 -45.318857 
L 88.321589 -44.283429 
L 87.879772 -44.283429 
L 87.436674 -43.248 
L 86.983096 -43.248 
L 86.524694 -71.204571 
L 86.090457 -71.204571 
L 85.6601 -71.204571 
L 85.133715 -74.310857 
L 84.504617 -76.381714 
L 83.815023 -47.389714 
L 83.055851 -53.602286 
L 82.544546 -53.602286 
L 82.027537 -50.496 
L 81.3806 -48.425143 
L 80.872302 -48.425143 
L 80.189076 -45.318857 
L 79.273661 -45.318857 
L 78.377268 -46.354286 
L 77.863243 -45.318857 
L 77.212215 -46.354286 
L 76.636862 -44.283429 
L 75.967812 -58.779429 
L 75.300412 -72.24 
L 74.552609 -72.24 
L 74.053976 -71.204571 
L 73.153286 -71.204571 
L 72.389125 -76.381714 
L 71.700379 -62.921143 
L 71.084953 -78.452571 
L 70.368742 -78.452571 
L 69.714172 -83.629714 
L 68.819922 -81.558857 
L 67.964365 -93.984 
L 66.816251 -90.877714 
L 65.893205 -90.877714 
L 65.220843 -84.665143 
L 64.286109 -68.098286 
L 63.516734 -55.673143 
L 62.884756 -43.248 
L 62.445935 -42.212571 
L 62.017279 -42.212571 
L 61.557097 -41.177143 
L 61.079307 -40.141714 
L 60.556639 -40.141714 
L 59.921111 -42.212571 
L 59.460348 -42.212571 
z
" id="m482a31afa2" style="stroke:#b60156;"/>
    </defs>
    <g clip-path="url(#pedccc2ef57)">
     <use style="fill:#b60156;stroke:#b60156;" x="0" xlink:href="#m482a31afa2" y="288"/>
    </g>
   </g>
   <g id="PolyCollection_2">
    <defs>
     <path d="M 59.460348 -36.931886 
L 59.460348 -36 
L 59.921111 -36 
L 60.556639 -36 
L 61.079307 -36 
L 61.557097 -36 
L 62.017279 -36 
L 62.445935 -36 
L 62.884756 -36 
L 63.516734 -36 
L 64.286109 -36 
L 65.220843 -36 
L 65.893205 -36 
L 66.816251 -36 
L 67.964365 -36 
L 68.819922 -36 
L 69.714172 -36 
L 70.368742 -36 
L 71.084953 -36 
L 71.700379 -36 
L 72.389125 -36 
L 73.153286 -36 
L 74.053976 -36 
L 74.552609 -36 
L 75.300412 -36 
L 75.967812 -36 
L 76.636862 -36 
L 77.212215 -36 
L 77.863243 -36 
L 78.377268 -36 
L 79.273661 -36 
L 80.189076 -36 
L 80.872302 -36 
L 81.3806 -36 
L 82.027537 -36 
L 82.544546 -36 
L 83.055851 -36 
L 83.815023 -36 
L 84.504617 -36 
L 85.133715 -36 
L 85.6601 -36 
L 86.090457 -36 
L 86.524694 -36 
L 86.983096 -36 
L 87.436674 -36 
L 87.879772 -36 
L 88.321589 -36 
L 88.765568 -36 
L 89.220165 -36 
L 89.822973 -36 
L 90.275981 -36 
L 90.717492 -36 
L 91.172666 -36 
L 91.630967 -36 
L 92.147333 -36 
L 92.633197 -36 
L 93.294889 -36 
L 93.855652 -36 
L 94.498829 -36 
L 94.975161 -36 
L 95.572251 -36 
L 96.31787 -36 
L 96.813732 -36 
L 97.388153 -36 
L 98.001853 -36 
L 98.716598 -36 
L 99.62462 -36 
L 100.074295 -36 
L 100.715204 -36 
L 101.660922 -36 
L 102.320642 -36 
L 103.052177 -36 
L 103.59819 -36 
L 104.193915 -36 
L 104.734439 -36 
L 105.40801 -36 
L 106.185977 -36 
L 106.765826 -36 
L 107.343447 -36 
L 108.539515 -36 
L 109.060435 -36 
L 109.805353 -36 
L 110.430256 -36 
L 111.151183 -36 
L 111.613544 -36 
L 112.340352 -36 
L 112.807201 -36 
L 113.637902 -36 
L 114.293095 -36 
L 115.128617 -36 
L 115.903515 -36 
L 117.291299 -36 
L 117.881483 -36 
L 118.650643 -36 
L 119.35657 -36 
L 119.958669 -36 
L 120.767875 -36 
L 121.449239 -36 
L 122.407789 -36 
L 123.017179 -36 
L 127.972694 -36 
L 128.768014 -36 
L 129.395494 -36 
L 130.113722 -36 
L 130.7074 -36 
L 131.402858 -36 
L 132.430936 -36 
L 133.238701 -36 
L 133.969448 -36 
L 134.826685 -36 
L 135.305157 -36 
L 136.101109 -36 
L 137.021723 -36 
L 137.928232 -36 
L 138.721981 -36 
L 139.448471 -36 
L 139.999212 -36 
L 140.688647 -36 
L 141.515903 -36 
L 142.084127 -36 
L 143.094588 -36 
L 144.160653 -36 
L 144.777002 -36 
L 145.575633 -36 
L 146.715966 -36 
L 147.540084 -36 
L 148.402765 -36 
L 149.258016 -36 
L 149.859758 -36 
L 150.56406 -36 
L 151.594542 -36 
L 152.722461 -36 
L 153.569732 -36 
L 154.426034 -36 
L 155.150957 -36 
L 155.902468 -36 
L 156.513083 -36 
L 157.341943 -36 
L 158.166329 -36 
L 158.807098 -36 
L 159.533751 -36 
L 160.101805 -36 
L 160.889561 -36 
L 161.681381 -36 
L 162.541798 -36 
L 163.51058 -36 
L 164.577545 -36 
L 165.294649 -36 
L 166.156182 -36 
L 167.068363 -36 
L 167.856659 -36 
L 168.475382 -36 
L 169.125432 -36 
L 169.965215 -36 
L 170.740506 -36 
L 171.527432 -36 
L 172.392462 -36 
L 173.43866 -36 
L 174.284013 -36 
L 175.125683 -36 
L 175.917898 -36 
L 176.660749 -36 
L 177.823876 -36 
L 178.670527 -36 
L 179.3011 -36 
L 180.31645 -36 
L 181.302744 -36 
L 181.985274 -36 
L 182.928174 -36 
L 183.875622 -36 
L 184.881446 -36 
L 185.565192 -36 
L 186.256348 -36 
L 187.226258 -36 
L 188.144377 -36 
L 189.190942 -36 
L 190.043097 -36 
L 190.732382 -36 
L 191.427839 -36 
L 192.119807 -36 
L 193.109212 -36 
L 193.78049 -36 
L 194.595009 -36 
L 195.32683 -36 
L 196.093739 -36 
L 197.014753 -36 
L 197.809773 -36 
L 198.624853 -36 
L 199.200527 -36 
L 199.942513 -36 
L 200.688018 -36 
L 201.677394 -36 
L 202.322747 -36 
L 203.092686 -36 
L 203.629285 -36 
L 204.336121 -36 
L 205.008788 -36 
L 205.994547 -36 
L 206.645361 -36 
L 207.4205 -36 
L 208.151769 -36 
L 208.749607 -36 
L 209.424119 -36 
L 210.288873 -36 
L 211.021499 -36 
L 211.695992 -36 
L 212.383115 -36 
L 213.235768 -36 
L 213.848455 -36 
L 214.537873 -36 
L 215.182815 -36 
L 215.781367 -36 
L 216.308059 -36 
L 217.056428 -36 
L 217.608571 -36 
L 218.294649 -36 
L 218.921025 -36 
L 219.534528 -36 
L 220.189833 -36 
L 220.77709 -36 
L 221.394373 -36 
L 222.144083 -36 
L 223.155303 -36 
L 223.884472 -36 
L 224.382268 -36 
L 225.074482 -36 
L 225.602924 -36 
L 226.155088 -36 
L 226.826236 -36 
L 227.75323 -36 
L 228.390903 -36 
L 229.026691 -36 
L 229.768104 -36 
L 230.678546 -36 
L 231.509639 -36 
L 232.123827 -36 
L 232.792121 -36 
L 233.479336 -36 
L 234.279233 -36 
L 234.909983 -36 
L 235.48155 -36 
L 236.285366 -36 
L 237.27455 -36 
L 238.044625 -36 
L 239.032391 -36 
L 239.951376 -36 
L 241.00373 -36 
L 241.745331 -36 
L 242.493055 -36 
L 243.294919 -36 
L 243.871843 -36 
L 244.610791 -36 
L 245.399654 -36 
L 246.179239 -36 
L 247.204889 -36 
L 248.14067 -36 
L 249.269926 -36 
L 250.276578 -36 
L 251.143055 -36 
L 252.276359 -36 
L 252.91778 -36 
L 253.74559 -36 
L 254.504027 -36 
L 255.29925 -36 
L 255.955715 -36 
L 256.528057 -36 
L 257.515522 -36 
L 258.072668 -36 
L 259.159725 -36 
L 260.057653 -36 
L 260.929849 -36 
L 261.95152 -36 
L 262.837323 -36 
L 263.636931 -36 
L 264.429352 -36 
L 265.216841 -36 
L 265.918151 -36 
L 266.721778 -36 
L 267.720243 -36 
L 268.512513 -36 
L 269.170981 -36 
L 269.830499 -36 
L 270.56404 -36 
L 271.28023 -36 
L 272.052827 -36 
L 272.730617 -36 
L 273.394719 -36 
L 274.234223 -36 
L 274.988108 -36 
L 275.927269 -36 
L 277.095869 -36 
L 277.832155 -36 
L 278.879817 -36 
L 279.690117 -36 
L 280.615683 -36 
L 281.372877 -36 
L 282.264285 -36 
L 283.268839 -36 
L 283.977566 -36 
L 284.783037 -36 
L 285.641745 -36 
L 286.384642 -36 
L 287.248688 -36 
L 288.347869 -36 
L 289.376938 -36 
L 290.364511 -36 
L 291.09458 -36 
L 292.135811 -36 
L 293.175758 -36 
L 294.161934 -36 
L 295.201556 -36 
L 296.131249 -36 
L 296.962179 -36 
L 298.218245 -36 
L 298.958514 -36 
L 300.103285 -36 
L 301.167134 -36 
L 301.99874 -36 
L 303.076767 -36 
L 303.945755 -36 
L 304.706853 -36 
L 305.593771 -36 
L 306.273845 -36 
L 306.901321 -36 
L 307.63201 -36 
L 308.276285 -36 
L 309.095119 -36 
L 309.806523 -36 
L 310.557895 -36 
L 311.508046 -36 
L 312.086101 -36 
L 312.724482 -36 
L 313.480364 -36 
L 313.999633 -36 
L 314.867046 -36 
L 315.837384 -36 
L 316.545066 -36 
L 317.421535 -36 
L 318.243611 -36 
L 318.856375 -36 
L 319.924062 -36 
L 321.023226 -36 
L 321.651538 -36 
L 322.491027 -36 
L 323.192966 -36 
L 323.893972 -36 
L 324.6545 -36 
L 325.335916 -36 
L 325.949265 -36 
L 326.504696 -36 
L 327.374713 -36 
L 328.13499 -36 
L 329.028403 -36 
L 329.9264 -36 
L 330.721137 -36 
L 331.642284 -36 
L 332.39684 -36 
L 333.14447 -36 
L 334.168988 -36 
L 334.86087 -36 
L 335.465825 -36 
L 336.175595 -36 
L 337.124295 -36 
L 337.766917 -36 
L 338.605111 -36 
L 339.300238 -36 
L 340.16929 -36 
L 340.825291 -36 
L 341.395458 -36 
L 342.148711 -36 
L 342.850127 -36 
L 343.489335 -36 
L 344.021071 -36 
L 344.54199 -36 
L 345.144324 -36 
L 345.73184 -36 
L 346.294001 -36 
L 346.903344 -36 
L 347.482129 -36 
L 347.978942 -36 
L 348.6054 -36 
L 349.245743 -36 
L 350.114169 -36 
L 350.653684 -36 
L 351.49258 -36 
L 352.595662 -36 
L 353.282135 -36 
L 354.046877 -36 
L 354.904734 -36 
L 356.020083 -36 
L 356.743014 -36 
L 357.188571 -36 
L 357.720501 -36 
L 358.407988 -36 
L 359.089629 -36 
L 359.583187 -36 
L 360.39372 -36 
L 361.00614 -36 
L 361.865855 -36 
L 362.602208 -36 
L 363.521771 -36 
L 364.493966 -36 
L 365.209981 -36 
L 366.022835 -36 
L 366.633646 -36 
L 367.390759 -36 
L 368.113016 -36 
L 368.861746 -36 
L 369.701169 -36 
L 370.455487 -36 
L 371.259586 -36 
L 371.887853 -36 
L 372.456589 -36 
L 373.27258 -36 
L 374.109549 -36 
L 375.242597 -36 
L 376.138023 -36 
L 377.194039 -36 
L 378.169139 -36 
L 378.961435 -36 
L 380.10602 -36 
L 380.957677 -36 
L 381.594276 -36 
L 382.446691 -36 
L 383.286466 -36 
L 384.463042 -36 
L 385.369647 -36 
L 386.101488 -36 
L 387.102903 -36 
L 387.931825 -36 
L 388.8 -36 
L 388.8 -53.809371 
L 388.8 -53.809371 
L 387.931825 -55.776686 
L 387.102903 -54.637714 
L 386.101488 -53.291657 
L 385.369647 -51.842057 
L 384.463042 -52.981029 
L 383.286466 -54.016457 
L 382.446691 -57.536914 
L 381.594276 -58.572343 
L 380.957677 -65.923886 
L 380.10602 -67.994743 
L 378.961435 -70.272686 
L 378.169139 -72.343543 
L 377.194039 -72.861257 
L 376.138023 -66.338057 
L 375.242597 -61.782171 
L 374.109549 -58.054629 
L 373.27258 -53.291657 
L 372.456589 -54.016457 
L 371.887853 -57.0192 
L 371.259586 -59.090057 
L 370.455487 -57.536914 
L 369.701169 -57.329829 
L 368.861746 -57.640457 
L 368.113016 -56.915657 
L 367.390759 -60.436114 
L 366.633646 -64.784914 
L 366.022835 -66.130971 
L 365.209981 -66.027429 
L 364.493966 -65.302629 
L 363.521771 -59.607771 
L 362.602208 -53.3952 
L 361.865855 -52.152686 
L 361.00614 -46.768457 
L 360.39372 -45.008229 
L 359.583187 -42.833829 
L 359.089629 -44.283429 
L 358.407988 -43.662171 
L 357.720501 -43.765714 
L 357.188571 -47.182629 
L 356.743014 -47.182629 
L 356.020083 -46.250743 
L 354.904734 -45.4224 
L 354.046877 -45.836571 
L 353.282135 -43.455086 
L 352.595662 -43.351543 
L 351.49258 -42.730286 
L 350.653684 -41.487771 
L 350.114169 -40.3488 
L 349.245743 -39.727543 
L 348.6054 -39.624 
L 347.978942 -40.245257 
L 347.482129 -40.866514 
L 346.903344 -41.280686 
L 346.294001 -39.831086 
L 345.73184 -42.005486 
L 345.144324 -44.179886 
L 344.54199 -45.629486 
L 344.021071 -46.561371 
L 343.489335 -46.975543 
L 342.850127 -49.253486 
L 342.148711 -46.457829 
L 341.395458 -47.493257 
L 340.825291 -48.010971 
L 340.16929 -50.185371 
L 339.300238 -47.286171 
L 338.605111 -48.528686 
L 337.766917 -47.493257 
L 337.124295 -50.185371 
L 336.175595 -49.7712 
L 335.465825 -48.942857 
L 334.86087 -51.427886 
L 334.168988 -52.773943 
L 333.14447 -51.013714 
L 332.39684 -50.910171 
L 331.642284 -52.359771 
L 330.721137 -51.324343 
L 329.9264 -49.460571 
L 329.028403 -47.700343 
L 328.13499 -47.286171 
L 327.374713 -45.111771 
L 326.504696 -44.076343 
L 325.949265 -42.937371 
L 325.335916 -46.354286 
L 324.6545 -45.836571 
L 323.893972 -50.599543 
L 323.192966 -52.981029 
L 322.491027 -53.084571 
L 321.651538 -52.359771 
L 321.023226 -52.049143 
L 319.924062 -49.7712 
L 318.856375 -48.839314 
L 318.243611 -50.910171 
L 317.421535 -47.493257 
L 316.545066 -48.114514 
L 315.837384 -47.286171 
L 314.867046 -43.869257 
L 313.999633 -42.419657 
L 313.480364 -45.318857 
L 312.724482 -44.904686 
L 312.086101 -45.525943 
L 311.508046 -47.493257 
L 310.557895 -48.942857 
L 309.806523 -49.0464 
L 309.095119 -51.324343 
L 308.276285 -53.3952 
L 307.63201 -54.016457 
L 306.901321 -53.912914 
L 306.273845 -59.1936 
L 305.593771 -57.329829 
L 304.706853 -57.433371 
L 303.945755 -58.261714 
L 303.076767 -56.397943 
L 301.99874 -52.773943 
L 301.167134 -54.741257 
L 300.103285 -53.809371 
L 298.958514 -53.602286 
L 298.218245 -57.329829 
L 296.962179 -54.741257 
L 296.131249 -55.880229 
L 295.201556 -52.463314 
L 294.161934 -54.948343 
L 293.175758 -52.359771 
L 292.135811 -57.433371 
L 291.09458 -55.983771 
L 290.364511 -57.847543 
L 289.376938 -58.882971 
L 288.347869 -60.436114 
L 287.248688 -56.812114 
L 286.384642 -58.779429 
L 285.641745 -61.678629 
L 284.783037 -60.229029 
L 283.977566 -65.302629 
L 283.268839 -66.130971 
L 282.264285 -67.477029 
L 281.372877 -64.474286 
L 280.615683 -62.0928 
L 279.690117 -62.299886 
L 278.879817 -61.160914 
L 277.832155 -58.572343 
L 277.095869 -59.1936 
L 275.927269 -57.433371 
L 274.988108 -49.978286 
L 274.234223 -49.149943 
L 273.394719 -49.667657 
L 272.730617 -48.735771 
L 272.052827 -49.564114 
L 271.28023 -50.703086 
L 270.56404 -51.9456 
L 269.830499 -50.288914 
L 269.170981 -50.392457 
L 268.512513 -49.149943 
L 267.720243 -48.3216 
L 266.721778 -49.7712 
L 265.918151 -51.2208 
L 265.216841 -56.501486 
L 264.429352 -59.504229 
L 263.636931 -62.299886 
L 262.837323 -65.302629 
L 261.95152 -63.438857 
L 260.929849 -62.610514 
L 260.057653 -60.746743 
L 259.159725 -57.951086 
L 258.072668 -51.531429 
L 257.515522 -52.359771 
L 256.528057 -49.564114 
L 255.955715 -48.425143 
L 255.29925 -48.735771 
L 254.504027 -48.528686 
L 253.74559 -49.357029 
L 252.91778 -49.0464 
L 252.276359 -49.460571 
L 251.143055 -51.427886 
L 250.276578 -50.703086 
L 249.269926 -48.528686 
L 248.14067 -49.253486 
L 247.204889 -49.253486 
L 246.179239 -45.836571 
L 245.399654 -46.561371 
L 244.610791 -46.975543 
L 243.871843 -46.457829 
L 243.294919 -48.425143 
L 242.493055 -51.427886 
L 241.745331 -50.599543 
L 241.00373 -52.566857 
L 239.951376 -52.566857 
L 239.032391 -50.392457 
L 238.044625 -47.907429 
L 237.27455 -50.081829 
L 236.285366 -46.1472 
L 235.48155 -43.040914 
L 234.909983 -43.662171 
L 234.279233 -46.250743 
L 233.479336 -47.079086 
L 232.792121 -49.7712 
L 232.123827 -51.2208 
L 231.509639 -49.978286 
L 230.678546 -46.664914 
L 229.768104 -45.940114 
L 229.026691 -43.765714 
L 228.390903 -42.5232 
L 227.75323 -43.351543 
L 226.826236 -43.040914 
L 226.155088 -41.0736 
L 225.602924 -43.040914 
L 225.074482 -45.318857 
L 224.382268 -45.4224 
L 223.884472 -45.940114 
L 223.155303 -46.043657 
L 222.144083 -44.076343 
L 221.394373 -43.040914 
L 220.77709 -42.626743 
L 220.189833 -42.316114 
L 219.534528 -42.5232 
L 218.921025 -42.212571 
L 218.294649 -41.280686 
L 217.608571 -42.212571 
L 217.056428 -42.109029 
L 216.308059 -40.970057 
L 215.781367 -43.144457 
L 215.182815 -42.419657 
L 214.537873 -41.7984 
L 213.848455 -44.594057 
L 213.235768 -45.733029 
L 212.383115 -43.662171 
L 211.695992 -45.008229 
L 211.021499 -44.490514 
L 210.288873 -44.076343 
L 209.424119 -43.455086 
L 208.749607 -43.662171 
L 208.151769 -43.662171 
L 207.4205 -44.076343 
L 206.645361 -42.109029 
L 205.994547 -42.937371 
L 205.008788 -44.076343 
L 204.336121 -43.040914 
L 203.629285 -44.490514 
L 203.092686 -45.733029 
L 202.322747 -45.940114 
L 201.677394 -44.6976 
L 200.688018 -47.5968 
L 199.942513 -49.357029 
L 199.200527 -49.253486 
L 198.624853 -48.010971 
L 197.809773 -51.324343 
L 197.014753 -50.081829 
L 196.093739 -49.667657 
L 195.32683 -50.081829 
L 194.595009 -51.013714 
L 193.78049 -48.114514 
L 193.109212 -48.114514 
L 192.119807 -50.599543 
L 191.427839 -51.634971 
L 190.732382 -53.188114 
L 190.043097 -54.327086 
L 189.190942 -53.084571 
L 188.144377 -47.907429 
L 187.226258 -48.632229 
L 186.256348 -49.460571 
L 185.565192 -49.667657 
L 184.881446 -52.6704 
L 183.875622 -55.5696 
L 182.928174 -53.3952 
L 181.985274 -52.6704 
L 181.302744 -53.188114 
L 180.31645 -52.256229 
L 179.3011 -51.427886 
L 178.670527 -51.842057 
L 177.823876 -48.632229 
L 176.660749 -46.768457 
L 175.917898 -45.318857 
L 175.125683 -42.316114 
L 174.284013 -41.280686 
L 173.43866 -43.248 
L 172.392462 -43.9728 
L 171.527432 -43.662171 
L 170.740506 -43.9728 
L 169.965215 -49.253486 
L 169.125432 -53.602286 
L 168.475382 -53.084571 
L 167.856659 -57.433371 
L 167.068363 -61.885714 
L 166.156182 -58.158171 
L 165.294649 -55.155429 
L 164.577545 -58.4688 
L 163.51058 -54.223543 
L 162.541798 -52.981029 
L 161.681381 -51.842057 
L 160.889561 -53.705829 
L 160.101805 -55.673143 
L 159.533751 -55.880229 
L 158.807098 -54.948343 
L 158.166329 -57.329829 
L 157.341943 -53.602286 
L 156.513083 -50.910171 
L 155.902468 -51.117257 
L 155.150957 -54.637714 
L 154.426034 -52.463314 
L 153.569732 -52.463314 
L 152.722461 -53.291657 
L 151.594542 -55.5696 
L 150.56406 -52.463314 
L 149.859758 -53.498743 
L 149.258016 -53.188114 
L 148.402765 -49.357029 
L 147.540084 -49.149943 
L 146.715966 -46.561371 
L 145.575633 -44.904686 
L 144.777002 -49.874743 
L 144.160653 -51.738514 
L 143.094588 -49.357029 
L 142.084127 -51.324343 
L 141.515903 -53.291657 
L 140.688647 -51.013714 
L 139.999212 -50.599543 
L 139.448471 -52.877486 
L 138.721981 -50.910171 
L 137.928232 -56.087314 
L 137.021723 -55.155429 
L 136.101109 -58.675886 
L 135.305157 -58.882971 
L 134.826685 -58.882971 
L 133.969448 -53.291657 
L 133.238701 -53.188114 
L 132.430936 -48.942857 
L 131.402858 -47.5968 
L 130.7074 -50.910171 
L 130.113722 -48.425143 
L 129.395494 -46.872 
L 128.768014 -46.768457 
L 127.972694 -48.218057 
L 123.017179 -45.111771 
L 122.407789 -46.354286 
L 121.449239 -45.940114 
L 120.767875 -46.1472 
L 119.958669 -42.833829 
L 119.35657 -45.008229 
L 118.650643 -49.357029 
L 117.881483 -48.942857 
L 117.291299 -48.528686 
L 115.903515 -48.528686 
L 115.128617 -47.286171 
L 114.293095 -42.212571 
L 113.637902 -42.730286 
L 112.807201 -43.455086 
L 112.340352 -45.318857 
L 111.613544 -44.283429 
L 111.151183 -44.179886 
L 110.430256 -43.351543 
L 109.805353 -42.316114 
L 109.060435 -42.316114 
L 108.539515 -41.901943 
L 107.343447 -41.901943 
L 106.765826 -42.419657 
L 106.185977 -42.005486 
L 105.40801 -41.591314 
L 104.734439 -42.109029 
L 104.193915 -42.626743 
L 103.59819 -42.730286 
L 103.052177 -42.5232 
L 102.320642 -43.351543 
L 101.660922 -44.801143 
L 100.715204 -44.6976 
L 100.074295 -44.801143 
L 99.62462 -45.215314 
L 98.716598 -43.351543 
L 98.001853 -42.212571 
L 97.388153 -41.901943 
L 96.813732 -41.901943 
L 96.31787 -41.177143 
L 95.572251 -41.487771 
L 94.975161 -40.3488 
L 94.498829 -39.727543 
L 93.855652 -39.520457 
L 93.294889 -39.520457 
L 92.633197 -38.795657 
L 92.147333 -38.588571 
L 91.630967 -38.588571 
L 91.172666 -38.1744 
L 90.717492 -38.070857 
L 90.275981 -37.863771 
L 89.822973 -38.381486 
L 89.220165 -38.588571 
L 88.765568 -38.277943 
L 88.321589 -38.381486 
L 87.879772 -38.1744 
L 87.436674 -37.863771 
L 86.983096 -37.863771 
L 86.524694 -41.591314 
L 86.090457 -41.694857 
L 85.6601 -41.487771 
L 85.133715 -41.901943 
L 84.504617 -42.109029 
L 83.815023 -38.381486 
L 83.055851 -39.002743 
L 82.544546 -38.8992 
L 82.027537 -38.381486 
L 81.3806 -38.1744 
L 80.872302 -38.070857 
L 80.189076 -37.967314 
L 79.273661 -38.070857 
L 78.377268 -38.485029 
L 77.863243 -38.277943 
L 77.212215 -38.692114 
L 76.636862 -38.070857 
L 75.967812 -41.177143 
L 75.300412 -42.316114 
L 74.552609 -42.316114 
L 74.053976 -42.109029 
L 73.153286 -42.316114 
L 72.389125 -42.005486 
L 71.700379 -40.866514 
L 71.084953 -44.076343 
L 70.368742 -43.869257 
L 69.714172 -44.490514 
L 68.819922 -47.389714 
L 67.964365 -48.839314 
L 66.816251 -47.079086 
L 65.893205 -47.079086 
L 65.220843 -46.1472 
L 64.286109 -40.970057 
L 63.516734 -39.209829 
L 62.884756 -37.760229 
L 62.445935 -37.656686 
L 62.017279 -37.4496 
L 61.557097 -36.931886 
L 61.079307 -36.7248 
L 60.556639 -36.517714 
L 59.921111 -36.931886 
L 59.460348 -36.931886 
z
" id="m6e6c809538" style="stroke:#e85941;"/>
    </defs>
    <g clip-path="url(#pedccc2ef57)">
     <use style="fill:#e85941;stroke:#e85941;" x="0" xlink:href="#m6e6c809538" y="288"/>
    </g>
   </g>
   <g id="patch_3">
    <path d="M 54 252 
L 54 34.56 
" style="fill:none;stroke:#000000;stroke-linecap:square;stroke-linejoin:miter;stroke-width:0.8;"/>
   </g>
   <g id="patch_4">
    <path d="M 388.8 252 
L 388.8 34.56 
" style="fill:none;stroke:#000000;stroke-linecap:square;stroke-linejoin:miter;stroke-width:0.8;"/>
   </g>
   <g id="patch_5">
    <path d="M 54 252 
L 388.8 252 
" style="fill:none;stroke:#000000;stroke-linecap:square;stroke-linejoin:miter;stroke-width:0.8;"/>
   </g>
   <g id="patch_6">
    <path d="M 54 34.56 
L 388.8 34.56 
" style="fill:none;stroke:#000000;stroke-linecap:square;stroke-linejoin:miter;stroke-width:0.8;"/>
   </g>
   <g id="text_21">
    <!-- Training - Canonical ES 1h30 6 CPUs -->
    <defs>
     <path d="M 54.890625 33.015625 
L 54.890625 0 
L 45.90625 0 
L 45.90625 32.71875 
Q 45.90625 40.484375 42.875 44.328125 
Q 39.84375 48.1875 33.796875 48.1875 
Q 26.515625 48.1875 22.3125 43.546875 
Q 18.109375 38.921875 18.109375 30.90625 
L 18.109375 0 
L 9.078125 0 
L 9.078125 54.6875 
L 18.109375 54.6875 
L 18.109375 46.1875 
Q 21.34375 51.125 25.703125 53.5625 
Q 30.078125 56 35.796875 56 
Q 45.21875 56 50.046875 50.171875 
Q 54.890625 44.34375 54.890625 33.015625 
z
" id="DejaVuSans-110"/>
     <path d="M 45.40625 27.984375 
Q 45.40625 37.75 41.375 43.109375 
Q 37.359375 48.484375 30.078125 48.484375 
Q 22.859375 48.484375 18.828125 43.109375 
Q 14.796875 37.75 14.796875 27.984375 
Q 14.796875 18.265625 18.828125 12.890625 
Q 22.859375 7.515625 30.078125 7.515625 
Q 37.359375 7.515625 41.375 12.890625 
Q 45.40625 18.265625 45.40625 27.984375 
z
M 54.390625 6.78125 
Q 54.390625 -7.171875 48.1875 -13.984375 
Q 42 -20.796875 29.203125 -20.796875 
Q 24.46875 -20.796875 20.265625 -20.09375 
Q 16.0625 -19.390625 12.109375 -17.921875 
L 12.109375 -9.1875 
Q 16.0625 -11.328125 19.921875 -12.34375 
Q 23.78125 -13.375 27.78125 -13.375 
Q 36.625 -13.375 41.015625 -8.765625 
Q 45.40625 -4.15625 45.40625 5.171875 
L 45.40625 9.625 
Q 42.625 4.78125 38.28125 2.390625 
Q 33.9375 0 27.875 0 
Q 17.828125 0 11.671875 7.65625 
Q 5.515625 15.328125 5.515625 27.984375 
Q 5.515625 40.671875 11.671875 48.328125 
Q 17.828125 56 27.875 56 
Q 33.9375 56 38.28125 53.609375 
Q 42.625 51.21875 45.40625 46.390625 
L 45.40625 54.6875 
L 54.390625 54.6875 
z
" id="DejaVuSans-103"/>
     <path d="M 4.890625 31.390625 
L 31.203125 31.390625 
L 31.203125 23.390625 
L 4.890625 23.390625 
z
" id="DejaVuSans-45"/>
     <path d="M 64.40625 67.28125 
L 64.40625 56.890625 
Q 59.421875 61.53125 53.78125 63.8125 
Q 48.140625 66.109375 41.796875 66.109375 
Q 29.296875 66.109375 22.65625 58.46875 
Q 16.015625 50.828125 16.015625 36.375 
Q 16.015625 21.96875 22.65625 14.328125 
Q 29.296875 6.6875 41.796875 6.6875 
Q 48.140625 6.6875 53.78125 8.984375 
Q 59.421875 11.28125 64.40625 15.921875 
L 64.40625 5.609375 
Q 59.234375 2.09375 53.4375 0.328125 
Q 47.65625 -1.421875 41.21875 -1.421875 
Q 24.65625 -1.421875 15.125 8.703125 
Q 5.609375 18.84375 5.609375 36.375 
Q 5.609375 53.953125 15.125 64.078125 
Q 24.65625 74.21875 41.21875 74.21875 
Q 47.75 74.21875 53.53125 72.484375 
Q 59.328125 70.75 64.40625 67.28125 
z
" id="DejaVuSans-67"/>
     <path d="M 54.890625 33.015625 
L 54.890625 0 
L 45.90625 0 
L 45.90625 32.71875 
Q 45.90625 40.484375 42.875 44.328125 
Q 39.84375 48.1875 33.796875 48.1875 
Q 26.515625 48.1875 22.3125 43.546875 
Q 18.109375 38.921875 18.109375 30.90625 
L 18.109375 0 
L 9.078125 0 
L 9.078125 75.984375 
L 18.109375 75.984375 
L 18.109375 46.1875 
Q 21.34375 51.125 25.703125 53.5625 
Q 30.078125 56 35.796875 56 
Q 45.21875 56 50.046875 50.171875 
Q 54.890625 44.34375 54.890625 33.015625 
z
" id="DejaVuSans-104"/>
     <path d="M 19.671875 64.796875 
L 19.671875 37.40625 
L 32.078125 37.40625 
Q 38.96875 37.40625 42.71875 40.96875 
Q 46.484375 44.53125 46.484375 51.125 
Q 46.484375 57.671875 42.71875 61.234375 
Q 38.96875 64.796875 32.078125 64.796875 
z
M 9.8125 72.90625 
L 32.078125 72.90625 
Q 44.34375 72.90625 50.609375 67.359375 
Q 56.890625 61.8125 56.890625 51.125 
Q 56.890625 40.328125 50.609375 34.8125 
Q 44.34375 29.296875 32.078125 29.296875 
L 19.671875 29.296875 
L 19.671875 0 
L 9.8125 0 
z
" id="DejaVuSans-80"/>
     <path d="M 8.6875 72.90625 
L 18.609375 72.90625 
L 18.609375 28.609375 
Q 18.609375 16.890625 22.84375 11.734375 
Q 27.09375 6.59375 36.625 6.59375 
Q 46.09375 6.59375 50.34375 11.734375 
Q 54.59375 16.890625 54.59375 28.609375 
L 54.59375 72.90625 
L 64.5 72.90625 
L 64.5 27.390625 
Q 64.5 13.140625 57.4375 5.859375 
Q 50.390625 -1.421875 36.625 -1.421875 
Q 22.796875 -1.421875 15.734375 5.859375 
Q 8.6875 13.140625 8.6875 27.390625 
z
" id="DejaVuSans-85"/>
    </defs>
    <g transform="translate(111.801563 28.56)scale(0.12 -0.12)">
     <use xlink:href="#DejaVuSans-84"/>
     <use x="60.865234" xlink:href="#DejaVuSans-114"/>
     <use x="101.978516" xlink:href="#DejaVuSans-97"/>
     <use x="163.257812" xlink:href="#DejaVuSans-105"/>
     <use x="191.041016" xlink:href="#DejaVuSans-110"/>
     <use x="254.419922" xlink:href="#DejaVuSans-105"/>
     <use x="282.203125" xlink:href="#DejaVuSans-110"/>
     <use x="345.582031" xlink:href="#DejaVuSans-103"/>
     <use x="409.058594" xlink:href="#DejaVuSans-32"/>
     <use x="440.845703" xlink:href="#DejaVuSans-45"/>
     <use x="476.929688" xlink:href="#DejaVuSans-32"/>
     <use x="508.716797" xlink:href="#DejaVuSans-67"/>
     <use x="578.541016" xlink:href="#DejaVuSans-97"/>
     <use x="639.820312" xlink:href="#DejaVuSans-110"/>
     <use x="703.199219" xlink:href="#DejaVuSans-111"/>
     <use x="764.380859" xlink:href="#DejaVuSans-110"/>
     <use x="827.759766" xlink:href="#DejaVuSans-105"/>
     <use x="855.542969" xlink:href="#DejaVuSans-99"/>
     <use x="910.523438" xlink:href="#DejaVuSans-97"/>
     <use x="971.802734" xlink:href="#DejaVuSans-108"/>
     <use x="999.585938" xlink:href="#DejaVuSans-32"/>
     <use x="1031.373047" xlink:href="#DejaVuSans-69"/>
     <use x="1094.556641" xlink:href="#DejaVuSans-83"/>
     <use x="1158.033203" xlink:href="#DejaVuSans-32"/>
     <use x="1189.820312" xlink:href="#DejaVuSans-49"/>
     <use x="1253.443359" xlink:href="#DejaVuSans-104"/>
     <use x="1316.822266" xlink:href="#DejaVuSans-51"/>
     <use x="1380.445312" xlink:href="#DejaVuSans-48"/>
     <use x="1444.068359" xlink:href="#DejaVuSans-32"/>
     <use x="1475.855469" xlink:href="#DejaVuSans-54"/>
     <use x="1539.478516" xlink:href="#DejaVuSans-32"/>
     <use x="1571.265625" xlink:href="#DejaVuSans-67"/>
     <use x="1641.089844" xlink:href="#DejaVuSans-80"/>
     <use x="1701.392578" xlink:href="#DejaVuSans-85"/>
     <use x="1774.585938" xlink:href="#DejaVuSans-115"/>
    </g>
   </g>
   <g id="legend_1">
    <g id="patch_7">
     <path d="M 322.553125 71.91625 
L 381.8 71.91625 
Q 383.8 71.91625 383.8 69.91625 
L 383.8 41.56 
Q 383.8 39.56 381.8 39.56 
L 322.553125 39.56 
Q 320.553125 39.56 320.553125 41.56 
L 320.553125 69.91625 
Q 320.553125 71.91625 322.553125 71.91625 
z
" style="fill:#ffffff;opacity:0.8;stroke:#cccccc;stroke-linejoin:miter;"/>
    </g>
    <g id="patch_8">
     <path d="M 324.553125 51.158437 
L 344.553125 51.158437 
L 344.553125 44.158437 
L 324.553125 44.158437 
z
" style="fill:#b60156;stroke:#b60156;stroke-linejoin:miter;"/>
    </g>
    <g id="text_22">
     <!-- Max -->
     <defs>
      <path d="M 9.8125 72.90625 
L 24.515625 72.90625 
L 43.109375 23.296875 
L 61.8125 72.90625 
L 76.515625 72.90625 
L 76.515625 0 
L 66.890625 0 
L 66.890625 64.015625 
L 48.09375 14.015625 
L 38.1875 14.015625 
L 19.390625 64.015625 
L 19.390625 0 
L 9.8125 0 
z
" id="DejaVuSans-77"/>
      <path d="M 54.890625 54.6875 
L 35.109375 28.078125 
L 55.90625 0 
L 45.3125 0 
L 29.390625 21.484375 
L 13.484375 0 
L 2.875 0 
L 24.125 28.609375 
L 4.6875 54.6875 
L 15.28125 54.6875 
L 29.78125 35.203125 
L 44.28125 54.6875 
z
" id="DejaVuSans-120"/>
     </defs>
     <g transform="translate(352.553125 51.158437)scale(0.1 -0.1)">
      <use xlink:href="#DejaVuSans-77"/>
      <use x="86.279297" xlink:href="#DejaVuSans-97"/>
      <use x="147.558594" xlink:href="#DejaVuSans-120"/>
     </g>
    </g>
    <g id="patch_9">
     <path d="M 324.553125 65.836562 
L 344.553125 65.836562 
L 344.553125 58.836562 
L 324.553125 58.836562 
z
" style="fill:#e85941;stroke:#e85941;stroke-linejoin:miter;"/>
    </g>
    <g id="text_23">
     <!-- Mean -->
     <g transform="translate(352.553125 65.836562)scale(0.1 -0.1)">
      <use xlink:href="#DejaVuSans-77"/>
      <use x="86.279297" xlink:href="#DejaVuSans-101"/>
      <use x="147.802734" xlink:href="#DejaVuSans-97"/>
      <use x="209.082031" xlink:href="#DejaVuSans-110"/>
     </g>
    </g>
   </g>
  </g>
 </g>
 <defs>
  <clipPath id="pedccc2ef57">
   <rect height="217.44" width="334.8" x="54" y="34.56"/>
  </clipPath>
 </defs>
</svg>
